<?xml version="1.0" encoding="utf-8"?>
<!-- Generator: Adobe Illustrator 22.0.1, SVG Export Plug-In . SVG Version: 6.00 Build 0)  -->
<svg version="1.1" id="Layer_1" xmlns="http://www.w3.org/2000/svg" xmlns:xlink="http://www.w3.org/1999/xlink" x="0px" y="0px"
	 viewBox="0 0 1000 1000" style="enable-background:new 0 0 1000 1000;" xml:space="preserve">
<style type="text/css">
	.st0{fill:#1A427A;}
	.st1{fill:none;stroke:#F4F4F4;stroke-miterlimit:10;}
	.st2{fill:#06679A;}
	.st3{fill:url(#SVGID_1_);}
	.st4{fill:#21AAE2;}
	.st5{fill:url(#SVGID_2_);}
	.st6{fill:#FFFFFF;}
</style>
<g>
	<path class="st0" d="M136.1,491.2c-1.2-3.5-2.1-6.4-2.5-8.6h-0.1c-0.6,2.4-1.5,5.2-2.8,8.5l-6.9,18.8h18.8L136.1,491.2 M153.1,537
		l-7-17.8h-25.9l-6.6,17.8h-11l27-70h7.7l27.7,70H153.1z"/>
	<path class="st0" d="M193.2,476.8H185v50.6h8.2c19.4,0,26.6-12.2,26.6-25.9C219.8,487.4,211.2,476.8,193.2,476.8 M192.6,537h-18.8
		v-69.8H193c25.8,0,38.5,14.2,38.5,34.2C231.5,521.9,217.9,537,192.6,537"/>
	<rect x="245.1" y="467.2" class="st0" width="11.1" height="69.8"/>
	<path class="st0" d="M290.5,506.2h-9.4v21.3h8.9c9,0,13.6-4.5,13.6-11.1C303.6,510.4,298.7,506.2,290.5,506.2 M281.1,476.8v19.8
		h7.9c5.2,0,10.3-3.8,10.3-10.2c0-5.8-3.5-9.6-11.1-9.6L281.1,476.8L281.1,476.8z M290.5,537H270v-69.8h21.2
		c13.4,0,19.5,8.9,19.5,17.2c0,6.5-3.1,12.2-8.9,14.8v0.1c7.3,1.6,13.4,8.3,13.4,17C315.1,526,308.4,537,290.5,537"/>
	<path class="st0" d="M688.3,533.9c-3.5,0-5.3-2.9-5.3-8.7c0-6,1.8-9,5.3-9c3.6,0,5.3,3,5.3,9.1C693.7,531,691.9,533.9,688.3,533.9
		 M688.3,512.5c-5.8,0-9.4,4.5-9.6,12c0,0,0.1,3.7-0.7,5.8c-0.8,2-2.5,3.3-4.5,3.3H564.4v-19.3c-7.5-0.1-13.6,0.4-13.6,10.8v8.5
		h-18.2c0,0,0.7-5.2,2.1-8.1c2.5-5.4,6.2-5.8,9.8-5.8v-3.8c-7.5-0.1-11.5,2.9-14.2,9.7c-1.7,4.5-2.2,9.4-2.5,12.3h27.4v-11.8
		c0-6.8,2.7-7.1,5-7.1v18.9H674c3.4,0,5.5-1.8,6.8-3.8c1.7,2.5,4.3,3.8,7.5,3.8c6.2,0,9.8-4.6,9.8-12.6
		C698.1,517.2,694.4,512.5,688.3,512.5"/>
	<path class="st0" d="M667,487.5h-11c1.2-3.5,4.4-14.4,12.1-14.4c3.5,0,5,3.5,5,6.3C673.1,483.5,671.6,487.5,667,487.5 M668.3,469.2
		c-6.5,0-10.4,5.7-12.7,10.8v-0.1l0.6-17.7h-4.3v25.3h-20.2c-3.6,0-5.8-1.7-5.8-4.8V471h-4.3v11.5c0,3.1-1.9,4.9-5.1,4.9h-51.8
		v-19.3c-7.5-0.1-13.6,0.4-13.6,10.8v8.5h-18.2c0,0,0.7-5.2,2.1-8.1c2.5-5.4,6.2-5.8,9.8-5.8v-3.8c-7.5-0.1-11.5,2.9-14.2,9.6
		c-1.8,4.5-2.2,9.4-2.5,12.3h27.4v-11.8c0-6.8,2.7-7.1,5-7.1v18.9h57.1v-0.1c2.8-0.2,5-1.3,6.5-3.2c1.6,2,4.2,3.1,7.5,3.2l0,0H667
		c8.4,0,10.5-8,10.5-12.1C677.4,475,674.7,469.2,668.3,469.2"/>
	<path class="st0" d="M882,537.7h-10.6v-4.2h4.3V505h4.4v28.5h1.8c1.8,0,3.5-1.4,4.2-3.2c0.7-1.9,0.7-3.8,0.7-5.9V505h4.3v22.5
		C891.1,533.9,887.1,537.7,882,537.7"/>
	<rect x="895.9" y="505" class="st0" width="4.3" height="32.7"/>
	<path class="st0" d="M862.2,517v10.6c0,4.9-0.9,6-3.6,6H854V517h-4.3v16.6h-8.2V517h-4.2v16.6H730c-3,0-5.3-1.4-5.3-3.2
		c0-1.3,0-25.3,0-25.3h-4.3v19.4c0,6-1.7,9-4.9,9h-1.8V505h-4.4v28.5H705v4.2h10.6c2.8,0,5.1-1,6.8-3.2c1.8,2.2,4.3,3.2,7.6,3.2
		h128.7c4.8,0,7.8-2.8,7.8-8V517H862.2"/>
	<path class="st0" d="M696.7,487.5h-5.1c-3.6,0-5-4.2-5-7.2c0-3.1,0.9-8.2,5-8.2h5.1V487.5 M727.5,471v10.5c0,3.8-1.8,6-5.8,6H701
		v-19.3h-9.5c-5.7,0-9.3,3.9-9.3,12.1c0,8.5,5.4,11.4,9.3,11.4h5c0,2.3-2,5.1-4.7,5.2v3.8h0.1c4.7,0,8.5-3.4,9-9v-0.1h22.3
		c0.4,0,8.5-0.7,8.5-9.9V471H727.5z"/>
	<path class="st0" d="M736.6,459h4.3v32.7h-4.3V459z M733,456.2v-2.4h2.2v-0.5c0-1.2,0.3-5,4-5c2.1,0,3.1,1.1,3.8,3h-2.6
		c-0.3-0.5-0.6-0.7-1.2-0.7c-1.3,0-1.6,1.5-1.6,2.6v0.6h5.7v2.4H733z"/>
	<path class="st0" d="M777.5,471.9c-3.5,0-5.3,2.4-5.3,8.2c0,5.6,1.8,7.4,5.3,7.4c3.4,0,5.3-1.9,5.3-7.3
		C782.7,474.2,781,471.9,777.5,471.9 M777.5,491.6h-13c-6.3,0-10-3.8-10-9.9V471h4.3v10.5c0,3.8,1.8,6,5.7,6h5.3
		c-1.3-2.1-1.9-3.9-1.9-7.4c0-7.7,3.7-11.9,9.7-11.9s9.6,4.2,9.6,12C787.1,488,783.5,491.6,777.5,491.6"/>
	<path class="st0" d="M890.4,487.9c-3.5,0-5.3-2.9-5.3-8.7c0-6,1.8-9,5.3-9c3.6,0,5.3,3,5.3,9.1C895.7,485,893.9,487.9,890.4,487.9
		 M860,487.5h-11.6c1.2-3.6,4.4-14.4,12.1-14.4c3.5,0,5,3.5,5,6.3C865.5,483.4,864.1,487.5,860,487.5 M890.4,466.4
		c-5.8,0-9.4,4.5-9.7,12c0,0,0.1,3.7-0.7,5.8c-0.9,2-2.5,3.3-4.5,3.3h-8.1c1.7-2.6,2.3-5.8,2.3-7.9c0-4.6-2.7-10.3-9.1-10.3
		c-6.5,0-10.4,5.7-12.7,10.6v-6.7h-4.2v14.3h-39.8c-3.4,0-5.7-1.6-5.7-4.5v-12h-4.3v16.7c0,1.4,0.2,3.9-0.7,5.8
		c-0.8,1.9-2.6,3.2-4.2,3.3v3.8c5.9,0.2,9.2-4.8,9.2-10.2V490c1.5,0.9,3.4,1.5,5.7,1.5h72.4c2.3,0,5.1-1.7,6.4-3.8
		c1.7,2.5,4.3,3.8,7.5,3.8c6.2,0,9.8-4.6,9.8-12.6C900.2,471.2,896.5,466.4,890.4,466.4"/>
	<path class="st0" d="M542.3,498.3c0,1.3-1,2.3-2.3,2.3s-2.3-1-2.3-2.3s1-2.3,2.3-2.3C541.2,496,542.3,497,542.3,498.3"/>
	<path class="st0" d="M548.7,498.3c0,1.3-1,2.3-2.3,2.3s-2.3-1-2.3-2.3s1-2.3,2.3-2.3S548.7,497,548.7,498.3"/>
	<path class="st0" d="M625.9,498.3c0,1.3-1,2.3-2.3,2.3s-2.3-1-2.3-2.3s1-2.3,2.3-2.3S625.9,497,625.9,498.3"/>
	<path class="st0" d="M731.7,498.3c0,1.3-1,2.3-2.3,2.3s-2.3-1-2.3-2.3s1-2.3,2.3-2.3S731.7,497,731.7,498.3"/>
	<path class="st0" d="M669.6,461.1c0,1.3-1,2.3-2.3,2.3s-2.3-1-2.3-2.3s1-2.3,2.3-2.3C668.5,458.9,669.6,459.9,669.6,461.1"/>
	<path class="st0" d="M779.7,461.1c0,1.3-1,2.3-2.3,2.3s-2.3-1-2.3-2.3s1-2.3,2.3-2.3C778.7,458.9,779.7,459.9,779.7,461.1"/>
	<path class="st0" d="M542.3,544.5c0,1.3-1,2.3-2.3,2.3s-2.3-1-2.3-2.3s1-2.3,2.3-2.3C541.2,542.2,542.3,543.2,542.3,544.5"/>
	<path class="st0" d="M548.7,544.5c0,1.3-1,2.3-2.3,2.3s-2.3-1-2.3-2.3s1-2.3,2.3-2.3S548.7,543.2,548.7,544.5"/>
	<path class="st0" d="M871.3,547.2v-2.3h2.1v-0.5c0-1.2,0.3-5,4-5c2.2,0,3.1,1.1,3.8,3h-2.6c-0.3-0.5-0.6-0.7-1.2-0.7
		c-1.3,0-1.5,1.4-1.5,2.6v0.6h5.7v2.3L871.3,547.2"/>
</g>
<circle class="st1" cx="421.4" cy="499.4" r="67.7"/>
<path class="st2" d="M451.9,559.7c-37.8-11.3-45.5-41.8-45.5-41.8s-11.9-13.5-11.9-14.5s-13.3-16.5-13.3-16.5l-3.3-7.7H361l-5.4,4.9
	c-1.2,5-1.8,10.2-1.9,15.5c0.1,37.3,30.4,67.5,67.7,67.5c11,0,21.4-2.7,30.7-7.3C452,559.8,452,559.8,451.9,559.7z"/>
<linearGradient id="SVGID_1_" gradientUnits="userSpaceOnUse" x1="355.6886" y1="475.0328" x2="437.9" y2="475.0328">
	<stop  offset="0" style="stop-color:#1387C8"/>
	<stop  offset="1" style="stop-color:#24AFE3"/>
</linearGradient>
<path class="st3" d="M429.9,432.7c-0.2,0-0.4-0.1-0.6-0.1c-0.6-0.1-1.2-0.1-1.7-0.2c-2-0.2-4-0.3-6-0.3c0,0-0.1,0-0.1,0
	c-28,0-52.1,17.1-62.4,41.4c0,0,0,0,0,0c-0.4,0.9-0.8,1.9-1.1,2.9c-0.1,0.2-0.1,0.3-0.2,0.5c-0.3,0.8-0.6,1.7-0.9,2.5
	c-0.1,0.2-0.1,0.4-0.2,0.6c-0.3,0.8-0.5,1.7-0.7,2.5c0,0.2-0.1,0.4-0.2,0.6c0,0.2-0.1,0.3-0.1,0.5l0.1,0.6l6.9,9.9
	c6.7,7.9,18.5,18.3,36.7,22.6h0c0.1,0,0.2,0,0.3,0.1c0.6,0.1,1.3,0.3,1.9,0.4c1.2,0.2,2.4,0.4,3.7,0.6l0.3,0.1
	c0.3,0,0.5,0.1,0.8,0.1l0-0.1l6.9-14.9l6.3-20.2l13.5-28.5l4.7-20C435.3,433.6,432.6,433,429.9,432.7z"/>
<path class="st4" d="M479.9,465.6l-13.5,3.6l-25,15.7l-24.5,21.5l-10.4,11.6c0,0,7.7,30.5,45.5,41.8c0.1,0,0.2,0,0.3,0
	c21.2-10.8,36-32.5,37-57.7c0-0.3,0-0.7,0-1c0-0.5,0-0.9,0-1.4C489.1,487.2,485.7,475.6,479.9,465.6z"/>
<linearGradient id="SVGID_2_" gradientUnits="userSpaceOnUse" x1="402.4384" y1="476.1251" x2="483.6441" y2="476.1251">
	<stop  offset="0" style="stop-color:#CAE2F4"/>
	<stop  offset="1" style="stop-color:#18B7D8"/>
</linearGradient>
<path class="st5" d="M473.7,482.2c6.6-7.9,9.3-9,10-9.1c-8.3-19.2-25.2-33.8-45.9-38.9c-51.8,32.2-31.4,83.6-31.4,83.6
	c22.9,2.1,40-5,52.2-14.1c2.9-2.2,3.2-12.2,5.5-14.5C466.4,487,471.9,484.3,473.7,482.2z"/>
<path class="st6" d="M489.1,496.7c0-0.1,0-0.2,0-0.4c-1.9-35.8-31.4-64.2-67.6-64.2c-13.3,0-25.7,3.8-36.1,10.4
	c0.8-0.4,1.6-0.9,2.5-1.3c5.1-2.2,10.5-3.9,16.1-4.9c16.7-2.2,35.5,3.2,51.1,15.5l-36.7-4.3l40.6,14.3l-56.7,15.8l56.2-6.3
	l-41.7,38.4l45.4-30.2l-19.9,58l30.6-52l-1.4,34.4l10-31.3c3.2,10.2,4.2,20.6,2.7,30.2c-1.3,6.7-3.7,13-6.7,18.9
	c-0.4,0.7-0.9,1.4-1.3,2.1c7.6-10.4,11.9-22.5,12.9-34.8c0-0.3,0-0.6,0.1-0.8c0-0.6,0.1-1.2,0.1-1.8c0-0.6,0-1.2,0-1.7
	c0-0.4,0-0.8,0-1.2C489.2,498.5,489.1,497.6,489.1,496.7z"/>
</svg>
