<?xml version="1.0" encoding="utf-8"?>
<!-- Generator: Adobe Illustrator 22.0.1, SVG Export Plug-In . SVG Version: 6.00 Build 0)  -->
<svg version="1.1" id="Layer_1" xmlns="http://www.w3.org/2000/svg" xmlns:xlink="http://www.w3.org/1999/xlink" x="0px" y="0px"
	 viewBox="0 0 1000 1000" style="enable-background:new 0 0 1000 1000;" xml:space="preserve">
<style type="text/css">
	.st0{clip-path:url(#SVGID_2_);fill:url(#SVGID_3_);}
	.st1{clip-path:url(#SVGID_5_);fill:url(#SVGID_6_);}
	.st2{fill:#007236;}
	.st3{clip-path:url(#SVGID_8_);fill:url(#SVGID_9_);}
	.st4{fill:#F6931D;}
</style>
<g>
	<g>
		<g>
			<defs>
				<path id="SVGID_1_" d="M770.9,374.8c-0.4,2.4-0.6,4.8-0.6,7.3c0,25,20.2,45.2,45.2,45.2c24.9,0,45.2-20.2,45.2-45.2
					c0-2.5-0.2-4.9-0.6-7.3H770.9z"/>
			</defs>
			<clipPath id="SVGID_2_">
				<use xlink:href="#SVGID_1_"  style="overflow:visible;"/>
			</clipPath>
			
				<radialGradient id="SVGID_3_" cx="83.3605" cy="-106.5605" r="4.6479" gradientTransform="matrix(61.6586 0 0 -61.6586 -4455.2983 -6208.8394)" gradientUnits="userSpaceOnUse">
				<stop  offset="0" style="stop-color:#FBED21"/>
				<stop  offset="5.493160e-03" style="stop-color:#FBED21"/>
				<stop  offset="0.1174" style="stop-color:#FBE921"/>
				<stop  offset="0.2403" style="stop-color:#F9DB21"/>
				<stop  offset="0.3684" style="stop-color:#F8C522"/>
				<stop  offset="0.5002" style="stop-color:#F5A722"/>
				<stop  offset="0.6333" style="stop-color:#F28023"/>
				<stop  offset="0.7253" style="stop-color:#EF6024"/>
				<stop  offset="1" style="stop-color:#EF6024"/>
			</radialGradient>
			<rect x="770.3" y="374.8" class="st0" width="90.4" height="52.4"/>
		</g>
		<g>
			<defs>
				<path id="SVGID_4_" d="M770.6,442.3v62.8c0,15.5,11.2,18.3,17,18.7h3.4v-81.5H770.6z M805.3,523.9h20.4v-81.6h-20.4V523.9z
					 M840,442.3v81.5h3.5c5.6-0.4,16-3,17-16.7v-64.8H840z"/>
			</defs>
			<clipPath id="SVGID_5_">
				<use xlink:href="#SVGID_4_"  style="overflow:visible;"/>
			</clipPath>
			
				<radialGradient id="SVGID_6_" cx="84.8291" cy="-109.569" r="4.6479" gradientTransform="matrix(51.4271 0 0 -51.4271 -3638.5383 -5226.8594)" gradientUnits="userSpaceOnUse">
				<stop  offset="0" style="stop-color:#FBED21"/>
				<stop  offset="5.493160e-03" style="stop-color:#FBED21"/>
				<stop  offset="0.8791" style="stop-color:#EF6024"/>
				<stop  offset="1" style="stop-color:#EF6024"/>
			</radialGradient>
			<rect x="770.6" y="442.3" class="st1" width="89.8" height="81.6"/>
		</g>
		<g>
			<path class="st2" d="M872.6,330.6H758.4c-15.2,0-27.6,12.3-27.6,27.6v115.9c0,14.2,8.6,25.9,22.3,27.4V353.1H878v148.3
				c13.6-1.6,22.2-13.3,22.2-27.4V358.1C900.2,342.9,887.9,330.6,872.6,330.6"/>
		</g>
		<g>
			<defs>
				<rect id="SVGID_7_" x="100.5" y="452.9" width="605.4" height="11.2"/>
			</defs>
			<clipPath id="SVGID_8_">
				<use xlink:href="#SVGID_7_"  style="overflow:visible;"/>
			</clipPath>
			
				<radialGradient id="SVGID_9_" cx="78.3931" cy="-98.5922" r="4.6479" gradientTransform="matrix(190.9363 0 0 -191.0605 -14773.7109 -18509.2852)" gradientUnits="userSpaceOnUse">
				<stop  offset="0" style="stop-color:#FBED21"/>
				<stop  offset="5.493160e-03" style="stop-color:#FBED21"/>
				<stop  offset="0.9176" style="stop-color:#EF6024"/>
				<stop  offset="1" style="stop-color:#EF6024"/>
			</radialGradient>
			<rect x="100.5" y="452.9" class="st3" width="605.4" height="11.2"/>
		</g>
		<g>
			<path class="st2" d="M142.2,475l-12.5,37.4h6.9l2.7-8.5H152l2.8,8.5h7.1L149,475H142.2z M141.2,497.6l4.3-13.9l4.4,13.9H141.2z
				 M120,499.9L106.9,475h-6.3v37.4h6V488l13,24.4h6.5V475h-6V499.9z M189.3,512.4h6.5V475h-6.5V512.4z M171.3,437.1
				c0.4,0,7.5-5.5,14.1-8.8c1.4-0.7,2.6-2.3,2.3-4.8c0-0.2-8.8,3-17.4,10.3C168.3,435.5,170.8,437.1,171.3,437.1 M159.1,481.3h9.5
				v31.1h6.5v-31.1h9.5V475h-25.5V481.3z M548.8,351c0,0-7.2,12.4-29.9,22.7c0,0-0.7,0.4-0.9,1.1c-0.3,1.1,1.6,1.9,6.8-0.1
				c15.2-6,25.1-16.8,28.2-21.5l2.7,2c0,0,3.5-1.5,2.8-9.6l-1.9-2.4c0,0,2.3-6.5-1.4-9.8c-3.7-3.3-8.8,1.3-10.2,3.1
				C543.7,338.2,540.4,344.5,548.8,351 M549.6,338.8c2.1-1.9,5.5,2.5,0.9,4.7C549.7,343.9,547.5,340.6,549.6,338.8 M596.7,377.8
				c0,0-1.2-0.4-2,0.4c-0.8,0.8-4.8,6.3-4.8,6.3s-0.4,1.2,0.4,1.6c0.8,0.4,8.3,3.6,8.3,3.6l5.4-6.9c0,0,0.5-1.7-0.9-2.5
				C601.5,379.4,596.7,377.8,596.7,377.8 M450.5,350.8c0.5-0.1,9.8-7.2,18.6-11.5c1.8-0.9,3.3-3.1,3-6.3c0-0.2-11.6,3.9-22.9,13.5
				C446.7,348.7,450,350.9,450.5,350.8 M465.4,349.4c-4,1.2-8,6.5-8.2,11.4c-0.2,4.9,6.8,7.5,6.8,7.5s-2.1,3.1-1.1,6.6
				c0.6,2.4,1.3,1.5,1.3,1.5c2.6-6.6,7.5-8.9,9.9-9.7c2.3-0.8,2.5-1.8,2.5-1.8s2.1-7.2,0.9-7.2c-1.1,0-5.2,2-6.8,2.7
				c-1.5,0.8-5.2,1.7-6.1,0.2c-2-3.1,2.4-3.1,3.2-3.1c1,0,2.2-0.1,5.8-2.3c1.5-1,1-2,0.3-3.1C473,351,469.4,348.2,465.4,349.4
				 M107.8,362.3c11.2-4.5,18.5-12.6,20.8-16.1l2,1.5c0,0,2.6-1.1,2.1-7.2l-1.4-1.8c0,0,1.7-4.9-1-7.3c-2.8-2.5-6.5,1-7.5,2.3
				c-1,1.3-3.4,6,2.8,10.9c0,0-5.3,9.3-22,17c0,0-0.5,0.3-0.7,0.8C102.6,363.2,104.1,363.8,107.8,362.3 M126.3,334.9
				c1.8-1.6,4.6,2.1,0.8,3.9C126.3,339.2,124.5,336.5,126.3,334.9 M694.9,427c-0.1,1.6-0.3,3.2,0.9,3.1c4.9-0.5,7.3-17.9,7.7-35.4
				c0.4-15.9-3.3-34.5-3.9-37.4c-0.5-2.9-0.8-4.8,0.8-6.2c1.6-1.3,3.7,0,4.5-0.5c0.8-0.5,0.2-1.7,0.2-1.7s-9.6-16.8-10.4-17.8
				c-0.8-0.9-1.6-0.1-1.6-0.1l-5,8.5c0,0,4.3,16.4,7,40C697.3,398.5,695,425.4,694.9,427 M590.5,371c0,0,20.3-15.8,59.2-30.6
				l4.3-7.9c0,0-29.1,8-62.8,29.5c-1.9,1.2-3.9,6-3.6,7.3C587.8,370.7,589.2,371.4,590.5,371 M132.1,355.2c0.6,1.4,1.2,5.4,1.2,5.4
				s-0.3,1.5-1.6,1.8c-3.9,0.9-3.8-7.6-3.8-7.6s-0.5-1.5-1.8-1.6c-1.2-0.1-2.2,1.8-2.2,2.1c0,0.3,0.5,3.2,2.2,8.4
				c1.7,5.1,5.3,4.1,7.3,3.6c1.9-0.5,2.9-3.4,3.5-3.7c0.8-0.4,5.5,0.5,6.2-1.8c1.7-6-2.4-11.1-3.6-12.8c-1.2-1.7-2.7,0-2.7,0
				c2.2,3.1,5.1,10,2.6,10.9c-2.5,1-4-5.1-4.2-6.7c-0.2-1.5-0.5-3-2.7-2.3C130.3,351.5,131.6,353.8,132.1,355.2 M339.3,376.3
				c-2.5,1-4-5.1-4.2-6.7c-0.2-1.5-0.5-3-2.7-2.4c-2.2,0.6-1,2.9-0.5,4.3c0.5,1.4,1.2,5.4,1.2,5.4s-0.3,1.5-1.6,1.9
				c-3.9,0.9-3.8-7.6-3.8-7.6s-0.5-1.5-1.8-1.5c-1.2-0.1-2.2,1.8-2.2,2.1c0,0.3,0.5,3.2,2.2,8.3c1.7,5.1,5.4,4.1,7.3,3.6
				c1.9-0.5,2.9-3.5,3.5-3.7c0.7-0.4,5.5,0.5,6.2-1.8c1.7-5.9-2.4-11.1-3.6-12.8c-1.2-1.7-2.7,0-2.7,0
				C338.8,368.4,341.8,375.3,339.3,376.3 M277.2,431.3c-0.1,1.6-0.3,3.2,0.9,3.1c4.9-0.5,7.3-17.9,7.7-35.4
				c0.4-15.9-3.3-34.5-3.9-37.4c-0.5-2.9-0.8-4.8,0.8-6.2c1.6-1.3,3.8,0,4.6-0.5c0.8-0.5,0.1-1.7,0.1-1.7s-9.6-16.8-10.4-17.8
				c-0.8-0.9-1.6-0.1-1.6-0.1l-5,8.5c0,0,4.3,16.4,7,40C279.6,402.8,277.3,429.7,277.2,431.3 M301.2,377.1
				c15.1-6,25.1-16.8,28.2-21.5l2.7,2c0,0,3.5-1.5,2.8-9.6l-1.9-2.4c0,0,2.3-6.5-1.3-9.8c-3.8-3.3-8.8,1.4-10.2,3.1
				c-1.3,1.7-4.7,8,3.7,14.6c0,0-7.2,12.4-29.9,22.7c0,0-0.7,0.4-0.9,1.1C294.1,378.4,296.1,379.1,301.2,377.1 M326.1,340.9
				c2.1-1.9,5.5,2.5,0.9,4.7C326.1,346,323.9,342.8,326.1,340.9 M544.1,399.8c-5.7,1.5-14.4-0.9-14.7,0.1c-0.3,1.1,6.9,8.3,17.3,5.9
				c9.8-2.3,11-6.9,12.3-9.8c2.3-5.1,1.2-12.4-3.9-11.8c-5.1,0.7-6.9-1.7-6.9-3.4c0-1.6,1.2-3.3,4.4-3.9c3.2-0.5,4-3.2,4-3.2
				l0.1-5.1c0,0,0.3-2.7-2.8-2.1c-3.1,0.5-7.2,4.3-9.7,9.5c-2.5,5.2-2.9,12.5-1.2,15c2,3,8.6,1.7,9,4.3
				C552.1,396.7,549.9,398.4,544.1,399.8 M518.1,512.4h6.5v-15.9H538v-6.3h-13.4v-8.8h15.5V475h-22.1V512.4z M564.5,495.9h16.1v-6.3
				h-16.1v-8.3h17.4V475h-23.9v37.4h24.5V506h-17.9V495.9z M602.9,498.6h7.4v4.8c-1,0.9-2.2,1.6-3.5,2.2c-1.4,0.6-2.7,0.9-4.1,0.9
				c-2.7,0-5-1.1-6.7-3.3c-1.7-2.2-2.5-5.6-2.5-10c0-4.1,0.8-7.2,2.5-9.3c1.7-2.1,3.9-3.2,6.8-3.2c1.9,0,3.4,0.5,4.7,1.6
				c1.3,1.1,2.1,2.5,2.6,4.4l6.4-1.4c-0.7-3.4-2.1-6.1-4.3-8.1c-2.3-2-5.4-2.9-9.4-2.9c-3.1,0-5.6,0.6-7.7,1.8
				c-2.7,1.6-4.8,3.9-6.2,7c-1.4,3-2.1,6.5-2.1,10.4c0,3.6,0.6,6.9,1.9,9.9c1.2,3.1,3.1,5.4,5.6,7.1c2.5,1.6,5.4,2.5,8.8,2.5
				c2.6,0,5.2-0.6,7.8-1.8c2.6-1.2,4.5-2.5,5.9-4v-14.9h-14V498.6z M479.2,401.5l12.8-12.8c0,0,1.2,34.6,0,42.8
				c-1.2,8.2,5.1-3.6,5.7-13.1c0.6-9.5,0.2-36.2,0.2-36.2s32.5-31.7,36.5-47.7c1-4-1.8-2.9-2.8-1.7c-0.9,1.2-25.9,34.2-34.5,40.3
				l-2.3-16.8c0,0,0.8-2.2,2.2-1.2c1.4,0.9,1.7,1.7,2.6,1.2c0.9-0.4,0.5-1.7,0.5-1.7l-8.2-19.9c0,0-0.8-1.5-1.7-0.5
				c-0.9,1.1-3.8,7.6-3.8,7.6s5.9,23,4.7,37.2L474,395.5L436.3,359c0,0-1.4-2.4,0.9-2.5c2.3-0.2,2.4-1.5,0.8-2.8
				c-1.7-1.2-19.2-12.3-19.2-12.3l0.9,11.4l49.1,49.4c0,0-8.9,6.6-8.6,16.8c0.3,10.2,3.7,11.1,8.3,11.4c4.6,0.3,14.3-2.9,14.9-14.8
				C483.8,406.1,479.2,401.5,479.2,401.5 M472.4,418.4c-4.6,0.6-6.3-0.5-6.3-2.2c0-1.7,2.6-8.2,7.8-9.7c0,0,4.3,3.5,4.2,5.2
				C478,413.5,477.1,417.8,472.4,418.4 M497.3,474.3c-2.6,0-4.9,0.5-6.9,1.5c-1.5,0.7-2.9,1.8-4.2,3.3c-1.3,1.5-2.3,3.2-3,5.1
				c-1,2.6-1.5,5.8-1.5,9.6c0,5.9,1.4,10.6,4.2,14c2.8,3.4,6.6,5.1,11.4,5.1c4.7,0,8.5-1.7,11.3-5.1c2.8-3.4,4.2-8.1,4.2-14.1
				c0-6.1-1.4-10.9-4.2-14.3C505.9,476,502.1,474.3,497.3,474.3 M503.8,503.3c-1.7,2.2-3.8,3.2-6.4,3.2c-2.6,0-4.8-1.1-6.4-3.3
				c-1.7-2.2-2.5-5.4-2.5-9.6c0-4.4,0.8-7.5,2.5-9.7c1.6-2.2,3.8-3.2,6.5-3.2c2.7,0,4.8,1.1,6.4,3.2c1.6,2.1,2.4,5.3,2.4,9.6
				C506.3,497.9,505.4,501.1,503.8,503.3 M216.2,474.3c-2.6,0-4.9,0.5-6.9,1.5c-1.5,0.7-2.9,1.8-4.2,3.3c-1.3,1.5-2.3,3.2-3,5.1
				c-1,2.6-1.5,5.8-1.5,9.6c0,5.9,1.4,10.6,4.2,14c2.8,3.4,6.6,5.1,11.4,5.1c4.7,0,8.5-1.7,11.3-5.1c2.8-3.4,4.2-8.1,4.2-14.1
				c0-6.1-1.4-10.9-4.3-14.3C224.7,476,220.9,474.3,216.2,474.3 M222.6,503.3c-1.7,2.2-3.8,3.3-6.3,3.3c-2.6,0-4.7-1.1-6.4-3.3
				c-1.7-2.2-2.5-5.4-2.5-9.6c0-4.4,0.8-7.5,2.5-9.7c1.7-2.2,3.8-3.2,6.5-3.2c2.6,0,4.8,1.1,6.4,3.2c1.6,2.1,2.4,5.3,2.4,9.6
				C225.1,497.9,224.3,501.1,222.6,503.3 M633.8,489.7l-7.6-14.8h-7.6l11.8,21.6v15.8h6.5v-15.7l11.8-21.7h-7.5L633.8,489.7z
				 M680.5,475v6.3h9.5v31.1h6.5v-31.1h9.5V475H680.5z M668.5,331.8c-0.8-0.9-1.6-0.1-1.6-0.1l-5,8.5c0,0,3.4,12.9,6,32.2l0.9,7.1
				c0,0.2,0,0.4,0.1,0.6c0.3,2.1,0.5,4.3,0.8,6.3l1.8,14.2c0,0,2.3,10.9-6.5,12.4c-11.1,1.8-9.6-9.4-9.2-10.7
				c0.4-1.3-0.3-2.4-1.5-1.5c-11.8,9.4-20.5,15.3-30.7,15.4c-15.9,0.2-13.9-10-14.2-12.8c-0.3-3.2-2.2-2.5-3-1.6
				c-0.8,0.9-7,14.2-15.6,13.2c-10.9-1.2-9-14.4-9-18.2c0-24.6-5.2-62.2-5.2-63.5c0-1.3-1.3-1.1-1.3-1.1l-4.7,8.4
				c5.1,29.9,5.3,60.2,5.3,60.2s-10.6,17.9-32.2,18.1c-11.2,0.1-17.7-3.2-21.1-6.3c-3.4-3.1-4.3-6-4.4-8.7
				c-0.3-5.7,4.9-11.9,4.9-11.9s0-2.1-1.7-2.9c-1.7-0.8-5.7,2.2-8.4,16.7c-2.7,14.6,12.7,22.4,22.1,22.9
				c27.4,1.2,39.2-15.4,40.1-16.3c0.9-1,3.6-3.6,3.9,1.2c0.3,4.8,3.9,12.8,12.7,12.6c8.8-0.3,10.8-6.4,11.6-7.5
				c0.8-1.1,2-1.3,2.9,0.4c1.2,2.1,8.5,9.9,20.5,7.2c17.6-4,21.8-12.4,23.8-12.4c3.9-0.1,1.5,9,11.9,9c12.7,0,14.9-16,15.1-17.9
				c0.1-0.9-1-12.1-2.1-23.4c-0.5-11.3-1.5-21.5-1.9-23.4c-0.5-3-0.8-4.8,0.8-6.2c1.6-1.3,3.7,0,4.5-0.5c0.8-0.5,0.1-1.7,0.1-1.7
				S669.3,332.8,668.5,331.8 M671,475.5c-1.2-0.3-3.7-0.5-7.7-0.5h-10.4v37.4h6.5v-14.1h4.2c2.9,0,5.2-0.2,6.7-0.5
				c1.1-0.3,2.3-0.9,3.4-1.8c1.1-0.9,2-2.1,2.7-3.7c0.7-1.6,1.1-3.5,1.1-5.8c0-3-0.6-5.4-1.9-7.3C674.3,477.3,672.8,476.1,671,475.5
				 M670,489.5c-0.5,0.8-1.2,1.5-2,1.9c-0.9,0.4-2.6,0.6-5.1,0.6h-3.6v-10.6h3.1c2.3,0,3.9,0.1,4.6,0.2c1.1,0.2,1.9,0.8,2.6,1.7
				c0.7,0.9,1,2,1,3.3C670.8,487.7,670.5,488.6,670,489.5 M653.7,428.8c-1.5-0.8-6.3-2.4-6.3-2.4s-1.2-0.4-2,0.4
				c-0.8,0.8-4.8,6.3-4.8,6.3s-0.4,1.2,0.4,1.6c0.8,0.4,8.3,3.6,8.3,3.6l5.3-7C654.6,431.3,655.1,429.6,653.7,428.8 M466.6,475h-8.7
				l-13.1,16.6V475h-6.5v37.4h6.5V501l5.2-6.3l8.9,17.6h8.4l-12.8-22.8L466.6,475z M275.3,411.5c1.1-11.8-6.5-14.6-10.3-15.1
				c-3.8-0.5-4.8,1.5-8.1,1.8c-0.8,0.1-1.4-0.3-1.7-0.9c0.2-15.8-1.7-36.4-2.2-39.3c-0.5-3-0.8-4.8,0.8-6.2c1.6-1.3,3.7,0,4.6-0.5
				c0.8-0.5,0.1-1.7,0.1-1.7s-9.6-16.8-10.4-17.8c-0.8-0.9-1.6-0.1-1.6-0.1l-5,8.5c0,0,2.9,10.8,5.4,27.6c1.6,12.2,2.5,24.8,2,30.6
				c-0.8,9-8.8,8.5-9.1,7.3c-0.3-1.1,1.3-5,1.7-9.6c0.3-4.6-5.8-12.8-16.9-13.3c-11.1-0.5-20.3,9.8-22.4,12.3
				c-2.6,3.2-5.3,7.6-7,10.2c-1.7-1.3-6.5-6.2-11.9-5.3c-6,0.9-8.9,2.6-16.4,9.4c-6.6,5.9-16.5,21.2-26,20.7
				c-9.4-0.5-6.4-16.2-6.4-16.2s10.8-1.5,20.9-8.5c7.8-5.4,15.8-12.3,16.3-19.1c0.4-5.1-3.3-8.7-9.1-9.6c-6.5-1.1-9.8,0.8-12.8-1.3
				c-1.5-1.1,0.2-4.7,2.2-6.9c6.9-7.5,11.2-8,12.5-7.9c2,0.2-0.2,2.8,3.1,3.3c3.3,0.5,3.7-1.2,4.5-6.1c0.8-5-0.7-8.1-4.8-7.6
				c-2,0.2-9.5,1.6-16.7,8.3c-6,5.6-8,14.5-8.3,17.4c-0.5,5.6,2.5,8.8,8.1,10.3c5.9,1.6,10.8-0.5,11.9,2
				c1.2,2.5-11.3,14.3-29.2,16.9c-8.3,1.2-17.4-0.7-23.7-8.6c-5-6.4-1.6-15.4-0.5-18c2.2-5,6.3-15.4,1.3-11.8
				c-5,3.6-14.1,22.9-7.1,33.8c9.3,14.4,29.8,13.4,29.8,13.4s-4.3,9-4.1,13c0.2,4.8,2,12.2,10.6,12.4c9.1,0.3,13.4-5,21.7-12.9
				c7.9-7.4,15.8-14.2,18.2-15.3c5-2.2,11,3,11,3s-0.7,1.3-0.4,2.7c0.3,1.4,1.1,3.5,1.1,3.5l3.3-3c10.4,7.1,21.4,3.6,28,2.5
				c7.8-1.4,17.5-4.4,23.4-7.1c2.4-1.1,4.4-1,5.4-1.2c2.1-0.6,3.3,4.4,5.5,6.9c2.5,2.8,5.8,3.9,7.6,3.9
				C267.5,422.1,274.6,419.2,275.3,411.5 M217,410.5c-5,1.4-13.8,3.8-15.8-1.4c0,0,0.7-2.8,4.4-7.3c4.8-5.9,11.2-10.9,16.8-9.9
				c5.6,1,11.5,6.4,11.4,8.4C233.8,403.4,227.1,407.7,217,410.5 M263.2,411.8c-2.3-1.8-2.3-4.1-1.5-4.8c1.2-1,3.8,0.3,4.8,1.8
				C267.5,410.4,265.5,413.7,263.2,411.8 M278.6,475l-12.5,37.4h6.9l2.6-8.5h12.9l2.8,8.5h7.1L285.5,475H278.6z M277.6,497.6
				l4.4-13.9l4.4,13.9H277.6z M254.4,428.1c1.4-0.7,2.5-2.3,2.3-4.8c0-0.2-8.8,3-17.4,10.3c-2,1.7,0.5,3.3,1,3.3
				C240.7,436.8,247.7,431.4,254.4,428.1 M256.4,499.9L243.3,475H237v37.4h6V488l13,24.4h6.5V475h-6V499.9z M308.4,475.3h-6.5v37.1
				h22.6v-6.3h-16.1V475.3z M425.3,499.9L412.1,475h-6.3v37.4h6V488l13,24.4h6.5V475h-6V499.9z M361.7,492.5
				c1.4-0.7,2.5-1.8,3.3-3.3c0.8-1.5,1.2-3.1,1.2-4.8c0-1.6-0.4-3.1-1-4.4c-0.6-1.3-1.5-2.3-2.4-3.1c-1-0.8-2.1-1.3-3.4-1.6
				c-1.3-0.2-3.2-0.3-5.7-0.3h-12.9v37.4h11c4.1-0.1,6.7-0.1,7.8-0.3c1.7-0.2,3.1-0.8,4.3-1.8c1.2-1,2.1-2.3,2.8-3.9
				c0.7-1.6,1-3.2,1-4.9c0-2.2-0.5-4-1.6-5.6C365.2,494.3,363.7,493.2,361.7,492.5 M347.4,481.2h3.7c3.1,0,4.9,0,5.6,0.1
				c1.1,0.2,1.9,0.6,2.4,1.3c0.6,0.7,0.8,1.6,0.8,2.8c0,1.2-0.3,2.2-0.9,2.9c-0.6,0.7-1.5,1.2-2.6,1.3c-0.6,0.1-2.2,0.1-4.7,0.1
				h-4.2V481.2z M360.2,504.3c-0.6,0.8-1.4,1.3-2.3,1.5c-0.7,0.2-2.1,0.3-4.5,0.3h-6v-10h5.3c2.9,0,4.8,0.1,5.8,0.5
				c0.9,0.4,1.6,0.9,2,1.7c0.5,0.8,0.7,1.7,0.7,2.8C361.1,502.5,360.8,503.5,360.2,504.3 M382.6,475L370,512.4h6.9l2.6-8.5h12.9
				l2.8,8.5h7.1L389.5,475H382.6z M381.6,497.6l4.3-13.9l4.4,13.9H381.6z M446.7,415.5c-0.3-12.5-14.3-13.7-14.3-13.7
				c1.5-1.1,4.4-6.4,5.1-15.1c0.8-9.8-4.6-18-6-18.1c-1.4-0.2-6.5,14.9-7.7,21.5c-1.2,6.6-4.2,7.6-4.2,7.6
				c-2.9,2.5-8.5,4.5-24.9,6.8c-16.5,2.3-26.2-5.6-29.4-12.9c-3.2-7.4-8.5-55.6-8.9-58.3c-0.5-2.8-1.8-1.8-2.5-0.6
				c-0.6,1.2-1.7,13.7-1.2,22.6c0.4,8.9,3.5,19.8,4.1,27.4c0.9,11.2-8.2,17.6-11.9,18.2c-3.7,0.6-4.2,2.3-4.2,2.3s-1.8,8.2-1.2,8.7
				c0.6,0.6,12.5,0.3,13.9,0.5c1.4,0.2,5.2,0.5,4,2.8c-0.7,1.3-8.4,10.5-25.8,13.9c-5.5,1-12,1.5-17,0.1c-5.5-1.5-9.2-4.8-10.8-7.2
				c-8-12.6,1.9-26,1.1-27.3c-2.5-3.7-10.2,11.1-10.2,18.5c0.1,10.6,8.5,19.7,12.6,21.6c16.6,7.2,29.9,1.6,34.3-0.3
				c18.6-8,23.7-21.2,22.8-25.2c-0.9-4-4.9-4.9-6.3-5.2c-1.4-0.3-1.5-1.6-0.9-2.6c0.6-1.1,1.8-1.5,3.7,0c2.8,2.3,8.9,12.5,26.8,13.6
				c10,0.6,23.2-3.2,24.6-3.7c1.4-0.5,7.6-4.1,8.3-0.3c1.1,5.4,2.6,14.9,15.1,16.6C438.1,427.6,447,428.6,446.7,415.5 M430.7,384.7
				c1-0.4,3.2,2.7,1.9,5.8c-1.4,3.1-2.6,5.1-4.9,3.5C425.3,392.5,428.6,385.5,430.7,384.7 M432.4,416.6c-1.7-0.9-4.6-3.4-3.2-5.3
				c0.8-1,8.8,0.1,10,4.3C439.8,417.8,434.1,417.5,432.4,416.6 M376.2,428.9c1.9-0.9,3.4-3.1,3.1-6.3c0-0.2-11.6,3.9-22.9,13.5
				c-2.6,2.2,0.8,4.4,1.3,4.3C358.2,440.4,367.4,433.2,376.2,428.9"/>
			<path class="st4" d="M557.9,653.7c-1,5.8-3.3,11.3-6.9,16.4h-14c13.4-15.1,14.5-17.3,14.5-22.7c0-4.2-4.5-11.7-8.5-17.9
				c1.8-0.8,7.8-3.6,9.3-4.3c3.2,6.1,5.1,12,5.8,17.9l0.1,1h2v8.7H558L557.9,653.7z"/>
			<path class="st4" d="M559.4,652.7c-1.3,0-2-1.1-2-3.4v-1.8c0-2.3,0.6-3.4,2-3.4h12.3l-0.3-1.4c-0.5-3-1.8-6.4-3.5-9.8
				c1.4-0.8,6.7-3.8,8.4-4.8c1.4,4.2,2.2,8.5,2.5,12.6c10.8-10.8,20.7-17.5,28.7-17.8c3.4-0.1,6.2,0.9,8.2,3c3.1,3.3,4.4,9.2,3.7,17
				l-0.1,1.3h1.3v8.7H559.4z M612.2,642.9c0.2-3.9-0.5-6.7-2.2-8.4c-1.2-1.3-3.5-2.2-5.8-2.2c-3.8,0-8.5,2.2-15.2,8.6l-3.2,3.1h26.3
				L612.2,642.9z"/>
			<path class="st4" d="M635,648.1l-2,4.5c0,0-0.1,0.1-0.1,0.2h-13.1c-1.3,0-2-1.1-2-3.5v-1.8c0-2.3,0.7-3.5,2-3.5h8.7l0.2-0.4
				c1.9-4,4.2-8.5,7.1-11.8c2.9-3.4,6.1-5.6,9.6-5.6c14.7,0,12.7,24.7,10.5,29.1L635,648.1z M649.9,644.5
				c-0.6-5.2-2.4-10.1-4.8-10.1c-2,0.1-3.9,1.6-5.6,4.7l-0.6,1L649.9,644.5z"/>
			<path class="st4" d="M709.8,653.6c-1.9,7.3-7,16.2-20.7,16.4c-0.6,0-1.2,0-1.8,0c-7.5-0.4-13.2-4.1-16-10.4
				c-1.2-2.7-1.9-5.9-1.9-9.1c0-1,0.1-2.1,0.2-3.1c0.5-4.1,2.1-7.9,4.3-10.9h6.5c-2.7,4.3-3.5,7.9-3.5,10.8c0,2.4,0.6,4.2,1.2,5.5
				c1.9,4,5.9,6.7,10.3,6.7c3.1,0,6-0.8,8.1-2.6c2.2-1.7,3.9-4.3,4.7-7.4c0.5-1.9,0.6-7.6,0.6-10v-26.3c1.1-0.4,6.8-2.8,9-3.7v30.7
				c0,0-0.2,3.7-0.2,3.7h3.6v8.7H710L709.8,653.6z"/>
			<path class="st4" d="M713.5,652.7c-1.3,0-2-1.1-2-3.4v-1.8c0-2.3,0.7-3.4,2-3.4h10c-1.4-1.9-2-5.4-1.9-7.6c0.1-4.8,3.6-8,7-10.1
				l-1.1-0.7c-2-1.3-3.5-3-3.7-4.4c0-0.1,0-0.3,0-0.4c0-0.4,0.1-0.8,0.4-1.1c0.7-0.9,1.7-2.2,2.5-3.1c2,2.5,6.6,3.4,12.2,4.6
				c10.3,2.1,23.2,4.8,24.8,18.7c0.1,0.8,0.2,1.6,0.2,2.4c0,3.1-0.6,6.5-1.9,10.3H713.5z M729.3,637.5c0,2.3,0.7,4.2,2,5.4
				c0.9,0.9,2.1,1.2,3.3,1.1c2.9-0.4,5.3-3.8,5.4-7.8c0.1-2.4-0.7-4.5-2.1-5.7c-0.9-0.9-2.1-1.3-3.3-1.1c-2.9,0.3-5.3,3.8-5.4,7.8
				V637.5z M754.3,642.9c0-1.3-0.1-2.6-0.5-3.8c-0.4-1.4-1-2.8-1.9-3.9c-0.8-1.2-1.9-2.2-3.1-3c-0.7-0.5-1.5-1-2.3-1.3
				c1.4,2.5,2.5,7.6-1.7,13.2h9.5L754.3,642.9z"/>
			<path class="st4" d="M778.6,608.9c-5.2,1.6-9.2,4.1-12.1,6.1c0,0-2-4.5,3.8-7.5c-2.2-0.7-3.7-1.8-3.8-3.7
				c-0.5-6.1,6.7-9.4,10.4-8.2l0,4.5c-4.3-0.8-6.7,1.9-7.5,3.8c0,0,2.1,3,6.9,1.2l2.3-0.9V608.9z M769.6,619.6c1-0.5,6.7-3.2,9-4.3
				v37.4h-9V619.6z"/>
			<path class="st4" d="M840.7,644.1v-30.7c1.1-0.5,6.6-2.7,8.8-3.6c0,3.2,0,34.3,0,34.3h2.7v8.7c-1.7,0-5.9,0-47.1,0
				c-4.7,0-8.4-1-10.9-3c-2.5-1.9-3.7-4.7-3.8-8.4v-0.1c0-4.1,2.3-9.1,6.6-14.4h5c-2.2,3-3.9,6.5-3.9,9.7c0,1.1,0.2,2,0.6,2.9
				c1.4,3,5,4.6,10.8,4.6L840.7,644.1z M826.6,629.2c-5.2,1.5-9.2,4.1-12,6.1c0,0-2-4.5,3.8-7.5c-2.1-0.7-3.7-1.8-3.8-3.7
				c-0.5-6.1,6.7-9.4,10.4-8.2v4.4c-4.3-0.7-6.7,1.9-7.5,3.8c0,0,2.2,3,6.9,1.3l2.3-0.9V629.2z"/>
			<path class="st4" d="M851.5,652.7c-1.3,0-2-1.1-2-3.4v-1.8c0-2.3,0.6-3.4,2-3.4h15.4l-0.2-1.4c-0.6-4.5-2.5-9.8-4.7-13.6
				c1.7-0.8,7.1-3.3,8.7-4c2.4,6,3.7,11.9,3.7,17.7v1.2h2.6v8.7H851.5z M859.8,615.1c1.2-1.1,4.1-3.9,5.2-4.9c1.1,1,4,3.7,5.3,4.9
				c-1.3,1.1-4.2,3.9-5.3,4.9C863.8,619.1,860.9,616.3,859.8,615.1"/>
			<path class="st4" d="M876.3,652.7c-1.3,0-2-1.1-2-3.4v-1.8c0-2.3,0.6-3.4,2-3.4h15.4l-0.2-1.4c-0.6-4.5-2.5-9.8-4.7-13.6
				c1.7-0.8,7.1-3.3,8.7-4c2.5,6,3.7,12,3.7,17.9c0,1.1-0.1,2.1-0.1,3.2v0.1c0,0.5-0.6,4.5-1.6,6.4H876.3z M887.2,661.7
				c1.2-1.1,4.2-3.9,5.2-4.9c1.1,1,4,3.7,5.3,4.8c-1.2,1.1-4.2,3.9-5.3,4.9C891.4,665.6,888.4,662.8,887.2,661.7"/>
		</g>
	</g>
</g>
</svg>
