<svg version="1.1" id="Layer_1" xmlns="http://www.w3.org/2000/svg" xmlns:xlink="http://www.w3.org/1999/xlink" x="0px" y="0px" viewBox="0 0 284.1 49" style="enable-background:new 0 0 284.1 49;" xml:space="preserve">
 <style type="text/css">
  .st0{clip-path:url(#SVGID_2_);fill:#1D322C;}
	.st1{clip-path:url(#SVGID_2_);fill:#A7872C;}
 </style>
 <g>
  <g>
   <defs>
    <rect id="SVGID_1_" width="284.1" height="49">
    </rect>
   </defs>
   <clipPath id="SVGID_2_">
    <use href="#SVGID_1_" style="overflow:visible;">
    </use>
   </clipPath>
   <path class="st0" d="M267,33.2L267,33.2L267,33.2L267,33.2z M195.7,33.2l-1,1.7l2.9,1.2l1-1.9l-2.5-1H195.7z M189.8,33.2
			c-0.2,0-0.3,0-0.5,0c-0.4,0-0.7,0-1,0H189.8z M135.6,33.2l-0.8,1c0,0,1.2,0.9,2,1.4c0.8,0.4,1.1,0.5,1.1,0.5l1.3-1.4l2.1,1
			l1.6-1.5l-1.9-1.1h-1.5c-0.2,0.2-0.4,0.4-0.5,0.5c-0.2,0.3-0.4,0.3-0.4,0.3s-0.8-0.4-1.5-0.9c0,0,0,0,0,0L135.6,33.2z M125.3,33.2
			c0.7,0.3,1.5,0.5,2.5,0.5c1.3,0,2.6-0.2,3.8-0.5L125.3,33.2z M89.1,33.2c-0.4,0.3-0.8,0.4-1.3,0.5c-1.8,0.4-2.7-0.1-3.4-0.5
			L89.1,33.2z M78.5,33.2c-1.4,0.3-3,0.3-4.8,0L78.5,33.2z">
   </path>
   <path class="st0" d="M196.1,33.2l-0.4-0.1l-0.1,0.1H196.1z M140.9,33.2l-0.9-0.5c0,0-0.3,0.2-0.5,0.5L140.9,33.2z M137,33.2
			c-0.7-0.4-0.9-0.7-0.9-0.7l-0.5,0.7H137z M265.1,30.3l-1,1.7l2.9,1.2h0.1l1-1.9l-2.6-1H265.1z M186.7,30.3
			c0.6,0.4,1.4,0.6,2.2,0.8c1.7,0.3,3.3-0.2,4.7-0.8l3.6,0c-0.4,0.4-0.8,0.7-0.8,0.7s1.8,0.6,4-0.3c0.3-0.1,0.7-0.3,1-0.4l3.1,0
			c-0.9,1.1-2.2,2.3-3.9,2.6c-2.7,0.5-5.2-1.4-5.2-1.4s-1.2,1.4-5.5,1.7l-1.5,0c-2.4-0.2-3.5-1.7-4.1-2.9L186.7,30.3z M138.1,30.3
			c0.3,0.4,0.8,0.9,1.9,1.4c2,0.9,4.7,0.9,6.2,0.2c0.9-0.4,1.5-1.1,1.8-1.6l-3.5,0c-0.9,0.3-2.1,0.6-3.5,0.4
			c-0.8-0.1-1.4-0.2-1.9-0.4H138.1z M122.8,30.3c0.3,1.2,1.2,2.3,2.5,2.9l6.3,0c1.9-0.5,3.5-1.3,3.8-2.2c0.1-0.3,0.2-0.5,0.2-0.7
			h-2.3c0.7,0.3,0.7,0.4,0.7,0.4s-3.9,1.5-6.6,0.7c-1.2-0.3-2-0.7-2.6-1.1L122.8,30.3z M72.7,30.3c0.5,0.4,1.1,0.8,1.9,1
			c2.4,0.5,5.7-0.3,6.8-0.7c0.4-0.1,0.7-0.2,0.8-0.3l2.3,0c-0.4,0.6-1.1,1.1-1.1,1.1s0.9,0.7,2.4,0.8c1.5,0.1,3.4-0.5,4.2-1.2
			c0.3-0.2,0.5-0.4,0.6-0.6l0.9,0c-0.5,1.1-1.4,2.3-2.5,2.9l-4.6,0c-0.3-0.2-0.5-0.4-0.7-0.6c-0.8-0.5-1.3-0.8-1.3-0.8
			s-1.6,0.9-3.9,1.3l-4.8,0c0,0-0.1,0-0.1,0c-2-0.4-2.9-1.8-3.3-2.9L72.7,30.3z">
   </path>
   <path class="st0" d="M265.5,30.3l-0.3-0.1l-0.1,0.1H265.5z M139,30.3c-0.8-0.3-1.2-0.6-1.2-0.6s0,0.2,0.2,0.6L139,30.3z
			 M281.7,27.4c-0.5,1.7-1,2.5-1,2.5s1.7-0.8,2.6-2.5L281.7,27.4z M276.9,27.4c0.3,0.1,0.5,0.1,0.5,0.1c0,0,0,0,0.1-0.1l1.3,0
			c-0.6,0.9-1.5,1.7-2.1,1.7c-0.8,0-2.3-0.4-2.9-1c-0.2-0.2-0.3-0.5-0.4-0.7L276.9,27.4z M241.7,27.4c1.1,0.2,2.5,0.2,3.8,0l6.7,0
			c0.3,0.3,0.7,0.4,1.3,0.4c0.5,0,0.9-0.2,1.3-0.4l3.7,0c0.3,0.1,0.6,0.2,0.9,0.2c1.8,0.3,5.1,0.5,8.4-0.2l4,0
			c-1.2,0.6-3.6,1.7-8.9,2.2c-5.5,0.5-7.2-1.6-7.2-1.6s-0.5,0.2-1,1.1c-0.5,1-3.1,1.2-3.9-0.4c-0.8-1.6-0.7-1.2-0.7-1.2
			s-1.8,2.1-5.9,2.2c-3.4,0.1-5-0.7-5.5-2.3L241.7,27.4z M233.6,27.4c-0.3,1.1-0.7,1.8-0.7,1.8s1.1-0.6,1.9-1.8L233.6,27.4z
			 M215.8,27.4c0.5,0,1.1,0,1.6,0l7.6,0c0,0,0,0,0,0c0.2,0.3,1.6,0.6,2.6,0.6s1.1-0.2,1.1-0.2s0-0.2,0-0.4l1.2,0
			c-0.8,1.5-2,2.3-2,2.3s-3,0.3-3.9-0.5c-0.9-0.9-1-0.9-1-0.9s-2.2,1.1-8.7,1.2c-6.5,0.1-8.6-0.8-8.6-0.8s-0.4,0.8-1.2,1.8h-3.1
			c1.8-0.8,3.1-1.7,3.1-2.1c0-0.3-0.4-0.6-0.7-0.8H215.8z M198.3,27.4c0.5,0.6,0.1,1.7-0.4,2.3c-0.2,0.2-0.4,0.4-0.7,0.6l-3.6,0
			c0.6-0.3,1.2-0.6,1.7-0.9c1.6-0.9,0.8-0.9,0.2-1c-0.6-0.1-4.3-0.5-5.1-0.6c-0.8-0.1-0.8-0.1-0.8-0.1s0.1-0.2,0.2-0.4L198.3,27.4z
			 M184.9,27.4c-0.1,0.3-0.2,0.6-0.1,0.8c0.1,0.5,0.8,1.4,1.9,2.1l-2.5,0c-0.4-0.7-0.5-1.4-0.6-1.8c-0.1-0.3,0-0.7,0.1-1.2
			L184.9,27.4z M178.7,27.4c-0.3,1-0.7,1.8-0.7,1.8s1.3-0.6,2.1-1.8L178.7,27.4z M170.2,27.4c0,0.1,0.1,0.2,0.2,0.3
			c0.2,0.3,0.5,0.1,0.9-0.3h1.8c-0.1,0.1-0.2,0.2-0.3,0.2c-0.6,0.3-0.6,0.4-0.6,0.4s1.4,0,1.9-0.1c0.5-0.1,0.7,0,0.6-0.5
			c0,0,0,0,0,0l1.5,0c-0.2,0.9-0.7,1.8-0.9,2c-0.3,0.3-2.4,0.5-3.7,0.5c-1.3,0.1-2.4-0.3-2.6-1.1c-0.2-0.6,0.1-1.1,0.3-1.5
			L170.2,27.4z M146.3,27.4c0.3,0.4,0.6,0.8,0.7,1.2c0.3,0.7-0.4,0.9-1.3,1.2c-0.3,0.1-0.8,0.3-1.3,0.5l3.5,0
			c0.2-0.3,0.3-0.6,0.4-0.7c0.2-0.4,0.2-0.8,0.2-0.8s2.5,0.8,4.9,0.9c2.4,0.1,8.3-0.2,10.6-0.7c1.3-0.3,2-0.8,2.3-1.6l-5.2,0
			c-2,0.3-4.6,0.4-7.2,0.2c-0.9-0.1-1.6-0.1-2.2-0.2L146.3,27.4z M129.5,27.4c-0.1,0-0.2,0.1-0.3,0.1c-0.9,0.4-0.8,0.5-0.8,0.5
			l-0.3,1.8c0,0,2.6-0.2,4.3,0.3c0.4,0.1,0.7,0.2,0.9,0.3l2.3,0c0.2-0.9,0.1-1.2-0.6-1.5c-0.8-0.3-2.3-0.7-2.3-0.7s1.1-0.1,2.2-0.4
			c1.1-0.4,2-0.2,2.8-0.1c0.8,0.1,2.9,0.7,4,0.5c0.4-0.1,0.8-0.4,1-0.7L129.5,27.4z M123.1,27.4c-0.2,0.5-0.4,1.1-0.4,1.6
			c0,0.4,0,0.9,0.1,1.3h2.1c-0.7-0.5-1-1.1-0.9-1.9c0-0.4,0.1-0.7,0.2-1L123.1,27.4z M119.8,27.4c0,0.2-0.1,0.4-0.2,0.6
			c-0.6,1.5-0.8,2.1-0.8,2.1s1.3-0.9,2.1-2.7L119.8,27.4z M99.9,27.4c0.2,0.7,0.6,1.7,1.8,1.9c1.8,0.4,6.5,0.9,10.6,0.1
			c2.4-0.5,3.5-1.1,4.1-2l-2.8,0c-1.8,0.2-5.9,0.6-8.3,0.4c-1-0.1-1.7-0.2-2.3-0.4L99.9,27.4z M93.4,27.4c0,0.5,0.2,1.1,1.2,1.3
			c1.2,0.2,3.7,0.1,4.3-0.5c0.3-0.3,0.5-0.6,0.7-0.8L93.4,27.4z M89.9,27.4c0,0.2-0.3,0.2-0.7,0.2c-0.4,0-0.7-0.1-0.9-0.2l-1.7,0
			c-0.1,1,0.3,1.8,1.3,2c1.2,0.3,2.2-0.6,2.7-0.8c0.5-0.3,0.3,0.1,0.3,0.6c0,0.4,0,0.7-0.3,1.1l0.9,0c0.4-0.9,0.6-1.8,0.5-2.5
			c0-0.1,0-0.3-0.1-0.4L89.9,27.4z M83.4,27.4c-0.2,0.1-0.4,0.2-0.6,0.3c-0.7,0.2-0.3,0.3,0.5,0.5c0.8,0.2,1.6,1.2,1.3,1.9
			c0,0.1-0.1,0.1-0.1,0.2l-2.3,0c0.3-0.1,0.2-0.2-0.3-0.4c-0.8-0.3-4.6-0.9-4.7-1.2c-0.1-0.2,0-0.8,0.4-1.3L83.4,27.4z M71.9,27.4
			c-0.1,0.2-0.1,0.3-0.2,0.4c-0.2,0.7,0,1.7,0.9,2.5l-2.4,0c-0.2-0.4-0.2-0.8-0.2-1c0-0.4,0.2-1.2,0.5-1.9L71.9,27.4z">
   </path>
   <path class="st0" d="M267.9,27.4c0.5-0.1,0.9-0.2,1.4-0.3c3.7-1,4.3-1.7,5-1.8c0.7-0.1,0.5,0.6,0.9,1.2c0.3,0.4,1.1,0.8,1.7,0.9
			l-3.6,0c-0.1-0.3-0.1-0.5-0.5-0.4c-0.2,0-0.4,0.2-0.9,0.4L267.9,27.4z M254.8,27.4c0.4-0.3,0.7-0.6,0.8-0.8c0.3-0.3,0.7-1,0.8-0.8
			c0.1,0.2,0.7,1.1,2.1,1.6L254.8,27.4z M203.7,27.4c-0.2-0.2-0.4-0.3-0.5-0.4c-0.4-0.4,0.2-1.3,0.6-1.7c0.4-0.4,0.6-0.1,0.6-0.1
			s0.8,1.3,2.7,1.7c1.3,0.3,5.3,0.5,8.7,0.5L203.7,27.4z M183.7,27.4c0.3-0.9,0.8-1.8,1-2.1c0.2-0.5,0.9-0.8,0.9-0.1
			c0,0.5-0.4,1.4-0.7,2.2L183.7,27.4z M169.3,27.4c0.1-0.1,0.1-0.2,0.1-0.3c0.2-0.5,0.5-0.8,0.5-0.8s0,0.6,0.3,1.1L169.3,27.4z
			 M151.7,27.4c-2.9-0.3-3.1-0.6-3.5-0.9c-0.5-0.4-1.4-1.6-1.6-1.9c-0.2-0.2-0.5,0.1-0.9,0.7c-0.4,0.6-0.3,1-0.3,1s0.4,0.4,0.9,1
			L151.7,27.4z M124,27.4c0.2-0.8,0.5-1.3,0.6-1.6c0.2-0.4,0.1-0.9,0.1-0.9s-1,1.1-1.7,2.6L124,27.4z M70.5,27.4
			c0.2-0.6,0.6-1.1,0.9-1.4c0.8-0.7,2-1,2-1s-1,1.4-1.5,2.4L70.5,27.4z M281.8,24.5c0.1,1.2,0.1,2.3,0,2.8c0,0,0,0.1,0,0.1h1.6
			c0.2-0.4,0.3-0.8,0.4-1.2c0.1-0.6,0.1-1.1,0.1-1.7L281.8,24.5z M279.2,24.5c0,0.8,0,1.5-0.1,2c-0.1,0.3-0.2,0.7-0.4,1l-1.3,0
			c0.1-0.3,0.1-1.6,0-2.9L279.2,24.5z M251.5,24.5c0.1,1.6,0.3,2.5,0.8,2.9l-6.7,0c1.3-0.2,2.6-0.5,3.2-0.7c1.2-0.5,1.7-0.6,1.7-2.2
			L251.5,24.5z M246.3,24.5c-0.5,0.4-1.1,0.7-2.3,0.6c-1.2-0.1-1.8-0.4-2.1-0.6L246.3,24.5z M239.6,24.5c-0.1,0.7-0.1,2,1.4,2.7
			c0.2,0.1,0.4,0.2,0.7,0.2l-2.9,0c-0.1-0.3-0.2-0.7-0.2-1.1c0-0.8,0.1-1.4,0.2-1.9L239.6,24.5z M233.6,24.5c0.1,1.2,0.2,2.3,0,2.8
			c0,0,0,0.1,0,0.1l1.2,0c0.2-0.4,0.4-0.8,0.5-1.3c0.1-0.6,0.2-1.1,0.2-1.6L233.6,24.5z M230.4,24.5c0,0.6,0,1.1-0.1,1.5
			c-0.1,0.5-0.3,1-0.5,1.4l-1.2,0c0-0.6,0-1.7,0-2.9L230.4,24.5z M226.3,24.5C226.3,24.5,226.4,24.5,226.3,24.5
			c0.4,0.6,0.1,1.6-0.7,2.1c-0.8,0.5-0.9,0.5-0.7,0.8l-7.6,0c0.9,0,1.7-0.1,2.4-0.1c3.1-0.3,3-0.3,2.7-0.6c-0.2-0.3-1.1-0.4-1.6-0.6
			c-0.3-0.1-0.1-1.1,0.8-1.6L226.3,24.5z M196.7,24.5c0,1-0.6,1.4-0.9,1.6c-0.5,0.3-0.5,0.4-0.5,0.4s2.1,0.2,2.8,0.7
			c0.1,0,0.1,0.1,0.2,0.2l-8.5,0c0.2-0.5,0.7-1.4,1.4-1.6c0.9-0.3,3.1-0.5,3.6-0.9c0.1-0.1,0.1-0.3,0.1-0.5L196.7,24.5z M178.9,24.5
			c0,0.7,0,1.3,0,1.8c0,0.4-0.1,0.8-0.2,1.1l1.5,0c0.4-0.6,0.7-1.3,0.7-2.2c0-0.3,0-0.5,0-0.8L178.9,24.5z M175.4,24.5
			c0,0,0,0.1,0,0.1c-0.2,0.7,0.9,0.6,0.9,1.8c0,0.3-0.1,0.7-0.1,1l-1.5,0c-0.1-0.5-0.5-1-0.5-1s-0.6,0.6-1.1,1h-1.8
			c0.2-0.2,0.5-0.5,0.9-0.7c0.9-0.6,1.7-1.1,1.7-1.1s-0.3-0.5-0.9-1.1L175.4,24.5z M160.4,24.5c0,0.2,0,0.3,0,0.5
			c0.1,1.3,1.9,1.7,2.6,1.5c0.6-0.2,1.3-1,1.5-1.2c0.2-0.2,0.3-0.4,0.3-0.4s0.5,0.6,0.6,1.2c0.1,0.6-0.1,0.6-0.7,0.8
			c-0.3,0.1-1.6,0.4-3.4,0.6l5.2,0c0.3-0.6,0.3-1.3,0.4-2.1c0-0.3,0-0.6-0.1-0.8L160.4,24.5z M133.4,24.5c-0.5,1-0.4,1.7-0.4,1.7
			s-2.4,0.8-3.5,1.2l13.2,0c0.4-0.6,0.6-1.4,0.5-2c0-0.3-0.2-0.6-0.3-1l-2.3,0c0.4,0.4,0.8,0.9,0.8,1.2c0,0.4-0.5,0.2-1.2,0.1
			c-0.7-0.1-1.9-0.3-1.9-0.3s0-0.3,0-1l-1.4,0c0.1,0.2,0.2,0.3,0.2,0.4c0.1,0.4-0.2,0.3-0.9,0.3c-0.7,0-1.3-0.4-1.3-0.4
			s0.1-0.2,0.2-0.4L133.4,24.5z M119.9,24.5c0,1.1,0,2.1-0.1,2.9l1.1,0c0.2-0.5,0.4-1.1,0.5-1.8c0-0.4,0.1-0.8,0.1-1.1L119.9,24.5z
			 M115.4,24.5c0,0.3,0,0.6,0.1,0.9c0.2,1.5-0.2,1.7-1.2,1.9c-0.1,0-0.4,0.1-0.7,0.1l2.8,0c0.4-0.6,0.5-1.4,0.6-2.2
			c0-0.2,0-0.5,0.1-0.7L115.4,24.5z M99.9,24.5c0,0.2,0.1,0.4,0.1,0.6c0,0.6-0.2,1.3-1.3,1.6c-1,0.3-3.4,0.1-3.9-0.2
			c-0.5-0.3-0.4-0.5-0.4-0.7c0-0.2-0.8,0.9-0.9,1.4c0,0.1,0,0.2-0.1,0.3l6.2,0c0.2-0.3,0.2-0.6,0.2-0.6s0,0.2,0.1,0.6h3.1
			c-1.2-0.3-1.7-0.7-1.9-1.3c-0.1-0.5-0.1-1-0.1-1.6L99.9,24.5z M90.3,24.5c0.6,0.6,1.4,1.7,1.7,2.9l-2.1,0c0-0.1,0-0.2-0.1-0.3
			c-0.3-0.4-0.5-0.8-1.1-1c-0.6-0.2-0.6,0.5-0.6,0.9c0,0.2,0.1,0.3,0.2,0.4l-1.7,0c0-0.2,0.1-0.4,0.2-0.6c0.4-1.2,0.9-1.9,1.4-2.3
			L90.3,24.5z M84.4,24.5c0,0.6-0.1,1.1-0.2,1.4c-0.2,0.8-0.5,1.3-0.8,1.5h-5.8c0.3-0.3,0.6-0.5,1.2-0.6c1.6-0.3,3.9-0.8,4.2-1.2
			c0.1-0.2,0.2-0.6,0.3-1.1L84.4,24.5z">
   </path>
   <path class="st0" d="M162.2,22.7c0.6,0.2,1.3,0.8,1.5,1.1c0.1,0.3-0.9,0.7-1.4,0.5C161.5,24,161.6,22.6,162.2,22.7 M238.8,24.5
			c0.2-0.8,0.6-1.1,0.7-1.1c0.2-0.1,0.1,0.3,0.1,0.8c0,0.1,0,0.2,0,0.4L238.8,24.5z M221.7,24.5c0.3-0.2,0.6-0.3,0.9-0.3
			c1.5-0.2,3.3-0.2,3.8,0.3L221.7,24.5z M142.8,24.5c-0.4-0.8-1-1.7-1.4-2.1c-0.4-0.5-0.9-0.9-0.9-0.9s-1.1,1.1-1.2,1.6
			c-0.1,0.5,0.5,0.6,0.9,1.1c0.1,0.1,0.1,0.2,0.2,0.3L142.8,24.5z M134.9,24.5c0.1-0.2,0.2-0.4,0.4-0.5c0.3-0.4,0.3-0.8,0.6-0.6
			c0.2,0.2,0.7,0.7,0.9,1.1l1.4,0c0-0.2,0-0.4,0-0.6c-0.1-1.2-1.1-2.5-1.5-2.7c-0.3-0.2-2.3,1.4-3.1,2.7c-0.1,0.2-0.2,0.4-0.3,0.6
			L134.9,24.5z M101.1,24.5c0-0.5,0.1-1.1,0-1.6c-0.1-1.1-0.2-1.5-0.2-1.5s-1,0.9-1.2,1.3c-0.1,0.3,0.1,1.2,0.2,1.8L101.1,24.5z
			 M88.2,24.5c0.5-0.4,1-0.6,1.3-0.6c0.2,0,0.5,0.2,0.9,0.6L88.2,24.5z M281.5,20.8c0.1,1.1,0.2,2.5,0.3,3.7l2.1,0
			c0-1.3-0.2-2.7-0.4-3.7L281.5,20.8z M279.9,20.8c0,0-0.1,0.1-0.2,0.1c-0.6,0.3-0.8,0.3-0.8,0.3s0.2,1.8,0.2,3.3h-1.8
			c0-0.5-0.1-0.9-0.2-1.4c-0.2-1.4-0.1-2,0.1-2.3L279.9,20.8z M253.5,20.8l-0.3,0.5l2.9,1.2l0.9-1.7H253.5z M251.6,20.8
			c-0.1,1.1-0.1,2.2-0.1,3.2c0,0.1,0,0.3,0,0.4l-1.1,0c0-0.2,0-0.5,0-0.7c0-1.2,0-2.2,0-2.9L251.6,20.8z M247,20.8
			C247,20.8,247,20.8,247,20.8c-0.1,0.5-0.4,1-0.9,1c-0.5,0-0.9,0.2-1.1,0.4c-0.2,0.2,0.7,0.2,1.4,0.4c0.7,0.2,0.9,1.1,0.4,1.5
			c-0.1,0.1-0.3,0.3-0.5,0.4h-4.4c-0.1-0.1-0.2-0.1-0.2-0.1s1.8,0.1,3-0.1c1.2-0.2,1.2-0.5,1.1-0.7c-0.2-0.2-0.8,0.2-1.6-0.4
			c-0.8-0.6,0-1.4,0.7-1.9c0.3-0.2,0.8-0.4,1.2-0.5L247,20.8z M241.6,20.8c-0.1,0.2-0.4,0.6-1.1,0.6c-0.5,0-0.6-0.3-0.7-0.6
			L241.6,20.8z M233.3,20.8c0.1,1.2,0.2,2.5,0.3,3.7l1.9,0c0-1.3-0.4-2.5-0.4-3.7H233.3z M231,20.8c-0.2,0.2-0.2,0.1-0.4,0
			c0,0,0,0,0,0L231,20.8z M230.2,20.8c0.1,0.6,0.2,2.2,0.2,3.7l-1.8,0c0-1.5,0-3.1-0.1-3.7L230.2,20.8z M201.1,20.8
			c-0.7,0.2-0.5,0.8,0.3,0.5l2.2-0.5H201.1z M194.9,20.8c0.5,0.4,0.9,1,1.2,1.6c0.4,0.8,0.5,1.5,0.5,2l-1.8,0
			c-0.1-0.5-0.8-1.4-1.3-1.8c-0.8-0.6-1.8-0.7-2.4-1.7c0-0.1-0.1-0.1-0.1-0.2L194.9,20.8z M184,20.8c0.1,0.4,0.4,0.7,0.9,0.5
			c0.7-0.2,1-0.4,1-0.4s0.1,0.4,0.9,0c0.1,0,0.2-0.1,0.3-0.1L184,20.8z M178.7,20.8c0,1.3,0.1,2.5,0.1,3.7h2c0-1.5-0.2-2.7-0.2-3.7
			L178.7,20.8z M172.3,20.8c0.2,0.2,0.4,0.3,0.6,0.5c0.7,0.7,1,0.9,1,0.9s0.3-0.9,0.4-1.4l2.5,0l-0.5,0.5l-0.8-0.4
			c0,0,0,2.7-0.1,3.6l-2.6,0c-0.6-0.8-1.6-1.8-2.9-2.6c-1.1-0.7-1.6-1-2-1.1L172.3,20.8z M161.9,20.8
			C161.9,20.8,161.9,20.8,161.9,20.8c-0.7,0.5-1.5,2.3-1.6,3.7l6.3,0c-0.3-1.4-1.5-2.3-2-2.7c-0.3-0.3-0.9-0.7-1.5-0.9L161.9,20.8z
			 M156.2,20.8l1.7,0.7l0.4-0.7H156.2z M148.5,20.8c-0.2,0.6-0.4,0.9-0.6,0.9c-0.2,0-0.4-0.3-0.6-0.9L148.5,20.8z M119.8,20.8
			c0,1.1,0.1,2.4,0.1,3.7l1.5,0c0.1-1.5,0.1-2.7,0-3.7L119.8,20.8z M115.6,20.8c0,0.1,0,0.2,0,0.4c-0.1,0.8-0.2,2.1-0.2,3.3l1.7,0
			c0.1-1.7,0-2.9,0-2.9s0.4,0.5,0.9,0.1c0.2-0.2,0.4-0.5,0.5-0.8L115.6,20.8z M109.1,20.8c-0.2,1-0.5,1.5-0.7,1.4
			c-0.2,0-0.4-0.3-0.6-0.9c-0.1-0.2-0.1-0.4-0.1-0.5L109.1,20.8z M86.1,20.8l-0.2,0.4c0,0-0.4-0.3-0.7-0.4L86.1,20.8z M84.8,20.8
			C84.8,20.8,84.7,20.9,84.8,20.8c-0.2,0.4-0.2,2.2-0.3,3.7l-1.2,0c0.1-0.7,0.1-1.6,0-2.5c-0.1-0.5-0.1-0.9-0.2-1.2L84.8,20.8z
			 M70.3,20.8c-0.5,0.2-0.9,0.3-0.9,0.3s2.1,0.3,3.1,0.1c0.4-0.1,0.7-0.2,0.9-0.4L70.3,20.8z">
   </path>
   <path class="st0" d="M221.1,18.2l-0.5,0.4c0,0-0.2,0.7-0.9,0.8c-0.7,0.1-0.4-0.9-0.4-0.9s-0.5,0.9-1.8,0.9c-1.4,0-1.6-0.4-1.2-0.8
			c0.4-0.3,0.4-0.9,0.4-0.9s-1.5,1.3-1.4,2.1c0.1,0.7,1.6,1,2.6,0.7c1-0.4,1.1,0.2,1.8-0.2c0.7-0.4,1.4-1.2,1.4-1.5
			C221.2,18.6,221.1,18.2,221.1,18.2 M271,17.5c0,0-2.6,2-4.9,2.1c-2.4,0.2-2.9,0.2-2.9,0.2s2.5,0.9,4.9,0.3
			c2.4-0.7,2.9-1.9,2.9-1.9L271,17.5z M257.1,20.8l0.1-0.2l-2.9-1.2l-0.8,1.4H257.1z M250.4,20.8c0-0.8,0.1-1.3,0.1-1.7
			c0.2-0.8,1.3-1.8,1.3-1.8s-0.2,1.6-0.3,3.5L250.4,20.8z M246.1,20.8c0.5-0.2,0.9-0.2,0.9,0H246.1z M239.8,20.8c0-0.2,0-0.5,0-0.5
			s0.1-0.8,0.5-1.3c1.2-1.5,1.1-0.8,1.1-0.8s-1.1,1-1.1,1.6c-0.1,0.6,0.4,0.8,1,0.7c0.3-0.1,0.4,0.1,0.3,0.3L239.8,20.8z
			 M203.6,20.8l7.2-1.7c0,0,2.5-0.7,0.7-0.8c-1.8-0.1-3.5,0.9-4.8,1.1c-1.3,0.2-5.5,1.5-5.5,1.5c0,0,0,0-0.1,0L203.6,20.8z
			 M191.1,20.8c-0.3-0.9,1.1-1.5,1.1-1.5s1.5,0.4,2.7,1.5L191.1,20.8z M187.1,20.8c0.6-0.4,1-0.8,1.1-1.2c0.1-0.5,0-0.7,0-0.7
			s-0.4,1-0.9,1c-0.6,0.1-0.8-0.2-0.8-0.4c0-0.2-0.1-0.4-0.1-0.4s-0.5,1-1.1,1c-0.6,0-0.5-0.4-0.3-0.8c0.2-0.4,0-0.8,0-0.8
			s-0.9,1.1-1,1.6c0,0.2,0,0.4,0,0.6L187.1,20.8z M168,20.8c-0.4-0.1-0.6,0-1.3-0.2c-1.5-0.4-2.6-0.9-1.9-2c0.7-1.1,1.8-0.9,3.8,0
			c1.6,0.7,3,1.5,3.8,2.2L168,20.8z M163.2,20.8c-0.5-0.2-0.9-0.2-1.2,0L163.2,20.8z M158.3,20.8l0.7-1.2l-2.9-1.2l-1.1,1.9l1.2,0.5
			H158.3z M147.4,20.8C147.4,20.8,147.4,20.8,147.4,20.8c-0.2-0.9-0.4-1.3-0.5-1.5c-0.1,0.1-0.3,0.1-0.4,0.1c-0.6-0.1-0.9-0.4-0.9-1
			c0-0.4,0.2-0.6,0.7-0.6c0.5,0.1,0.9,0.4,1.2,0.9c0.1,0.1,0.3,0.6,0.6,1.4c0.1-1,0.2-1.6,0.2-1.6c0.2-0.7,0.5-1,1.1-0.9
			c0.6,0.1,0.9,0.4,0.9,0.9c0,0.1,0,0.3-0.1,0.4l0.1,0l0,0.1c0,0.1-0.1,0.1-0.2,0.1c-0.1,0-0.2-0.1-0.3-0.2
			c-0.1-0.1-0.2-0.2-0.3-0.2c-0.3,0-0.5,0.5-0.7,1.6c-0.1,0.2-0.1,0.5-0.2,0.6L147.4,20.8z M107.6,20.8c-0.2-0.5-0.3-0.8-0.4-1
			c-0.1,0.1-0.3,0.1-0.4,0.1c-0.6-0.1-0.9-0.4-0.9-1c0-0.4,0.2-0.6,0.7-0.6c0.5,0.1,0.9,0.4,1.2,0.9c0.1,0.1,0.3,0.6,0.6,1.4
			c0.1-1,0.2-1.6,0.2-1.6c0.2-0.7,0.5-1,1.1-0.9c0.6,0.1,0.9,0.4,0.9,0.9c0,0.1,0,0.3-0.1,0.4l0.1,0l0,0.1c0,0.1-0.1,0.1-0.2,0.1
			c-0.1,0-0.2-0.1-0.3-0.2c-0.1-0.1-0.2-0.2-0.3-0.2c-0.3,0-0.5,0.5-0.7,1.6c0,0,0,0.1,0,0.1L107.6,20.8z M73.4,20.8
			c0.4-0.3,0.6-0.7,0.8-1c0.5-0.6,0.4-1.3,0.4-1.6c0-0.4-1.8-0.5-2.6-0.4c-0.9,0.1-1.8,1.8-1.8,1.8s1.9-0.4,2.8-0.2
			c0.9,0.2,0.7,0.4,0.3,0.6c-0.2,0.1-1.9,0.6-3,0.9L73.4,20.8z M282.9,17.2c-0.6,0.2-1.2,0.7-1.4,1.8c-0.1,0.5-0.1,1.1,0,1.8l2,0
			c-0.1-0.5-0.1-0.9-0.1-1.2c0-0.9,0.2-2,0.3-2.5L282.9,17.2z M278.3,17.2c0,0.2,0,0.5-0.1,0.6c-0.1,0.2,0.4,0.5,1.1,1
			c0.7,0.5,1.2,0.9,1.2,0.9s-0.1,0.8-0.6,1.1h-2.6c0.1-0.1,0.2-0.2,0.3-0.2c0.4-0.2,0.1-0.4-0.5-0.9c-0.6-0.5-1.1-1.2-0.7-1.6
			c0.3-0.3,1-0.6,1.5-0.8L278.3,17.2z M235,17.2c-0.7,0.4-1.8,1.4-1.7,3.2c0,0.2,0,0.3,0,0.5l1.8,0c0-0.2,0-0.3,0-0.5
			c0.1-1.3,0.2-2.7,0.3-3.2L235,17.2z M229.3,17.2c0,0.2,0,0.6,0.3,0.8c0.3,0.3,1.6,1.1,1.9,1.2c0.3,0.2,0.2,0.7-0.2,1.3
			c-0.1,0.2-0.2,0.3-0.3,0.4l-0.5,0c-0.3-0.2-0.4-0.3-0.4-0.3s0,0.1,0,0.3l-1.7,0c0,0,0-0.1,0-0.1c-0.2-1,0.3-0.9-0.4-1.3
			c-0.7-0.4-0.7-1.1-0.1-1.5c0.4-0.3,0.8-0.6,1-0.7L229.3,17.2z M180.7,17.2c-0.7,0.3-1.9,1.2-2,2.8c0,0.3,0,0.5,0,0.8l1.9,0
			c0-0.5,0-0.9,0.1-1.3c0.2-1.1,0.4-2,0.4-2.3L180.7,17.2z M174.6,17.2c-0.1,0.3-0.2,1,0.1,1.1c0.4,0.2,1.9,0.8,2.3,1.1
			c0.5,0.3,0.6,0.5,0.6,0.5l-0.8,0.8h-2.5c0-0.1,0-0.1,0-0.2c0.1-0.3-0.4-0.4-1-1c-0.6-0.6-0.6-1.1-0.2-1.5c0.2-0.3,0.8-0.7,1.2-0.9
			L174.6,17.2z M131,17.2l-1.2,1.5c0,0,1.2,0.9,2,1.4c0.8,0.4,1.1,0.5,1.1,0.5l1.3-1.4l2.1,1l1.6-1.5l-2.8-1.6H135
			c-0.1,0.1-0.8,0.8-1,1c-0.2,0.3-0.4,0.3-0.4,0.3s-0.8-0.4-1.5-0.9c-0.4-0.2-0.6-0.4-0.7-0.5L131,17.2z M121.4,17.2
			c-0.5,0.4-1.5,1.4-1.6,3.1c0,0.2,0,0.3,0,0.5l1.7,0c0-0.7,0-1.2,0-1.6c0.1-0.8,0.1-1.7,0.1-2.1L121.4,17.2z M115.3,17.2
			c-0.4,0.3-1.2,1-1.3,1.6c-0.2,0.8,0.3,0.9,0.8,1.4c0.5,0.4,0.8,0.1,0.8,0.6l3,0c0.1-0.3,0.2-0.6,0.2-0.6s-0.8-0.7-1.9-1.4
			c-1.2-0.8-1.3-1.3-1.3-1.6L115.3,17.2z M96.6,17.2c-0.3,0.3-0.8,1-0.9,1.4c-0.1,0.6,0.2,1.3,1,1.1c0.7-0.2,1-0.4,1-0.4
			s0.1,0.4,0.9,0c0.8-0.4,1.2-0.9,1.3-1.3c0.1-0.5,0-0.7,0-0.7s-0.4,1-0.9,1c-0.6,0.1-0.8-0.2-0.8-0.4c0-0.2-0.1-0.4-0.1-0.4
			s-0.5,1-1.1,1c-0.6,0-0.5-0.4-0.3-0.8c0.1-0.2,0.1-0.5,0.1-0.6L96.6,17.2z M84.2,17.2c0,0,0,0.1,0.1,0.2c0.3,0.7,0.3,0.9,1.3,1.3
			c1,0.4,1.1,0.6,1.1,0.6l-0.7,1.6h-0.9c-0.2-0.1-0.3-0.1-0.4,0l-1.7,0c-0.1-0.5-0.2-0.7,0.1-0.8c0.4-0.1,0.6,0-0.2-0.5
			c-0.8-0.5-1-0.7-1-0.7s1.2-1.3,1.6-1.5c0,0,0.1,0,0.1-0.1L84.2,17.2z">
   </path>
   <path class="st0" d="M283.7,17.2c0-0.1,0.1-0.2,0.1-0.2s-0.4,0-0.9,0.2H283.7z M277.8,17.2c0.3-0.1,0.5-0.2,0.5-0.2s0,0.1,0,0.2
			H277.8z M235.4,17.2c0-0.1,0-0.2,0-0.2s-0.2,0.1-0.4,0.2L235.4,17.2z M229.1,17.2c0.2-0.1,0.3-0.2,0.3-0.2s0,0.1,0,0.2L229.1,17.2
			z M181.1,17.2c0-0.1,0-0.2,0-0.2s-0.2,0.1-0.5,0.2L181.1,17.2z M174.3,17.2c0.2-0.1,0.4-0.2,0.4-0.2s0,0.1-0.1,0.2L174.3,17.2z
			 M135,17.2L135,17.2C135,17.1,135,17.2,135,17.2L135,17.2z M131.3,17.2c-0.1-0.1-0.2-0.2-0.2-0.2l-0.1,0.2H131.3z M121.6,17.2
			c0-0.1,0-0.2,0-0.2s-0.1,0.1-0.3,0.2H121.6z M115.5,17.2c0-0.1,0.1-0.2,0.1-0.2s-0.1,0.1-0.3,0.2L115.5,17.2z M96.8,17.2
			c0-0.1,0-0.2,0-0.2s-0.1,0.1-0.2,0.2L96.8,17.2z M83.7,17.2c0.3-0.2,0.4-0.4,0.5,0L83.7,17.2z">
   </path>
   <path class="st0" d="M74.2,44.8c-0.7,0.1-1.2,0.3-1.6,0.6c-0.3,0.3-0.5,0.7-0.5,1.2c0,0.4,0.1,0.7,0.2,0.9
			c0.2,0.2,0.4,0.3,0.7,0.3c0.3,0,0.6-0.1,0.8-0.3c0.2-0.2,0.3-0.6,0.3-1V44.8z M74.3,47.7c-0.2,0.3-0.5,0.6-0.9,0.8
			c-0.4,0.2-0.8,0.3-1.2,0.3c-0.7,0-1.2-0.2-1.6-0.5c-0.4-0.4-0.6-0.9-0.6-1.5c0-0.5,0.1-0.8,0.4-1.1c0.3-0.3,0.7-0.5,1.2-0.7
			c0.2-0.1,0.4-0.1,0.8-0.2c0.8-0.2,1.4-0.4,1.7-0.6c0,0,0-0.1,0-0.1c0,0,0-0.1,0-0.2c0-0.4-0.1-0.8-0.4-1c-0.3-0.3-0.6-0.4-1.1-0.4
			c-0.4,0-0.7,0.1-1,0.3c-0.3,0.2-0.5,0.5-0.8,0.8c-0.1-0.2-0.1-0.4-0.2-0.5c-0.1-0.1-0.1-0.3-0.2-0.4c0.5-0.4,0.9-0.6,1.4-0.8
			c0.5-0.2,0.9-0.3,1.4-0.3c0.9,0,1.7,0.2,2.2,0.6c0.5,0.4,0.8,1,0.8,1.7v0.1l0,2.5v0.3c0,0.6,0.1,1,0.2,1.1
			c0.1,0.2,0.4,0.2,0.8,0.2h0v0.4c-0.3,0.1-0.5,0.2-0.8,0.2c-0.3,0.1-0.6,0.1-0.8,0.1c-0.4,0-0.7-0.1-0.9-0.3
			C74.5,48.3,74.3,48,74.3,47.7">
   </path>
   <path class="st0" d="M78.4,48.7c0-0.5,0.1-1,0.1-1.6c0-0.6,0-1.2,0-1.9c0-0.9,0-1.5,0-2.1c0-0.5,0-1-0.1-1.4c0.2,0,0.3,0,0.5,0
			c0.2,0,0.4,0,0.6,0c0.2,0,0.4,0,0.6,0c0.2,0,0.3,0,0.5,0c0,0.4,0,0.8-0.1,1.1c0,0.3,0,0.5,0,0.7h0.1c0.2-0.7,0.5-1.2,0.9-1.5
			c0.4-0.3,0.9-0.5,1.5-0.5H83c0,0.2-0.1,0.3-0.1,0.5c0,0.2,0,0.3,0,0.5c0,0.2,0,0.4,0,0.5c0,0.2,0,0.4,0.1,0.5
			c-0.2-0.1-0.4-0.1-0.6-0.2c-0.2,0-0.3-0.1-0.4-0.1c-0.5,0-0.9,0.2-1.1,0.5c-0.2,0.3-0.3,0.8-0.3,1.6c0,0.6,0,1.1,0,1.6
			c0,0.5,0.1,1,0.1,1.5c-0.2,0-0.4,0-0.6-0.1c-0.2,0-0.4,0-0.6,0c-0.2,0-0.4,0-0.5,0C78.8,48.6,78.6,48.6,78.4,48.7">
   </path>
   <path class="st0" d="M88.2,44.8c-0.7,0.1-1.2,0.3-1.6,0.6c-0.3,0.3-0.5,0.7-0.5,1.2c0,0.4,0.1,0.7,0.2,0.9
			c0.2,0.2,0.4,0.3,0.7,0.3c0.3,0,0.6-0.1,0.8-0.3c0.2-0.2,0.3-0.6,0.3-1V44.8z M88.2,47.7c-0.2,0.3-0.5,0.6-0.9,0.8
			c-0.4,0.2-0.8,0.3-1.2,0.3c-0.7,0-1.2-0.2-1.6-0.5c-0.4-0.4-0.6-0.9-0.6-1.5c0-0.5,0.1-0.8,0.4-1.1c0.3-0.3,0.7-0.5,1.2-0.7
			c0.2-0.1,0.4-0.1,0.8-0.2c0.8-0.2,1.4-0.4,1.7-0.6c0,0,0-0.1,0-0.1c0,0,0-0.1,0-0.2c0-0.4-0.1-0.8-0.4-1c-0.3-0.3-0.6-0.4-1.1-0.4
			c-0.4,0-0.7,0.1-1,0.3c-0.3,0.2-0.5,0.5-0.8,0.8c-0.1-0.2-0.1-0.4-0.2-0.5c-0.1-0.1-0.1-0.3-0.2-0.4c0.5-0.4,0.9-0.6,1.4-0.8
			c0.5-0.2,0.9-0.3,1.4-0.3c0.9,0,1.7,0.2,2.2,0.6c0.5,0.4,0.8,1,0.8,1.7v0.1l0,2.5v0.3c0,0.6,0.1,1,0.2,1.1
			c0.1,0.2,0.4,0.2,0.8,0.2h0v0.4c-0.3,0.1-0.5,0.2-0.8,0.2c-0.3,0.1-0.6,0.1-0.8,0.1c-0.4,0-0.7-0.1-0.9-0.3
			C88.5,48.3,88.3,48,88.2,47.7">
   </path>
   <path class="st0" d="M92.5,48.6c0.1-0.6,0.1-1.4,0.1-2.2c0-0.8,0-1.9,0-3.2c0-1.3,0-2.3,0-3.2c0-0.9-0.1-1.6-0.1-2.2
			c0.3,0,0.5,0.1,0.7,0.1c0.2,0,0.4,0,0.5,0c0.2,0,0.3,0,0.5,0c0.2,0,0.4,0,0.6-0.1c0,0.4,0,0.8-0.1,1.2c0,0.4,0,0.7,0,1.1v2.3
			c0.3-0.3,0.6-0.5,0.9-0.7c0.3-0.1,0.7-0.2,1.2-0.2c0.9,0,1.6,0.3,2.2,0.9c0.5,0.6,0.8,1.4,0.8,2.5c0,1.2-0.3,2.1-1,2.8
			c-0.6,0.7-1.5,1-2.6,1c-0.5,0-0.9-0.1-1.2-0.2c-0.4-0.2-0.7-0.4-1-0.8c-0.3,0.1-0.5,0.2-0.7,0.4c-0.2,0.1-0.4,0.3-0.6,0.4H92.5z
			 M96.2,42.4c-0.5,0-0.9,0.2-1.2,0.7c-0.2,0.4-0.4,1.2-0.4,2.3c0,1,0.1,1.7,0.3,2.1c0.2,0.4,0.6,0.6,1.1,0.6c0.6,0,1-0.2,1.2-0.7
			c0.2-0.5,0.4-1.2,0.4-2.4c0-1-0.1-1.6-0.3-2C97.1,42.6,96.7,42.4,96.2,42.4">
   </path>
   <path class="st0" d="M109.6,44.8c-0.7,0.1-1.2,0.3-1.6,0.6c-0.3,0.3-0.5,0.7-0.5,1.2c0,0.4,0.1,0.7,0.2,0.9
			c0.2,0.2,0.4,0.3,0.7,0.3c0.3,0,0.6-0.1,0.8-0.3c0.2-0.2,0.3-0.6,0.3-1V44.8z M109.7,47.7c-0.2,0.3-0.5,0.6-0.9,0.8
			c-0.4,0.2-0.8,0.3-1.2,0.3c-0.7,0-1.2-0.2-1.6-0.5c-0.4-0.4-0.6-0.9-0.6-1.5c0-0.5,0.1-0.8,0.4-1.1c0.3-0.3,0.7-0.5,1.2-0.7
			c0.2-0.1,0.4-0.1,0.8-0.2c0.8-0.2,1.4-0.4,1.7-0.6c0,0,0-0.1,0-0.1c0,0,0-0.1,0-0.2c0-0.4-0.1-0.8-0.4-1c-0.3-0.3-0.6-0.4-1.1-0.4
			c-0.4,0-0.7,0.1-1,0.3c-0.3,0.2-0.6,0.5-0.8,0.8c-0.1-0.2-0.1-0.4-0.2-0.5c-0.1-0.1-0.1-0.3-0.2-0.4c0.5-0.4,0.9-0.6,1.4-0.8
			c0.5-0.2,0.9-0.3,1.4-0.3c0.9,0,1.7,0.2,2.2,0.6c0.5,0.4,0.8,1,0.8,1.7v0.1l0,2.5v0.3c0,0.6,0.1,1,0.2,1.1
			c0.1,0.2,0.4,0.2,0.8,0.2h0v0.4c-0.3,0.1-0.5,0.2-0.8,0.2c-0.3,0.1-0.6,0.1-0.8,0.1c-0.4,0-0.7-0.1-0.9-0.3
			C109.9,48.3,109.8,48,109.7,47.7">
   </path>
   <path class="st0" d="M116,41.9h0.4c0.2,0,0.4,0,0.6,0c0.2,0,0.4,0,0.6,0c0,0.1,0,0.2,0,0.2c0,0,0,0.1,0,0.1c0,0,0,0.1,0,0.1
			c0,0,0,0.1,0,0.2c-0.1,0-0.2,0-0.4,0c-0.2,0-0.5,0-1.1,0v0.1c0,0.9,0,1.6,0,2.1c0,0.7,0,1.4,0,2.1c0,0.7,0.1,1.3,0.1,1.9
			c-0.2,0-0.4,0-0.6,0c-0.2,0-0.4,0-0.5,0c-0.2,0-0.4,0-0.6,0c-0.2,0-0.4,0-0.6,0c0-0.6,0.1-1.2,0.1-1.9c0-0.7,0-1.3,0-2
			c0-0.4,0-1.1,0-2.1v-0.1c-0.1,0-0.1,0-0.2,0c-0.1,0-0.2,0-0.4,0c-0.1,0-0.3,0-0.3,0c-0.1,0-0.1,0-0.2,0c0-0.1,0-0.1,0-0.2
			c0-0.1,0-0.1,0-0.2c0-0.1,0-0.1,0-0.2c0-0.1,0-0.1,0-0.2c0.1,0,0.3,0,0.4,0c0.1,0,0.3,0,0.4,0h0.3c0-0.5,0.1-0.9,0.2-1.4
			c0.1-0.4,0.4-0.9,0.7-1.3c0.3-0.5,0.7-0.8,1-1.1c0.4-0.2,0.8-0.3,1.2-0.3c0.2,0,0.3,0,0.5,0c0.2,0,0.4,0.1,0.5,0.1
			c-0.1,0.3-0.1,0.6-0.2,0.9c-0.1,0.3-0.1,0.6-0.2,0.9c-0.2-0.2-0.5-0.3-0.7-0.4c-0.2-0.1-0.5-0.1-0.7-0.1c-0.3,0-0.5,0.1-0.7,0.2
			c-0.2,0.1-0.3,0.3-0.3,0.5c0,0.2,0.1,0.4,0.2,0.9C115.9,41.3,116,41.7,116,41.9">
   </path>
   <path class="st0" d="M118.7,48.7c0-0.5,0.1-1,0.1-1.6c0-0.6,0-1.2,0-1.9c0-0.9,0-1.5,0-2.1c0-0.5,0-1-0.1-1.4c0.2,0,0.3,0,0.5,0
			c0.2,0,0.4,0,0.6,0c0.2,0,0.4,0,0.6,0c0.2,0,0.3,0,0.5,0c0,0.4,0,0.8-0.1,1.1c0,0.3,0,0.5,0,0.7h0.1c0.2-0.7,0.5-1.2,0.9-1.5
			c0.4-0.3,0.9-0.5,1.5-0.5h0.1c0,0.2-0.1,0.3-0.1,0.5c0,0.2,0,0.3,0,0.5c0,0.2,0,0.4,0,0.5c0,0.2,0,0.4,0.1,0.5
			c-0.2-0.1-0.4-0.1-0.6-0.2c-0.2,0-0.3-0.1-0.4-0.1c-0.5,0-0.9,0.2-1.1,0.5c-0.2,0.3-0.3,0.8-0.3,1.6c0,0.6,0,1.1,0,1.6
			c0,0.5,0.1,1,0.1,1.5c-0.2,0-0.4,0-0.6-0.1c-0.2,0-0.4,0-0.6,0c-0.2,0-0.4,0-0.5,0C119.1,48.6,118.9,48.6,118.7,48.7">
   </path>
   <path class="st0" d="M124.8,39.1c0-0.3,0.1-0.6,0.3-0.8c0.2-0.2,0.5-0.3,0.8-0.3c0.3,0,0.6,0.1,0.8,0.3c0.2,0.2,0.3,0.5,0.3,0.8
			c0,0.3-0.1,0.6-0.3,0.8c-0.2,0.2-0.5,0.3-0.8,0.3c-0.3,0-0.6-0.1-0.8-0.3C124.9,39.7,124.8,39.4,124.8,39.1 M124.9,48.6
			c0-0.7,0.1-1.4,0.1-1.9c0-0.5,0-1.1,0-1.5c0-0.5,0-1.1,0-1.7c0-0.6,0-1.2-0.1-1.8c0.2,0,0.4,0,0.6,0c0.2,0,0.4,0,0.6,0
			c0.2,0,0.4,0,0.6,0c0.2,0,0.4,0,0.6,0c0,0.6-0.1,1.2-0.1,1.8c0,0.6,0,1.1,0,1.7c0,0.5,0,1,0,1.5c0,0.5,0,1.2,0.1,1.9
			c-0.2,0-0.4,0-0.6,0c-0.2,0-0.4,0-0.6,0c-0.2,0-0.4,0-0.6,0C125.3,48.6,125.1,48.6,124.9,48.6">
   </path>
   <path class="st0" d="M135,47.3l0.1,0.1c0,0.2-0.1,0.4-0.1,0.5c0,0.1,0,0.2,0,0.3c-0.4,0.2-0.7,0.4-1.1,0.5
			c-0.4,0.1-0.8,0.2-1.3,0.2c-1.2,0-2.2-0.3-2.9-1c-0.7-0.6-1.1-1.5-1.1-2.6s0.4-2,1.1-2.7c0.7-0.7,1.7-1,2.9-1c0.5,0,1,0.1,1.5,0.2
			c0.5,0.1,0.8,0.3,1.2,0.5c-0.2,0.3-0.3,0.6-0.4,0.8c-0.1,0.2-0.2,0.4-0.2,0.6l-0.2-0.1c-0.1-0.5-0.3-0.8-0.6-1
			c-0.3-0.2-0.6-0.3-1.1-0.3c-0.6,0-1.1,0.3-1.4,0.8c-0.4,0.5-0.5,1.2-0.5,2.1c0,0.9,0.2,1.7,0.6,2.2c0.4,0.5,1,0.7,1.7,0.7
			c0.3,0,0.7-0.1,1-0.2C134.4,47.7,134.7,47.5,135,47.3">
   </path>
   <path class="st0" d="M140.3,44.8c-0.7,0.1-1.2,0.3-1.6,0.6c-0.3,0.3-0.5,0.7-0.5,1.2c0,0.4,0.1,0.7,0.2,0.9
			c0.2,0.2,0.4,0.3,0.7,0.3c0.3,0,0.6-0.1,0.8-0.3c0.2-0.2,0.3-0.6,0.3-1V44.8z M140.4,47.7c-0.2,0.3-0.5,0.6-0.9,0.8
			c-0.4,0.2-0.8,0.3-1.2,0.3c-0.7,0-1.2-0.2-1.6-0.5c-0.4-0.4-0.6-0.9-0.6-1.5c0-0.5,0.1-0.8,0.4-1.1c0.3-0.3,0.7-0.5,1.2-0.7
			c0.2-0.1,0.4-0.1,0.8-0.2c0.8-0.2,1.4-0.4,1.7-0.6c0,0,0-0.1,0-0.1c0,0,0-0.1,0-0.2c0-0.4-0.1-0.8-0.4-1c-0.3-0.3-0.6-0.4-1.1-0.4
			c-0.4,0-0.7,0.1-1,0.3c-0.3,0.2-0.6,0.5-0.8,0.8c-0.1-0.2-0.1-0.4-0.2-0.5c-0.1-0.1-0.1-0.3-0.2-0.4c0.5-0.4,0.9-0.6,1.4-0.8
			c0.5-0.2,0.9-0.3,1.4-0.3c0.9,0,1.7,0.2,2.2,0.6c0.5,0.4,0.8,1,0.8,1.7v0.1l0,2.5v0.3c0,0.6,0.1,1,0.2,1.1
			c0.1,0.2,0.4,0.2,0.8,0.2h0v0.4c-0.3,0.1-0.5,0.2-0.8,0.2c-0.3,0.1-0.6,0.1-0.8,0.1c-0.4,0-0.7-0.1-0.9-0.3
			C140.6,48.3,140.5,48,140.4,47.7">
   </path>
   <path class="st0" d="M144.5,48.7c0-0.6,0.1-1.2,0.1-1.8c0-0.6,0-1.1,0-1.6c0-0.6,0-1.2,0-1.7c0-0.6-0.1-1.1-0.1-1.7
			c0.2,0,0.3,0,0.5,0c0.2,0,0.4,0,0.6,0c0.2,0,0.4,0,0.6,0c0.2,0,0.3,0,0.5,0v1c0.3-0.4,0.7-0.7,1.1-0.9c0.4-0.2,0.8-0.3,1.3-0.3
			c0.4,0,0.7,0.1,1,0.2c0.3,0.1,0.6,0.3,0.8,0.5c0.2,0.2,0.3,0.4,0.4,0.7c0.1,0.3,0.1,0.7,0.1,1.4c0,0.1,0,0.3,0,0.7
			c0,0.4,0,0.8,0,1.1c0,0.4,0,0.9,0,1.3c0,0.4,0,0.8,0.1,1.2c-0.2,0-0.4,0-0.6,0c-0.2,0-0.4,0-0.6,0c-0.2,0-0.4,0-0.5,0
			c-0.2,0-0.4,0-0.6,0c0-0.4,0.1-0.9,0.1-1.5c0-0.6,0-1.2,0-1.9c0-1-0.1-1.7-0.3-2c-0.2-0.3-0.5-0.5-1-0.5c-0.5,0-0.8,0.2-1,0.5
			c-0.2,0.4-0.3,1-0.3,1.8c0,0.4,0,0.9,0,1.5c0,0.6,0,1.2,0.1,2c-0.2,0-0.4,0-0.6,0c-0.2,0-0.4,0-0.5,0c-0.2,0-0.4,0-0.5,0
			C144.9,48.6,144.7,48.6,144.5,48.7">
   </path>
   <path class="st0" d="M157.9,39.1c0-0.3,0.1-0.6,0.3-0.8c0.2-0.2,0.5-0.3,0.8-0.3c0.3,0,0.6,0.1,0.8,0.3c0.2,0.2,0.3,0.5,0.3,0.8
			c0,0.3-0.1,0.6-0.3,0.8c-0.2,0.2-0.5,0.3-0.8,0.3c-0.3,0-0.6-0.1-0.8-0.3C158,39.7,157.9,39.4,157.9,39.1 M157.9,48.6
			c0-0.7,0.1-1.4,0.1-1.9c0-0.5,0-1.1,0-1.5c0-0.5,0-1.1,0-1.7c0-0.6,0-1.2-0.1-1.8c0.2,0,0.4,0,0.6,0c0.2,0,0.4,0,0.6,0
			c0.2,0,0.4,0,0.6,0c0.2,0,0.4,0,0.6,0c0,0.6-0.1,1.2-0.1,1.8c0,0.6,0,1.1,0,1.7c0,0.5,0,1,0,1.5c0,0.5,0,1.2,0.1,1.9
			c-0.2,0-0.4,0-0.6,0c-0.2,0-0.4,0-0.6,0c-0.2,0-0.4,0-0.6,0C158.3,48.6,158.1,48.6,157.9,48.6">
   </path>
   <path class="st0" d="M162.2,48.7c0-0.6,0.1-1.2,0.1-1.8c0-0.6,0-1.1,0-1.6c0-0.6,0-1.2,0-1.7c0-0.6-0.1-1.1-0.1-1.7
			c0.2,0,0.3,0,0.5,0c0.2,0,0.4,0,0.6,0c0.2,0,0.4,0,0.6,0c0.2,0,0.3,0,0.5,0v1c0.3-0.4,0.7-0.7,1.1-0.9c0.4-0.2,0.8-0.3,1.3-0.3
			c0.4,0,0.7,0.1,1,0.2c0.3,0.1,0.6,0.3,0.8,0.5c0.2,0.2,0.3,0.4,0.4,0.7c0.1,0.3,0.1,0.7,0.1,1.4c0,0.1,0,0.3,0,0.7
			c0,0.4,0,0.8,0,1.1c0,0.4,0,0.9,0,1.3c0,0.4,0,0.8,0.1,1.2c-0.2,0-0.4,0-0.6,0c-0.2,0-0.4,0-0.5,0c-0.2,0-0.4,0-0.6,0
			c-0.2,0-0.4,0-0.6,0c0-0.4,0.1-0.9,0.1-1.5c0-0.6,0-1.2,0-1.9c0-1-0.1-1.7-0.3-2c-0.2-0.3-0.5-0.5-1-0.5c-0.5,0-0.8,0.2-1,0.5
			c-0.2,0.4-0.3,1-0.3,1.8c0,0.4,0,0.9,0,1.5c0,0.6,0,1.2,0.1,2c-0.2,0-0.4,0-0.6,0c-0.2,0-0.4,0-0.5,0c-0.2,0-0.4,0-0.5,0
			C162.6,48.6,162.4,48.6,162.2,48.7">
   </path>
   <path class="st0" d="M171.4,42.6h-0.3c-0.2,0-0.4,0-0.5,0c-0.1,0-0.2,0-0.3,0c0-0.1,0-0.1,0-0.1c0,0,0-0.1,0-0.2
			c0-0.1,0-0.2,0-0.2c0-0.1,0-0.1,0-0.1c0,0,0,0,0.1,0c0.4,0,0.6,0,0.8,0l0.2,0c0-0.1,0-0.1,0-0.2c0-0.1,0-0.2,0-0.3
			c0-0.2,0-0.4,0-0.6c0-0.2,0-0.5,0-0.8c0.4-0.1,0.7-0.3,1.1-0.4c0.4-0.1,0.7-0.3,1-0.4l0.2,0.1c0,0.5-0.1,1-0.1,1.4
			c0,0.4,0,0.6,0,0.8v0.5c0.3,0,0.5,0,0.8,0c0.3,0,0.5,0,0.7,0c0,0.1,0,0.2,0,0.2v0.1c0,0.1,0,0.2,0,0.3c0,0,0,0,0,0
			c-0.1,0-0.3,0-0.5,0c-0.2,0-0.6,0-1.1,0c0,0.1,0,0.2,0,0.3c0,1-0.1,1.7-0.1,2.1v0.6c0,1.1,0.1,1.8,0.2,2c0.1,0.3,0.3,0.4,0.7,0.4
			c0.2,0,0.5-0.1,0.9-0.2l0,0v0.5c-0.3,0.1-0.7,0.2-1,0.3c-0.3,0.1-0.6,0.1-0.8,0.1c-0.7,0-1.2-0.2-1.5-0.5
			c-0.4-0.3-0.5-0.8-0.5-1.4c0,0,0-0.4,0-1.2c0-0.8,0-1.6,0-2.4V42.6z">
   </path>
   <path class="st0" d="M178.1,44.5h2.7c0-0.1,0-0.1,0-0.2c0-0.1,0-0.1,0-0.2c0-0.7-0.1-1.1-0.3-1.5c-0.2-0.3-0.5-0.5-0.9-0.5
			c-0.5,0-0.8,0.2-1.1,0.6c-0.2,0.4-0.4,0.9-0.4,1.6V44.5z M178.1,45.2c0,0.8,0.2,1.5,0.6,2c0.4,0.5,1,0.7,1.7,0.7
			c0.4,0,0.7-0.1,1-0.2c0.3-0.1,0.7-0.3,1-0.5l0.2,0.1l-0.3,0.8c-0.3,0.2-0.7,0.4-1.2,0.5c-0.4,0.1-0.9,0.2-1.4,0.2
			c-1.2,0-2.2-0.3-2.9-1c-0.7-0.7-1-1.6-1-2.7c0-1.1,0.3-1.9,1-2.5c0.7-0.6,1.6-1,2.7-1c1.1,0,1.9,0.3,2.5,0.8
			c0.6,0.5,0.9,1.3,0.9,2.4c0,0.1,0,0.2,0,0.3c0,0.1,0,0.1,0,0.2L178.1,45.2z">
   </path>
   <path class="st0" d="M184.3,48.7c0-0.5,0.1-1,0.1-1.6c0-0.6,0-1.2,0-1.9c0-0.9,0-1.5,0-2.1c0-0.5,0-1-0.1-1.4c0.2,0,0.3,0,0.5,0
			c0.2,0,0.4,0,0.6,0c0.2,0,0.4,0,0.6,0c0.2,0,0.3,0,0.5,0c0,0.4,0,0.8-0.1,1.1c0,0.3,0,0.5,0,0.7h0.1c0.2-0.7,0.5-1.2,0.9-1.5
			c0.4-0.3,0.9-0.5,1.5-0.5h0.1c0,0.2-0.1,0.3-0.1,0.5c0,0.2,0,0.3,0,0.5c0,0.2,0,0.4,0,0.5c0,0.2,0,0.4,0.1,0.5
			c-0.2-0.1-0.4-0.1-0.6-0.2c-0.2,0-0.3-0.1-0.4-0.1c-0.5,0-0.9,0.2-1.1,0.5c-0.2,0.3-0.3,0.8-0.3,1.6c0,0.6,0,1.1,0,1.6
			c0,0.5,0.1,1,0.1,1.5c-0.2,0-0.4,0-0.6-0.1c-0.2,0-0.4,0-0.6,0c-0.2,0-0.4,0-0.5,0C184.7,48.6,184.5,48.6,184.3,48.7">
   </path>
   <path class="st0" d="M190.3,48.7c0-0.6,0.1-1.2,0.1-1.8c0-0.6,0-1.1,0-1.6c0-0.6,0-1.2,0-1.7c0-0.6-0.1-1.1-0.1-1.7
			c0.2,0,0.3,0,0.5,0c0.2,0,0.4,0,0.6,0c0.2,0,0.4,0,0.6,0c0.2,0,0.3,0,0.5,0v1c0.3-0.4,0.7-0.7,1.1-0.9c0.4-0.2,0.8-0.3,1.3-0.3
			c0.4,0,0.7,0.1,1,0.2c0.3,0.1,0.6,0.3,0.8,0.5c0.2,0.2,0.3,0.4,0.4,0.7c0.1,0.3,0.1,0.7,0.1,1.4c0,0.1,0,0.3,0,0.7
			c0,0.4,0,0.8,0,1.1c0,0.4,0,0.9,0,1.3c0,0.4,0,0.8,0.1,1.2c-0.2,0-0.4,0-0.6,0c-0.2,0-0.4,0-0.6,0c-0.2,0-0.4,0-0.6,0
			c-0.2,0-0.4,0-0.6,0c0-0.4,0.1-0.9,0.1-1.5c0-0.6,0-1.2,0-1.9c0-1-0.1-1.7-0.3-2c-0.2-0.3-0.5-0.5-1-0.5c-0.5,0-0.8,0.2-1,0.5
			c-0.2,0.4-0.3,1-0.3,1.8c0,0.4,0,0.9,0,1.5c0,0.6,0,1.2,0.1,2c-0.2,0-0.4,0-0.6,0c-0.2,0-0.4,0-0.5,0c-0.2,0-0.4,0-0.5,0
			C190.7,48.6,190.5,48.6,190.3,48.7">
   </path>
   <path class="st0" d="M203,44.8c-0.7,0.1-1.2,0.3-1.6,0.6c-0.3,0.3-0.5,0.7-0.5,1.2c0,0.4,0.1,0.7,0.2,0.9c0.2,0.2,0.4,0.3,0.7,0.3
			c0.3,0,0.6-0.1,0.8-0.3c0.2-0.2,0.3-0.6,0.3-1V44.8z M203.1,47.7c-0.2,0.3-0.5,0.6-0.9,0.8c-0.4,0.2-0.8,0.3-1.2,0.3
			c-0.7,0-1.2-0.2-1.6-0.5c-0.4-0.4-0.6-0.9-0.6-1.5c0-0.5,0.1-0.8,0.4-1.1c0.3-0.3,0.7-0.5,1.2-0.7c0.2-0.1,0.4-0.1,0.8-0.2
			c0.8-0.2,1.4-0.4,1.7-0.6c0,0,0-0.1,0-0.1c0,0,0-0.1,0-0.2c0-0.4-0.1-0.8-0.4-1c-0.3-0.3-0.6-0.4-1.1-0.4c-0.4,0-0.7,0.1-1,0.3
			c-0.3,0.2-0.6,0.5-0.8,0.8c-0.1-0.2-0.1-0.4-0.2-0.5c-0.1-0.1-0.1-0.3-0.2-0.4c0.5-0.4,0.9-0.6,1.4-0.8c0.5-0.2,0.9-0.3,1.4-0.3
			c0.9,0,1.7,0.2,2.2,0.6c0.5,0.4,0.8,1,0.8,1.7v0.1l0,2.5v0.3c0,0.6,0.1,1,0.2,1.1c0.1,0.2,0.4,0.2,0.8,0.2h0v0.4
			c-0.3,0.1-0.5,0.2-0.8,0.2c-0.3,0.1-0.6,0.1-0.8,0.1c-0.4,0-0.7-0.1-0.9-0.3C203.4,48.3,203.2,48,203.1,47.7">
   </path>
   <path class="st0" d="M207.4,42.6h-0.3c-0.2,0-0.4,0-0.5,0c-0.1,0-0.2,0-0.3,0c0-0.1,0-0.1,0-0.1c0,0,0-0.1,0-0.2
			c0-0.1,0-0.2,0-0.2c0-0.1,0-0.1,0-0.1c0,0,0.1,0,0.1,0c0.4,0,0.6,0,0.8,0l0.2,0c0-0.1,0-0.1,0-0.2c0-0.1,0-0.2,0-0.3
			c0-0.2,0-0.4,0-0.6c0-0.2,0-0.5,0-0.8c0.4-0.1,0.7-0.3,1.1-0.4c0.4-0.1,0.7-0.3,1-0.4l0.2,0.1c0,0.5-0.1,1-0.1,1.4
			c0,0.4,0,0.6,0,0.8v0.5c0.3,0,0.5,0,0.8,0c0.2,0,0.5,0,0.7,0c0,0.1,0,0.2,0,0.2v0.1c0,0.1,0,0.2,0,0.3c0,0,0,0,0,0
			c-0.1,0-0.3,0-0.5,0c-0.2,0-0.6,0-1.1,0c0,0.1,0,0.2,0,0.3c0,1-0.1,1.7-0.1,2.1v0.6c0,1.1,0.1,1.8,0.2,2c0.1,0.3,0.3,0.4,0.7,0.4
			c0.2,0,0.5-0.1,0.9-0.2l0,0v0.5c-0.3,0.1-0.7,0.2-1,0.3c-0.3,0.1-0.6,0.1-0.8,0.1c-0.7,0-1.2-0.2-1.5-0.5
			c-0.4-0.3-0.5-0.8-0.5-1.4c0,0,0-0.4,0-1.2c0-0.8,0-1.6,0-2.4V42.6z">
   </path>
   <path class="st0" d="M212.4,39.1c0-0.3,0.1-0.6,0.3-0.8c0.2-0.2,0.5-0.3,0.8-0.3c0.3,0,0.6,0.1,0.8,0.3c0.2,0.2,0.3,0.5,0.3,0.8
			c0,0.3-0.1,0.6-0.3,0.8c-0.2,0.2-0.5,0.3-0.8,0.3c-0.3,0-0.6-0.1-0.8-0.3C212.5,39.7,212.4,39.4,212.4,39.1 M212.4,48.6
			c0-0.7,0.1-1.4,0.1-1.9c0-0.5,0-1.1,0-1.5c0-0.5,0-1.1,0-1.7c0-0.6,0-1.2-0.1-1.8c0.2,0,0.4,0,0.6,0c0.2,0,0.4,0,0.6,0
			c0.2,0,0.4,0,0.6,0c0.2,0,0.4,0,0.6,0c0,0.6-0.1,1.2-0.1,1.8c0,0.6,0,1.1,0,1.7c0,0.5,0,1,0,1.5c0,0.5,0,1.2,0.1,1.9
			c-0.2,0-0.4,0-0.6,0c-0.2,0-0.4,0-0.6,0c-0.2,0-0.4,0-0.6,0C212.8,48.6,212.6,48.6,212.4,48.6">
   </path>
   <path class="st0" d="M218.5,45.2c0,1.1,0.1,1.9,0.4,2.3c0.2,0.4,0.7,0.7,1.2,0.7c0.6,0,1-0.2,1.3-0.7c0.2-0.4,0.4-1.2,0.4-2.3
			c0-1.1-0.1-1.9-0.4-2.3c-0.3-0.5-0.7-0.7-1.3-0.7c-0.6,0-1,0.2-1.2,0.7C218.7,43.3,218.5,44.1,218.5,45.2 M216.2,45.2
			c0-1.1,0.3-2,1-2.7c0.7-0.6,1.7-1,2.9-1c1.3,0,2.2,0.3,2.9,1c0.7,0.6,1,1.5,1,2.7c0,1.1-0.3,2-1,2.7c-0.7,0.6-1.6,1-2.9,1
			c-1.2,0-2.2-0.3-2.9-1C216.6,47.2,216.2,46.3,216.2,45.2">
   </path>
   <path class="st0" d="M225.5,48.7c0-0.6,0.1-1.2,0.1-1.8c0-0.6,0-1.1,0-1.6c0-0.6,0-1.2,0-1.7c0-0.6-0.1-1.1-0.1-1.7
			c0.2,0,0.3,0,0.5,0c0.2,0,0.4,0,0.6,0c0.2,0,0.4,0,0.6,0c0.2,0,0.3,0,0.5,0v1c0.3-0.4,0.7-0.7,1.1-0.9c0.4-0.2,0.8-0.3,1.3-0.3
			c0.4,0,0.7,0.1,1,0.2c0.3,0.1,0.6,0.3,0.8,0.5c0.2,0.2,0.3,0.4,0.4,0.7c0.1,0.3,0.1,0.7,0.1,1.4c0,0.1,0,0.3,0,0.7
			c0,0.4,0,0.8,0,1.1c0,0.4,0,0.9,0,1.3c0,0.4,0,0.8,0.1,1.2c-0.2,0-0.4,0-0.6,0c-0.2,0-0.4,0-0.6,0c-0.2,0-0.4,0-0.5,0
			c-0.2,0-0.4,0-0.6,0c0-0.4,0.1-0.9,0.1-1.5c0-0.6,0-1.2,0-1.9c0-1-0.1-1.7-0.3-2c-0.2-0.3-0.5-0.5-1-0.5c-0.5,0-0.8,0.2-1,0.5
			c-0.2,0.4-0.3,1-0.3,1.8c0,0.4,0,0.9,0,1.5c0,0.6,0,1.2,0.1,2c-0.2,0-0.4,0-0.6,0c-0.2,0-0.4,0-0.5,0c-0.2,0-0.4,0-0.5,0
			C225.9,48.6,225.7,48.6,225.5,48.7">
   </path>
   <path class="st0" d="M238.2,44.8c-0.7,0.1-1.2,0.3-1.6,0.6c-0.3,0.3-0.5,0.7-0.5,1.2c0,0.4,0.1,0.7,0.2,0.9
			c0.2,0.2,0.4,0.3,0.7,0.3c0.3,0,0.6-0.1,0.8-0.3c0.2-0.2,0.3-0.6,0.3-1V44.8z M238.3,47.7c-0.2,0.3-0.5,0.6-0.9,0.8
			c-0.4,0.2-0.8,0.3-1.2,0.3c-0.7,0-1.2-0.2-1.6-0.5c-0.4-0.4-0.6-0.9-0.6-1.5c0-0.5,0.1-0.8,0.4-1.1c0.3-0.3,0.7-0.5,1.2-0.7
			c0.2-0.1,0.4-0.1,0.8-0.2c0.8-0.2,1.4-0.4,1.7-0.6c0,0,0-0.1,0-0.1c0,0,0-0.1,0-0.2c0-0.4-0.1-0.8-0.4-1c-0.3-0.3-0.6-0.4-1.1-0.4
			c-0.4,0-0.7,0.1-1,0.3c-0.3,0.2-0.6,0.5-0.8,0.8c-0.1-0.2-0.1-0.4-0.2-0.5c-0.1-0.1-0.1-0.3-0.2-0.4c0.5-0.4,0.9-0.6,1.4-0.8
			c0.5-0.2,0.9-0.3,1.4-0.3c0.9,0,1.7,0.2,2.2,0.6c0.5,0.4,0.8,1,0.8,1.7v0.1l0,2.5v0.3c0,0.6,0.1,1,0.2,1.1
			c0.1,0.2,0.4,0.2,0.8,0.2h0v0.4c-0.3,0.1-0.5,0.2-0.8,0.2c-0.3,0.1-0.6,0.1-0.8,0.1c-0.4,0-0.7-0.1-0.9-0.3
			C238.5,48.3,238.4,48,238.3,47.7">
   </path>
   <path class="st0" d="M242.4,48.7c0-0.8,0.1-1.7,0.1-2.5c0-0.9,0-1.8,0-2.8c0-1.1,0-2,0-2.9c0-0.9-0.1-1.7-0.1-2.5
			c0.2,0,0.5,0.1,0.6,0.1c0.2,0,0.4,0,0.5,0c0.2,0,0.3,0,0.5,0c0.2,0,0.4,0,0.6-0.1c0,0.8-0.1,1.7-0.1,2.5c0,0.9,0,1.8,0,2.8
			c0,1.1,0,2,0,2.9c0,0.9,0.1,1.7,0.1,2.5c-0.2,0-0.4-0.1-0.6-0.1c-0.2,0-0.4,0-0.6,0c-0.2,0-0.4,0-0.6,0
			C242.8,48.6,242.6,48.6,242.4,48.7">
   </path>
   <path class="st0" d="M251.2,48.6c0.1-0.6,0.1-1.4,0.1-2.2c0-0.8,0-1.9,0-3.2c0-1.3,0-2.3,0-3.2c0-0.9-0.1-1.6-0.1-2.2
			c0.3,0,0.5,0.1,0.7,0.1c0.2,0,0.4,0,0.5,0c0.2,0,0.3,0,0.5,0c0.2,0,0.4,0,0.6-0.1c0,0.4,0,0.8-0.1,1.2c0,0.4,0,0.7,0,1.1v2.3
			c0.3-0.3,0.6-0.5,0.9-0.7c0.3-0.1,0.7-0.2,1.2-0.2c0.9,0,1.6,0.3,2.2,0.9c0.5,0.6,0.8,1.4,0.8,2.5c0,1.2-0.3,2.1-1,2.8
			c-0.6,0.7-1.5,1-2.6,1c-0.5,0-0.9-0.1-1.2-0.2c-0.4-0.2-0.7-0.4-1-0.8c-0.3,0.1-0.5,0.2-0.7,0.4c-0.2,0.1-0.4,0.3-0.6,0.4H251.2z
			 M254.9,42.4c-0.5,0-0.9,0.2-1.2,0.7c-0.2,0.4-0.4,1.2-0.4,2.3c0,1,0.1,1.7,0.3,2.1c0.2,0.4,0.6,0.6,1.1,0.6c0.6,0,1-0.2,1.2-0.7
			c0.2-0.5,0.4-1.2,0.4-2.4c0-1-0.1-1.6-0.3-2C255.8,42.6,255.4,42.4,254.9,42.4">
   </path>
   <path class="st0" d="M264,44.8c-0.7,0.1-1.2,0.3-1.6,0.6c-0.3,0.3-0.5,0.7-0.5,1.2c0,0.4,0.1,0.7,0.2,0.9c0.2,0.2,0.4,0.3,0.7,0.3
			c0.3,0,0.6-0.1,0.8-0.3c0.2-0.2,0.3-0.6,0.3-1V44.8z M264.1,47.7c-0.2,0.3-0.5,0.6-0.9,0.8c-0.4,0.2-0.8,0.3-1.2,0.3
			c-0.7,0-1.2-0.2-1.6-0.5c-0.4-0.4-0.6-0.9-0.6-1.5c0-0.5,0.1-0.8,0.4-1.1c0.3-0.3,0.7-0.5,1.2-0.7c0.2-0.1,0.4-0.1,0.8-0.2
			c0.8-0.2,1.4-0.4,1.7-0.6c0,0,0-0.1,0-0.1c0,0,0-0.1,0-0.2c0-0.4-0.1-0.8-0.4-1c-0.3-0.3-0.6-0.4-1.1-0.4c-0.4,0-0.7,0.1-1,0.3
			c-0.3,0.2-0.6,0.5-0.8,0.8c-0.1-0.2-0.1-0.4-0.2-0.5c-0.1-0.1-0.1-0.3-0.2-0.4c0.5-0.4,0.9-0.6,1.4-0.8c0.5-0.2,0.9-0.3,1.4-0.3
			c0.9,0,1.7,0.2,2.2,0.6c0.5,0.4,0.8,1,0.8,1.7v0.1l0,2.5v0.3c0,0.6,0.1,1,0.2,1.1c0.1,0.2,0.4,0.2,0.8,0.2h0v0.4
			c-0.3,0.1-0.5,0.2-0.8,0.2c-0.3,0.1-0.6,0.1-0.8,0.1c-0.4,0-0.7-0.1-0.9-0.3C264.3,48.3,264.1,48,264.1,47.7">
   </path>
   <path class="st0" d="M268.1,48.7c0-0.6,0.1-1.2,0.1-1.8c0-0.6,0-1.1,0-1.6c0-0.6,0-1.2,0-1.7c0-0.6-0.1-1.1-0.1-1.7
			c0.2,0,0.3,0,0.5,0c0.2,0,0.4,0,0.6,0c0.2,0,0.4,0,0.6,0c0.2,0,0.3,0,0.5,0v1c0.3-0.4,0.7-0.7,1.1-0.9c0.4-0.2,0.8-0.3,1.3-0.3
			c0.4,0,0.7,0.1,1,0.2c0.3,0.1,0.6,0.3,0.8,0.5c0.2,0.2,0.3,0.4,0.4,0.7c0.1,0.3,0.1,0.7,0.1,1.4c0,0.1,0,0.3,0,0.7
			c0,0.4,0,0.8,0,1.1c0,0.4,0,0.9,0,1.3c0,0.4,0,0.8,0.1,1.2c-0.2,0-0.4,0-0.6,0c-0.2,0-0.4,0-0.5,0c-0.2,0-0.4,0-0.6,0
			c-0.2,0-0.4,0-0.6,0c0-0.4,0.1-0.9,0.1-1.5c0-0.6,0-1.2,0-1.9c0-1-0.1-1.7-0.3-2c-0.2-0.3-0.5-0.5-1-0.5c-0.5,0-0.8,0.2-1,0.5
			c-0.2,0.4-0.3,1-0.3,1.8c0,0.4,0,0.9,0,1.5c0,0.6,0,1.2,0.1,2c-0.2,0-0.4,0-0.6,0c-0.2,0-0.4,0-0.5,0c-0.2,0-0.4,0-0.5,0
			C268.5,48.6,268.3,48.6,268.1,48.7">
   </path>
   <path class="st0" d="M277.1,48.7c0.1-0.7,0.1-1.6,0.1-2.6c0-1,0-2.1,0-3.4c0-1.1,0-2,0-2.8c0-0.8-0.1-1.5-0.1-2.1
			c0.2,0,0.4,0,0.6,0c0.2,0,0.4,0,0.6,0c0.2,0,0.4,0,0.6,0c0.2,0,0.4,0,0.6,0c0,0.4-0.1,0.9-0.1,1.3c0,0.5,0,1.1,0,1.9v1.2V45
			c0.7-0.6,1.3-1.2,1.8-1.8c0.5-0.5,0.9-1,1.3-1.5c0.1,0,0.2,0,0.3,0c0.1,0,0.2,0,0.4,0c0.1,0,0.3,0,0.4,0c0.1,0,0.2,0,0.3,0
			l0.1,0.1l-2.7,2.6l2.9,4.3c-0.2,0-0.4,0-0.6-0.1c-0.2,0-0.4,0-0.6,0c-0.2,0-0.4,0-0.6,0c-0.2,0-0.4,0-0.7,0
			c-0.3-0.5-0.6-1.1-1-1.6c-0.4-0.6-0.8-1.1-1.2-1.7V46c0,0.7,0,1.2,0,1.6c0,0.4,0,0.8,0.1,1c-0.2,0-0.4,0-0.6-0.1
			c-0.2,0-0.4,0-0.6,0c-0.2,0-0.4,0-0.5,0C277.5,48.6,277.3,48.6,277.1,48.7">
   </path>
   <path class="st1" d="M66.1,0l-1,5.8h-1.5l1-5.8H66.1z M62.3,0l-1,5.8h-1.5l1-5.8H62.3z M68.5,7.7L61.7,49h-1.5L67,7.7H68.5z
			 M64.6,7.7L57.8,49h-1.5l6.8-41.2H64.6z M60.8,7.7L54,49h-1.5l6.8-41.2H60.8z M70,0l-1,5.8h-1.5l1-5.8H70z M56.9,7.7L50.2,49h-1.5
			l6.8-41.2H56.9z M32.9,15.5c7.2,0,13,5.8,13,12.9s-5.8,12.9-13,12.9c-7.2,0-13-5.8-13-12.9S25.8,15.5,32.9,15.5 M26.9,38.1
			c3.3-2,5.5-5.6,5.5-9.7c0-4.1-2.2-7.7-5.5-9.7c-3.3,2-5.5,5.6-5.5,9.7C21.4,32.5,23.6,36.1,26.9,38.1 M31,39.7
			c1.9-1.7,3.3-3.8,4.2-6.1c0-0.2,0.1-0.3,0.2-0.3h1.3l-0.9,6.2c0.8-0.2,1.5-0.5,2.3-0.8l3.1-18.3c-0.6-0.6-1.2-1.1-1.9-1.5
			l-1.6,9.6l-1.5,0.1l-0.1-0.4c-0.1-4.4-2-8.3-5.1-11.1c-1,0.2-1.9,0.4-2.7,0.8c3.3,2.3,5.5,6.2,5.5,10.5c0,4.3-2.2,8.2-5.5,10.5
			C29.2,39.3,30.1,39.6,31,39.7 M33,39.9c0.4,0,0.8,0,1.1-0.1l0.3-1.6C34,38.8,33.5,39.3,33,39.9 M44.5,28.4c0-2.4-0.7-4.6-2-6.4
			l-2.6,15.6C42.7,35.5,44.5,32.1,44.5,28.4 M33,16.9c1.8,1.9,3.1,4.1,3.9,6.6l0.9-5.5C36.4,17.3,34.8,16.9,33,16.9 M53.1,7.7
			l-3.3,20.5c0,0.2-0.1,0.3-0.1,0.3l-1.2,0c-0.2,0-0.3-0.1-0.3-0.2l0.1-0.8c-0.4-8.1-7.1-14.5-15.3-14.5c-8.5,0-15.4,6.8-15.4,15.2
			c0,8.4,6.9,15.2,15.4,15.2c6.5,0,12-3.9,14.2-9.5c0.1-0.2,0.2-0.5,0.3-0.7l1.4-0.1c0.1,0,0.2,0.1,0.1,0.2L46.3,49h-1.5l1.6-10.6
			c-3.1,4.1-8,6.7-13.5,6.7c-9.3,0-16.9-7.5-16.9-16.7s7.5-16.7,16.9-16.7c7.5,0,13.9,4.9,16.1,11.6l2.6-15.6H53.1z M32.9,47.5
			c3,0,5.9-0.7,8.4-1.9c0.5-0.2,1-0.5,1.5-0.8c0.1-0.1,0.2,0,0.2,0.1l-0.3,1.5L42.4,49h-1.5l0.3-1.8c-2.5,1-5.4,1.8-8.3,1.8
			c-2.1,0-4.2-0.3-6.1-0.9c-1.9,0.6-4,0.9-6.1,0.9C9.3,49,0,39.8,0,28.4S9.3,7.8,20.8,7.8c2.1,0,4.2,0.3,6.1,0.9
			c1.9-0.6,4-0.9,6.1-0.9c5.3,0,10.2,2,13.9,5.3l0.9-5.3h1.7l-1.2,6.8l-0.3,1.5c0,0.1-0.2,0.2-0.3,0.1c-0.4-0.4-0.7-0.8-1.1-1.2
			c-3.5-3.5-8.3-5.6-13.6-5.6c-10.6,0-19.3,8.6-19.3,19.1C13.7,38.9,22.3,47.5,32.9,47.5 M20.8,45.1c-9.4,0-16.9-7.5-16.9-16.7
			s7.5-16.7,16.9-16.7c1.2-0.8,2.3-1.5,3.6-2c-1.2-0.2-2.4-0.3-3.6-0.3c-10.6,0-19.3,8.6-19.3,19.1c0,10.5,8.6,19.1,19.3,19.1
			c1.2,0,2.4-0.1,3.6-0.3C23.1,46.6,21.9,45.9,20.8,45.1 M16.1,40.4c-4.9-1.9-8.3-6.6-8.3-12c0-5.5,3.5-10.2,8.3-12
			c0.8-1.1,1.7-2.1,2.7-3.1c-7.6,0.9-13.4,7.3-13.4,15.1s5.9,14.2,13.4,15.1C17.8,42.6,16.9,41.6,16.1,40.4 M12.2,28.4
			c0-3.5,0.9-6.8,2.5-9.7c-3.3,2-5.4,5.6-5.4,9.7c0,4.1,2.2,7.7,5.4,9.7C13.1,35.2,12.2,31.9,12.2,28.4">
   </path>
  </g>
 </g>
</svg>