<?xml version="1.0" encoding="utf-8"?>
<!-- Generator: Adobe Illustrator 22.0.1, SVG Export Plug-In . SVG Version: 6.00 Build 0)  -->
<svg version="1.1" id="Layer_1" xmlns="http://www.w3.org/2000/svg" xmlns:xlink="http://www.w3.org/1999/xlink" x="0px" y="0px"
	 viewBox="0 0 1000 1000" style="enable-background:new 0 0 1000 1000;" xml:space="preserve">
<style type="text/css">
	.st0{fill:#C2912D;}
	.st1{fill:#231F20;}
</style>
<g>
	<g>
		<g>
			<path class="st0" d="M640.9,445.2v-28.6c17,0,13.5-29.8,13.5-29.8h-39v-5.4c0-6.6-5-8-10-8h-29.7v-16.8c0-6.3-8.4-8.9-8.4-8.9
				V280h7.4V258h-11v-35.7h6.8v-14.7h-11v-20h3.7v-12.1h-3.7v-11.6h-4.2v-9.5h-3.8v9.5h-4.2v11.6h-3.7v12.1h3.7v20h-11v14.7h6.8V258
				h-11V280h7.4v70.5c0,0-7.3,2.9-7.3,9.2v18h-23.4c0,0-1-2.1,2.6-2.4c3.6-0.3,10.6-2.9,9.2-15.1c-1.4-12.1-11-23.5-18.1-23.5
				c-7.2,0-15.6,12.9-15.6,24.9c0,7-0.3,6.3,0.6,8.7h-9.8c0,0,0.1,6.2,3.6,9.7c2,2,2.4,10.3,2.4,10.3s0.3,25.9,0.3,29.6
				c0,8.4-1.1,7.8-7,7.8c-5.3,0-6.6,0.9-6.6-7.8v-12.3c0,0,0.5-4.1-4.9-4.1c-4.2,0-5,1.3-5.1,4.1v16c0,1.8-1.1,2.8-2.4,2.8
				c-1.3,0-2.8-1.3-2.8-2.8v-24.1c0-1.7-0.4-4.9,6.1-4.9c6.5,0,9.5-0.3,9.5-8.3v-25.9c0,0,0.5-3.8-6.5-3.8c0-6.3-8.4-8.9-8.4-8.9
				V280h7.4V258h-11v-35.7h6.8v-14.7h-11v-20h3.7v-12.1h-3.7v-11.6h-4.2v-9.5h-3.8v9.5h-4.2v11.6h-3.7v12.1h3.7v20h-11v14.7h6.8V258
				h-11V280h7.4v70.5c0,0-8.4,2.6-8.4,8.9c0,6.3,0,14.1,0,14.1s-39.9,0.1-47.2,0.1c-7.3,0-7.3,3.1-7.3,6.2c0,3.1-0.4,8.9-0.4,8.9
				h-20.5l24,58.7c-68.4,12-125.6,48.7-125.6,48.7s99.3-51.4,254.3-51.4c155,0,263.2,50.2,263.2,50.2
				C724,470.4,640.9,445.2,640.9,445.2 M381.6,403.2c0,1.3-1.1,2.4-2.4,2.4h-4.2c-1.3,0-2.4-1.1-2.4-2.4v-6.4c0-1.3,1.1-2.4,2.4-2.4
				h4.2c1.3,0,2.4,1.1,2.4,2.4V403.2z M392.9,396.7c0-1.3,1.1-2.4,2.4-2.4h4.2c1.3,0,2.4,1.1,2.4,2.4v6.4c0,1.3-1.1,2.4-2.4,2.4
				h-4.2c-1.3,0-2.4-1.1-2.4-2.4V396.7z M401.9,422.1c0,1.3-1.1,2.4-2.4,2.4h-4.2c-1.3,0-2.4-1.1-2.4-2.4v-6.4
				c0-1.3,1.1-2.4,2.4-2.4h4.2c1.3,0,2.4,1.1,2.4,2.4V422.1z M421.5,422.1c0,1.3-1.1,2.4-2.4,2.4H415c-1.3,0-2.4-1.1-2.4-2.4v-6.4
				c0-1.3,1.1-2.4,2.4-2.4h4.2c1.3,0,2.4,1.1,2.4,2.4V422.1z M421.5,403.2c0,1.3-1.1,2.4-2.4,2.4H415c-1.3,0-2.4-1.1-2.4-2.4v-6.4
				c0-1.3,1.1-2.4,2.4-2.4h4.2c1.3,0,2.4,1.1,2.4,2.4V403.2z M429.5,211.4h8.5v7.7h-8.5V211.4z M438.4,350.2h-6.2v-66.9h6.2V350.2z
				 M438.4,275.6h-12v-12.4h12V275.6z M439.2,257.4h-5.4v-33.2h5.4V257.4z M441.5,206.4h-3.9v-13.1h3.9V206.4z M441.9,186.3h-5.8v-7
				h5.8V186.3z M502.5,426.5c0,1.3-1.1,2.4-2.4,2.4h-1.4c-1.3,0-2.4-1.1-2.4-2.4v-30.1c0-1.3,1.1-2.4,2.4-2.4h1.4
				c1.3,0,2.4,1.1,2.4,2.4V426.5z M514.5,426.5c0,1.3-1.1,2.4-2.4,2.4h-1.4c-1.3,0-2.4-1.1-2.4-2.4v-30.1c0-1.3,1.1-2.4,2.4-2.4h1.4
				c1.3,0,2.4,1.1,2.4,2.4V426.5z M541.2,211.4h8.5v7.7h-8.5V211.4z M550.1,350.2h-6.2v-66.9h6.2V350.2z M550.1,275.6h-12v-12.4h12
				V275.6z M550.9,257.4h-5.4v-33.2h5.4V257.4z M553.2,206.4h-3.9v-13.1h3.9V206.4z M553.6,186.3h-5.8v-7h5.8V186.3z M581.8,426.5
				c0,1.3-1.1,2.4-2.4,2.4h-1.4c-1.3,0-2.4-1.1-2.4-2.4v-30.1c0-1.3,1.1-2.4,2.4-2.4h1.4c1.3,0,2.4,1.1,2.4,2.4V426.5z"/>
			<path class="st1" d="M101.1,748.7c1.9-0.2,3.4-0.4,4.6-0.7c1.1-0.3,2-0.8,2.5-1.5c0.6-0.7,0.9-1.6,1.1-2.8
				c0.2-1.2,0.2-2.6,0.2-4.4v-29.8c0-1.4-0.1-2.7-0.4-3.8c-0.2-1.1-0.7-2.1-1.3-3c-0.6-0.8-1.5-1.5-2.6-1.9
				c-1.1-0.4-2.5-0.7-4.2-0.8v-1.8c4.9,0,9.9-0.1,14.8-0.2c5-0.2,10-0.2,15-0.2c2.1,0,4.3,0.3,6.4,0.9c2.1,0.6,4,1.5,5.7,2.8
				c1.7,1.2,3.1,2.7,4.2,4.6c1.1,1.8,1.6,3.9,1.6,6.3c0,2.6-0.8,4.8-2.5,6.7c-1.7,1.9-3.6,3.2-5.9,4v0.2c1.6,0.3,3.2,0.9,4.7,1.7
				c1.5,0.8,2.9,1.8,4.1,3c1.2,1.2,2.1,2.6,2.8,4.1c0.7,1.5,1,3.2,1,4.9c0,2.7-0.5,4.9-1.5,6.7c-1,1.8-2.4,3.3-4.1,4.4
				c-1.8,1.1-3.8,1.9-6.2,2.4c-2.4,0.5-5,0.7-7.7,0.7c-1.7,0-4.1-0.1-7.2-0.4c-3.1-0.3-7.2-0.4-12.2-0.4c-1.7,0-3.1,0-4.4,0
				c-1.3,0-2.4,0.1-3.4,0.1c-1,0-1.9,0-2.7,0.1c-0.8,0-1.6,0.1-2.4,0.1V748.7z M120.3,722c0.9,0.3,1.9,0.6,2.9,0.8
				c1,0.2,2.2,0.3,3.5,0.3c1.7,0,3.1-0.3,4.5-0.8c1.3-0.6,2.4-1.3,3.3-2.3c0.9-1,1.6-2.2,2.1-3.5c0.5-1.3,0.7-2.8,0.7-4.2
				c0-3.9-1.1-6.7-3.2-8.5c-2.1-1.8-5.1-2.7-8.8-2.7c-0.9,0-1.7,0-2.5,0.1c-0.8,0-1.7,0.1-2.6,0.1V722z M120.3,746.2
				c1.3,0.6,2.6,1,3.9,1.3c1.3,0.3,2.7,0.4,4.1,0.4c3.8,0,6.8-1,9.2-3c2.4-2,3.5-4.9,3.5-8.8c0-2.1-0.5-4.2-1.6-6.1
				c-1-1.9-2.4-3.6-4-4.9c-2.4,0.6-4.6,0.9-6.8,0.9c-1.9,0-3.5-0.1-4.8-0.3c-1.3-0.2-2.5-0.5-3.6-0.9V746.2z"/>
			<path class="st1" d="M154.2,748.7c1.5-0.2,2.7-0.5,3.7-0.9c1-0.5,1.8-1.1,2.5-1.8c0.7-0.7,1.3-1.6,1.8-2.6c0.5-1,1-2.1,1.6-3.4
				l15.7-36.6l-1.4-3.8c1.7-0.3,3.4-0.7,5.1-1.2c1.7-0.5,3.3-1,4.8-1.7l17.4,47.2c0.6,1.7,1.8,3,3.4,3.7c1.6,0.8,3.2,1.2,4.9,1.2
				v1.9c-1-0.1-2.2-0.1-3.4-0.2c-1.3-0.1-2.6-0.1-3.9-0.1c-1.3,0-2.6,0-3.8,0H199c-2.2,0-4.5,0-6.7,0.1c-2.2,0.1-4.5,0.1-6.7,0.3
				v-1.9c2.8-0.2,4.8-0.7,6.2-1.4c1.3-0.7,2-1.7,2-3.1c0-0.5-0.1-1.1-0.3-1.8c-0.2-0.7-0.4-1.5-0.7-2.3c-0.3-0.8-0.6-1.5-0.9-2.3
				c-0.3-0.8-0.5-1.4-0.8-2l-2.7-7.9h-16l-4.1,11.3c-0.3,0.7-0.5,1.5-0.8,2.2c-0.3,0.7-0.4,1.6-0.4,2.6c0,0.6,0.2,1.2,0.7,1.8
				c0.5,0.5,1,1,1.8,1.4c0.7,0.4,1.5,0.7,2.3,1c0.8,0.3,1.6,0.5,2.3,0.6v1.9c-1.7-0.1-3.4-0.2-5.2-0.3c-1.7-0.1-3.5-0.1-5.2-0.1
				c-1.6,0-3.2,0-4.8,0.1c-1.6,0.1-3.2,0.1-4.8,0.3V748.7z M187.3,724.9l-6.6-18.8h-0.2l-7,18.8H187.3z"/>
			<path class="st1" d="M212.5,748.7c2.5-0.4,4.5-0.8,5.9-1.2c1.4-0.4,2.5-1.1,3.3-2c0.7-0.9,1.2-2,1.4-3.5c0.2-1.4,0.3-3.4,0.3-5.8
				l0.3-31.2c-0.7-0.8-1.5-1.5-2.4-2.1c-0.9-0.6-1.8-1.1-2.8-1.5c-1-0.4-2-0.8-3-1c-1-0.3-2-0.6-3-0.8v-1.9c1.4,0.1,2.8,0.2,4.2,0.3
				c1.4,0.1,2.8,0.2,4.2,0.2c3.7,0,7.3-0.2,10.9-0.5c5.3,6.6,10.8,13.1,16.2,19.4c5.5,6.3,10.8,12.9,15.8,19.6h0.2v-6.5
				c0-2.6,0-5.3-0.1-8.1c-0.1-2.8-0.2-5.5-0.4-8.2c-0.2-2.6-0.4-4.9-0.7-6.7c-0.2-1.4-0.6-2.5-1.1-3.4c-0.5-0.9-1.2-1.6-2-2.2
				c-0.8-0.6-1.7-1-2.8-1.3c-1-0.3-2.2-0.5-3.5-0.8v-1.9c1.9,0.1,3.8,0.2,5.7,0.3c1.9,0.1,3.8,0.2,5.6,0.2c3.7,0,7.4-0.2,11.1-0.5
				v1.9c-2.1,0.1-3.7,0.4-5,0.9c-1.2,0.5-2.2,1.3-2.8,2.4c-0.6,1.1-1,2.6-1.2,4.5c-0.2,1.9-0.3,4.3-0.3,7.3v36.8h-4.7
				c-1.6-2.5-3.4-5.1-5.5-7.9c-2-2.8-4.2-5.6-6.4-8.4c-2.2-2.8-4.5-5.6-6.7-8.3c-2.3-2.7-4.5-5.3-6.5-7.7c-2.1-2.4-4-4.6-5.8-6.6
				c-1.8-2-3.3-3.6-4.5-4.9v27.2c0,2.7,0.1,4.9,0.3,6.5c0.2,1.6,0.7,2.9,1.4,3.9c0.7,1,1.8,1.7,3.2,2.1c1.4,0.5,3.3,0.9,5.6,1.2v1.9
				c-2-0.1-3.9-0.2-5.9-0.3c-1.9-0.1-3.9-0.1-5.9-0.1c-2.2,0-4.4,0-6.6,0.1c-2.1,0.1-4.3,0.1-6.6,0.3V748.7z"/>
			<path class="st1" d="M322.7,698.5c3.8,1.3,7,3.1,9.7,5.4c2.7,2.4,4.8,5.3,6.3,8.7c1.5,3.5,2.2,7.3,2.2,11.7s-0.8,8.2-2.2,11.7
				c-1.5,3.4-3.6,6.3-6.3,8.7c-2.7,2.4-6,4.2-9.7,5.4c-3.8,1.3-7.9,1.9-12.5,1.9c-4.5,0-8.7-0.6-12.5-1.9c-3.8-1.3-7-3.1-9.7-5.4
				c-2.7-2.4-4.8-5.3-6.3-8.7c-1.5-3.4-2.2-7.3-2.2-11.7s0.7-8.2,2.2-11.7c1.5-3.4,3.6-6.4,6.3-8.7c2.7-2.3,6-4.2,9.7-5.4
				c3.8-1.3,7.9-1.9,12.5-1.9C314.8,696.6,318.9,697.2,322.7,698.5 M283.3,756.1c2-1.3,4.1-2.2,6.3-2.7c2.2-0.5,4.5-0.7,6.8-0.7
				c2.4,0,5,0.4,7.7,1.3c2.8,0.9,5.5,1.8,8.4,2.9c2.8,1,5.6,2,8.4,2.8c2.8,0.9,5.3,1.3,7.7,1.3c3.3,0,6-0.5,8.2-1.6
				c2.2-1.1,4.4-2.9,6.5-5.4l1.6,1.3c-1,1.7-2.1,3.4-3.3,5c-1.3,1.6-2.7,3.1-4.3,4.3c-1.6,1.3-3.4,2.3-5.3,3.1
				c-2,0.8-4.1,1.2-6.5,1.2c-2.1,0-4.2-0.3-6.2-1c-2-0.6-3.9-1.5-5.8-2.4c-1.9-1-3.7-2-5.5-3.2c-1.8-1.1-3.5-2.2-5.3-3.2
				c-1.8-1-3.5-1.8-5.3-2.4c-1.8-0.6-3.6-1-5.5-1c-1.3,0-2.8,0.2-4.3,0.6c-1.5,0.4-2.7,0.9-3.7,1.4L283.3,756.1z M301.6,701.5
				c-2.4,1.3-4.4,3.2-6,5.5c-1.6,2.3-2.7,4.9-3.5,7.9c-0.7,3-1.1,6.1-1.1,9.4c0,3.3,0.4,6.4,1.1,9.4c0.7,3,1.9,5.6,3.5,7.9
				c1.6,2.3,3.6,4.1,6,5.5c2.4,1.3,5.3,2,8.6,2c3.3,0,6.2-0.7,8.6-2c2.4-1.3,4.4-3.2,6-5.5c1.6-2.3,2.7-4.9,3.5-7.9
				c0.7-3,1.1-6.1,1.1-9.4c0-3.3-0.4-6.5-1.1-9.4c-0.7-3-1.9-5.6-3.5-7.9c-1.6-2.3-3.6-4.1-6-5.5c-2.4-1.3-5.3-2-8.6-2
				C306.9,699.5,304.1,700.2,301.6,701.5"/>
			<path class="st1" d="M345.2,697.7c4.7,0.3,9.3,0.5,14,0.5c4.8,0,9.5-0.2,14.2-0.5l-0.2,1.9c-2,0.1-3.5,0.3-4.7,0.6
				c-1.1,0.3-2,0.8-2.6,1.5c-0.6,0.7-0.9,1.6-1.1,2.7c-0.2,1.1-0.2,2.6-0.2,4.4v26.6c0,1.4,0.3,2.9,0.8,4.3c0.6,1.4,1.4,2.7,2.7,3.8
				c1.2,1.1,2.8,2,4.7,2.7c1.9,0.7,4.2,1,6.9,1c3.2,0,5.9-0.5,8-1.5c2.1-1,3.8-2.2,5-3.6c1.2-1.4,2-3,2.5-4.7
				c0.5-1.7,0.7-3.3,0.7-4.7v-19.7c0-2.7-0.1-4.9-0.4-6.6c-0.3-1.7-0.7-3.1-1.4-4.1c-0.7-1-1.6-1.7-2.8-2.2
				c-1.2-0.4-2.7-0.6-4.6-0.6v-1.9c1.2,0.1,2.8,0.2,4.6,0.3c1.8,0.1,3.8,0.2,5.8,0.2c1.6,0,3.3-0.1,4.9-0.2c1.6-0.1,3.2-0.2,4.9-0.3
				v1.9c-1.8,0.1-3.1,0.3-4.1,0.6c-1,0.3-1.8,0.8-2.3,1.5c-0.5,0.7-0.9,1.6-1,2.7c-0.1,1.1-0.2,2.6-0.2,4.4v22
				c0,6.7-1.9,11.8-5.7,15.5c-3.8,3.7-9.1,5.5-15.8,5.5c-4.1,0-7.6-0.5-10.5-1.5c-2.9-1-5.4-2.3-7.3-3.9c-1.9-1.6-3.4-3.4-4.3-5.4
				c-0.9-2-1.4-4-1.4-5.9v-26.3c0-1.4-0.1-2.7-0.2-3.8c-0.2-1.1-0.5-2-1.1-2.8c-0.6-0.8-1.5-1.4-2.7-1.8c-1.2-0.5-2.8-0.7-4.9-0.8
				V697.7z"/>
			<path class="st1" d="M409.9,748.7c1.8-0.1,3.3-0.3,4.4-0.7c1.1-0.3,1.9-0.9,2.5-1.6c0.6-0.7,1-1.6,1.2-2.8
				c0.2-1.1,0.3-2.5,0.3-4.1v-30.4c0-1.5-0.1-2.8-0.3-3.9c-0.2-1.1-0.6-2.1-1.2-2.8c-0.6-0.7-1.4-1.3-2.5-1.7
				c-1.1-0.4-2.6-0.6-4.4-0.7v-2.3c2.7,0.1,5.5,0.2,8.2,0.3c2.8,0.1,5.5,0.2,8.2,0.2c5.2,0,10.3-0.1,15.5-0.2
				c5.1-0.1,10.4-0.2,15.7-0.3c0,1-0.1,1.9-0.1,2.9v2.8c0,1.7,0,3.3,0.1,4.9c0.1,1.6,0.2,3.1,0.6,4.4l-1.8,0.3
				c-1.3-4.1-3.3-7.1-6.1-9.2c-2.8-2.1-6.9-3.1-12.2-3.1h-9v19.4h4.2c1.4,0,2.8-0.2,4.1-0.5c1.3-0.3,2.6-0.9,3.7-1.7
				c1.1-0.8,2.2-1.8,3-3.1c0.9-1.3,1.5-2.9,1.9-4.7h1.6c-0.1,1.9-0.1,3.8-0.2,5.7c-0.1,1.9-0.1,3.8-0.1,5.7c0,1.9,0,3.8,0.1,5.7
				c0.1,1.9,0.2,3.8,0.2,5.7h-1.6c-0.4-2-1-3.6-1.8-5c-0.8-1.3-1.7-2.4-2.8-3.2c-1.1-0.8-2.3-1.4-3.6-1.7c-1.4-0.4-2.8-0.5-4.4-0.5
				H429v23.8c1.3,0.4,2.7,0.7,4.3,0.8c1.6,0.2,3.3,0.3,5.3,0.3c5.2,0,10-1.2,14.2-3.7c4.2-2.5,7.8-6.4,10.8-11.6l1.5,1.1
				c-1.3,2.8-2.6,5.7-3.8,8.5c-1.2,2.8-2.3,5.7-3.2,8.7c-4.2-0.1-8.3-0.2-12.4-0.3c-4.1-0.1-8.3-0.1-12.4-0.1h-7.5
				c-2.3,0-4.5,0-6.5,0c-2,0-3.8,0.1-5.4,0.1c-1.6,0.1-2.9,0.1-3.9,0.2V748.7z"/>
			<path class="st1" d="M487.6,748.4c1.9-0.2,3.4-0.4,4.6-0.7c1.1-0.3,2-0.8,2.5-1.5c0.6-0.7,0.9-1.6,1.1-2.8
				c0.2-1.1,0.2-2.6,0.2-4.5v-30.1c0-1.8-0.1-3.3-0.2-4.5c-0.2-1.2-0.5-2.1-1.1-2.8c-0.6-0.7-1.4-1.2-2.6-1.5
				c-1.2-0.3-2.7-0.6-4.7-0.7v-1.9c1.7,0.2,3.4,0.3,5.1,0.5c1.7,0.2,3.4,0.2,5.1,0.2c3.3,0,6.8-0.1,10.3-0.4
				c3.6-0.3,7.8-0.4,12.7-0.4c3.6,0,7.3,0.6,10.9,1.8c3.6,1.2,6.8,3,9.7,5.4c2.8,2.4,5.1,5.4,6.9,8.9c1.8,3.6,2.6,7.7,2.6,12.4
				c0,4.3-0.8,8.1-2.3,11.2c-1.5,3.2-3.6,5.8-6.2,7.8c-2.6,2-5.6,3.5-9,4.5c-3.4,1-7,1.5-10.8,1.5c-2.2,0-4.1,0-5.7-0.1
				c-1.6,0-3.2-0.1-4.8-0.2c-1.6-0.1-3.2-0.2-5-0.2c-1.8-0.1-3.9-0.1-6.4-0.1c-2.8,0-5.3,0-7.4,0.1c-2.1,0-4,0.1-5.7,0.2V748.4z
				 M506.7,744.1c0,0.8,0.3,1.4,1,1.9c0.6,0.5,1.5,0.9,2.6,1.2c1.1,0.3,2.3,0.5,3.7,0.7c1.4,0.1,2.9,0.2,4.4,0.2
				c3.2,0,6-0.5,8.6-1.4c2.6-0.9,4.7-2.4,6.6-4.2c1.8-1.9,3.2-4.3,4.2-7.2c1-2.9,1.4-6.3,1.4-10.2c0-3.6-0.5-6.9-1.6-9.9
				c-1-3-2.5-5.6-4.5-7.9c-2-2.2-4.4-3.9-7.2-5.2c-2.9-1.2-6.1-1.8-9.7-1.8c-1.6,0-3.2,0.1-4.7,0.3c-1.5,0.2-3.1,0.5-4.6,1V744.1z"
				/>
			<path class="st1" d="M554.7,697.7c4.7,0.3,9.3,0.5,14,0.5c4.8,0,9.5-0.2,14.2-0.5l-0.2,1.9c-2,0.1-3.5,0.3-4.7,0.6
				c-1.2,0.3-2,0.8-2.6,1.5c-0.6,0.7-0.9,1.6-1.1,2.7c-0.2,1.1-0.2,2.6-0.2,4.4v26.6c0,1.4,0.3,2.9,0.8,4.3c0.6,1.4,1.4,2.7,2.6,3.8
				c1.2,1.1,2.8,2,4.7,2.7c1.9,0.7,4.2,1,6.9,1c3.2,0,5.9-0.5,8-1.5c2.1-1,3.8-2.2,5-3.6c1.2-1.4,2-3,2.5-4.7
				c0.5-1.7,0.7-3.3,0.7-4.7v-19.7c0-2.7-0.1-4.9-0.4-6.6c-0.3-1.7-0.8-3.1-1.4-4.1c-0.7-1-1.6-1.7-2.8-2.2
				c-1.2-0.4-2.7-0.6-4.6-0.6v-1.9c1.2,0.1,2.8,0.2,4.6,0.3c1.8,0.1,3.8,0.2,5.8,0.2c1.6,0,3.3-0.1,4.9-0.2c1.6-0.1,3.3-0.2,4.9-0.3
				v1.9c-1.8,0.1-3.1,0.3-4.1,0.6c-1,0.3-1.7,0.8-2.3,1.5c-0.5,0.7-0.9,1.6-1,2.7c-0.1,1.1-0.2,2.6-0.2,4.4v22
				c0,6.7-1.9,11.8-5.7,15.5c-3.8,3.7-9,5.5-15.8,5.5c-4.1,0-7.6-0.5-10.5-1.5c-2.9-1-5.4-2.3-7.3-3.9c-1.9-1.6-3.4-3.4-4.3-5.4
				c-0.9-2-1.4-4-1.4-5.9v-26.3c0-1.4-0.1-2.7-0.2-3.8c-0.2-1.1-0.5-2-1.1-2.8c-0.6-0.8-1.5-1.4-2.7-1.8c-1.2-0.5-2.8-0.7-4.9-0.8
				V697.7z"/>
			<path class="st1" d="M689.5,719c-0.4-2.5-1.1-4.8-2.2-7.1c-1.1-2.3-2.5-4.3-4.2-6c-1.7-1.7-3.5-3.1-5.6-4.2
				c-2.1-1-4.4-1.6-6.9-1.6c-3.2,0-5.9,0.7-8.1,2.2c-2.2,1.4-4,3.3-5.3,5.5c-1.3,2.2-2.3,4.7-2.8,7.4c-0.6,2.7-0.8,5.4-0.8,7.9
				c0,3.3,0.5,6.4,1.4,9.2c0.9,2.8,2.2,5.2,4,7.3c1.8,2.1,4,3.7,6.6,4.8c2.6,1.1,5.7,1.7,9.3,1.7c2.5,0,4.8-0.4,6.9-1.1
				c2.1-0.7,3.9-1.7,5.5-2.9c1.6-1.2,3.1-2.5,4.3-4c1.3-1.5,2.4-2.9,3.3-4.4l1.9,2c-3,5.2-6.8,9.2-11.3,11.9
				c-4.5,2.8-9.8,4.2-15.8,4.2c-4,0-7.7-0.7-11.1-2c-3.4-1.3-6.3-3.2-8.7-5.6c-2.5-2.4-4.4-5.3-5.8-8.7c-1.4-3.4-2.1-7.2-2.1-11.4
				c0-4.2,0.7-7.9,2.2-11.3c1.4-3.4,3.4-6.3,6-8.7c2.6-2.4,5.6-4.3,9.2-5.6c3.6-1.3,7.5-2,11.8-2c1.5,0,3.3,0.2,5.3,0.4
				c2,0.3,4,0.6,5.9,1c1.9,0.4,3.6,0.7,5.1,1c1.4,0.3,2.3,0.4,2.6,0.4c0.4,0,0.7,0,0.9-0.1c0,1.1,0,2.1-0.1,3.1c0,1-0.1,2-0.1,3.1
				c0,2.2,0.1,4.5,0.2,6.7c0.2,2.2,0.4,4.5,0.6,6.7H689.5z"/>
			<path class="st1" d="M694.8,748.7c1.5-0.2,2.7-0.5,3.7-0.9c1-0.5,1.8-1.1,2.5-1.8c0.7-0.7,1.3-1.6,1.8-2.6c0.5-1,1-2.1,1.6-3.4
				l15.7-36.6l-1.4-3.8c1.7-0.3,3.4-0.7,5.1-1.2c1.7-0.5,3.3-1,4.8-1.7l17.4,47.2c0.6,1.7,1.8,3,3.4,3.7c1.6,0.8,3.2,1.2,4.9,1.2
				v1.9c-1-0.1-2.2-0.1-3.5-0.2c-1.3-0.1-2.6-0.1-3.8-0.1c-1.3,0-2.6,0-3.8,0h-3.4c-2.2,0-4.5,0-6.7,0.1c-2.2,0.1-4.5,0.1-6.7,0.3
				v-1.9c2.8-0.2,4.8-0.7,6.2-1.4c1.3-0.7,2-1.7,2-3.1c0-0.5-0.1-1.1-0.3-1.8c-0.2-0.7-0.4-1.5-0.7-2.3c-0.3-0.8-0.6-1.5-0.9-2.3
				c-0.3-0.8-0.5-1.4-0.8-2l-2.7-7.9h-16l-4.1,11.3c-0.3,0.7-0.6,1.5-0.8,2.2c-0.3,0.7-0.4,1.6-0.4,2.6c0,0.6,0.2,1.2,0.7,1.8
				c0.5,0.5,1,1,1.8,1.4c0.7,0.4,1.5,0.7,2.3,1c0.8,0.3,1.6,0.5,2.3,0.6v1.9c-1.7-0.1-3.4-0.2-5.2-0.3c-1.7-0.1-3.5-0.1-5.2-0.1
				c-1.6,0-3.2,0-4.8,0.1c-1.6,0.1-3.2,0.1-4.8,0.3V748.7z M728,724.9l-6.6-18.8h-0.2l-7,18.8H728z"/>
			<path class="st1" d="M755.2,697.7c2.5,0.1,4.9,0.2,7.3,0.3c2.4,0.1,4.8,0.2,7.3,0.2c2.3,0,4.7-0.1,6.9-0.2
				c2.3-0.1,4.6-0.2,6.9-0.3v1.9c-1.8,0.1-3.3,0.3-4.5,0.6c-1.2,0.4-2.1,0.9-2.8,1.5c-0.7,0.7-1.1,1.6-1.4,2.6
				c-0.3,1.1-0.4,2.4-0.4,4v34c0,2.1,0.7,3.6,2,4.6c1.3,1,3.6,1.5,6.9,1.7l-0.2,1.9c-2.4-0.1-4.7-0.2-7-0.3c-2.3-0.1-4.6-0.1-7-0.1
				c-2.4,0-4.8,0-7.2,0.1c-2.4,0.1-4.8,0.1-7.2,0.3v-1.9c3.3-0.2,5.6-0.7,6.9-1.7c1.3-1,2-2.5,2-4.6v-34c0-3.2-0.6-5.4-1.8-6.7
				c-1.2-1.3-3.5-2-6.8-2.1V697.7z"/>
			<path class="st1" d="M787.5,697.9c2,0.1,3.9,0.2,5.8,0.3c1.9,0.1,4.1,0.1,6.5,0.1c2.9,0,5.8-0.1,8.7-0.2c2.9-0.2,5.9-0.2,9.1-0.2
				c2.8,0,5.3,0.4,7.5,1.2c2.2,0.8,4.1,1.9,5.7,3.3c1.6,1.4,2.8,3.1,3.6,4.9c0.8,1.9,1.2,3.9,1.2,6.1c0,1.9-0.3,3.5-0.9,4.9
				c-0.6,1.4-1.5,2.6-2.5,3.7c-1.1,1-2.3,1.9-3.8,2.6c-1.4,0.7-3,1.2-4.7,1.6c1.1,1.8,2.5,4,4.2,6.5c1.7,2.5,3.5,4.9,5.5,7.2
				c2,2.3,4.2,4.4,6.5,6.1c2.3,1.8,4.7,2.9,7.1,3.3v1.4c-1.5-0.1-3.1-0.2-4.5-0.3c-1.5-0.1-3-0.1-4.5-0.1c-1.3,0-2.7,0-4,0.1
				c-1.3,0.1-2.7,0.1-4,0.3c-3.4-3.6-6.5-7.3-9.3-11.2c-2.9-3.9-5.5-8-7.8-12.3c-0.9-0.1-1.9-0.3-3.1-0.5c-1.2-0.2-2-0.5-2.6-1
				l0,13.9c0,1.8,0.1,3.3,0.2,4.4c0.1,1.1,0.5,2,1,2.6c0.6,0.6,1.4,1.1,2.4,1.4c1.1,0.3,2.5,0.5,4.4,0.7v1.9
				c-1.9-0.1-3.9-0.2-6.1-0.3c-2.2-0.1-4.5-0.1-6.8-0.1c-2.5,0-4.9,0-7.3,0.1c-2.4,0.1-4.8,0.1-7.2,0.3v-1.9c2-0.2,3.5-0.4,4.7-0.7
				c1.1-0.3,2-0.8,2.6-1.4c0.6-0.6,0.9-1.5,1.1-2.6c0.2-1.1,0.2-2.6,0.2-4.4v-30.5c0-1.6-0.1-3-0.2-4.1c-0.2-1.1-0.5-2.1-1.1-2.8
				c-0.6-0.8-1.4-1.3-2.6-1.7c-1.2-0.4-2.7-0.7-4.7-0.8V697.9z M806.8,722.6c1.7,0.8,3.5,1.2,5.4,1.2c3.5,0,6.4-1,8.5-3
				c2.2-2,3.3-4.9,3.3-8.6c0-1.6-0.3-3.1-0.8-4.5c-0.5-1.4-1.3-2.6-2.2-3.7c-1-1-2.1-1.9-3.5-2.4c-1.3-0.6-2.8-0.9-4.5-0.9
				c-1.1,0-2.1,0.1-3.1,0.2c-1,0.1-2.1,0.3-3.1,0.7V722.6z"/>
			<path class="st1" d="M845.1,748.7c1.8-0.1,3.3-0.3,4.4-0.7c1.1-0.3,1.9-0.9,2.5-1.6c0.6-0.7,1-1.6,1.2-2.8
				c0.2-1.1,0.3-2.5,0.3-4.1v-30.4c0-1.5-0.1-2.8-0.3-3.9c-0.2-1.1-0.6-2.1-1.2-2.8c-0.6-0.7-1.4-1.3-2.5-1.7
				c-1.1-0.4-2.6-0.6-4.4-0.7v-2.3c2.7,0.1,5.5,0.2,8.2,0.3c2.8,0.1,5.5,0.2,8.2,0.2c5.2,0,10.3-0.1,15.5-0.2
				c5.1-0.1,10.4-0.2,15.7-0.3c0,1-0.1,1.9-0.1,2.9v2.8c0,1.7,0,3.3,0.1,4.9c0.1,1.6,0.2,3.1,0.6,4.4l-1.8,0.3
				c-1.3-4.1-3.3-7.1-6.1-9.2c-2.8-2.1-6.9-3.1-12.2-3.1h-9v19.4h4.2c1.4,0,2.8-0.2,4.1-0.5c1.3-0.3,2.6-0.9,3.7-1.7
				c1.1-0.8,2.2-1.8,3-3.1c0.9-1.3,1.5-2.9,1.9-4.7h1.6c-0.1,1.9-0.1,3.8-0.2,5.7c-0.1,1.9-0.1,3.8-0.1,5.7c0,1.9,0,3.8,0.1,5.7
				c0.1,1.9,0.2,3.8,0.2,5.7h-1.6c-0.4-2-1-3.6-1.8-5c-0.8-1.3-1.7-2.4-2.8-3.2c-1.1-0.8-2.3-1.4-3.7-1.7c-1.4-0.4-2.8-0.5-4.4-0.5
				h-4.2v23.8c1.3,0.4,2.7,0.7,4.3,0.8c1.6,0.2,3.3,0.3,5.3,0.3c5.2,0,10-1.2,14.2-3.7c4.2-2.5,7.8-6.4,10.8-11.6l1.5,1.1
				c-1.3,2.8-2.6,5.7-3.8,8.5c-1.2,2.8-2.3,5.7-3.2,8.7c-4.2-0.1-8.3-0.2-12.4-0.3c-4.1-0.1-8.3-0.1-12.4-0.1h-7.4
				c-2.3,0-4.5,0-6.5,0c-2,0-3.8,0.1-5.4,0.1c-1.6,0.1-2.9,0.1-3.9,0.2V748.7z"/>
			<path class="st1" d="M875.1,598.8c5.5,0,12.2-14,15.1-16.6c3-2.6,7.4-4.8,4.4,3c-3,7.8-11.4,27.3-18.8,27.3
				c-7.4,0-11.4-5.2-18.1-5.2c-6.6,0-20.5,20.5-25.5,25.5c-7.2,7.2-28.8,9.6-27.7-15.1c0,0-66.1,28.8-154,28.8s-78.9-42.9-78.3-46.5
				c0.5-2.8,7.8-7,11.1-1.1c3.3,5.9,26.6,29.2,82.7,29.2s114.8-11.8,138.5-25.8c0,0,5.2-32.5,6.3-38.8c1.1-6.3,4.4-14.4,17-22.5
				c12.6-8.1,58.7-34.7,58.7-34.7s-3.7,8.5-4.4,13.3c0,0-61.7,37.3-62.4,39.5c0,0-5.9,37.7-5.9,42.8c0,5.2,5.3,26.6,22.5,15.1
				c15.5-10.3,19.2-21.4,25.8-21.4C867,595.5,871,598.8,875.1,598.8"/>
			
				<rect x="832.6" y="568.2" transform="matrix(0.7584 -0.6518 0.6518 0.7584 -172.1759 687.9977)" class="st1" width="18.5" height="16.1"/>
			<polygon class="st1" points="486.1,541.2 475.6,529 462.9,539.9 453.6,529 439.5,541 450,553.2 462.7,542.3 472.1,553.2 			"/>
			<polygon class="st1" points="169.8,555.9 159.3,543.7 146.6,554.6 137.2,543.7 123.2,555.8 133.7,567.9 146.4,557 155.8,567.9 
							"/>
			
				<rect x="874.5" y="629.9" transform="matrix(0.7584 -0.6518 0.6518 0.7584 -202.2737 730.1602)" class="st1" width="18.5" height="16.1"/>
			<path class="st1" d="M733.7,545.6c-5.8,2.8-33.2,11.4-32.9,28.7c0.5,7.7,8.4,12.6,8.4,12.6L686.7,600c0,0,11.9,4.4,27.1-6.5
				c15.3-11.1,15.2-19.2,2.1-28.7C715.9,564.7,736.7,554.2,733.7,545.6"/>
			<path class="st1" d="M650.3,546.1c0,0,10.5-21.4,22.4-15.4c3.3,1.6,3.5,10-2.6,17.8c-6.1,7.7-14.3,14.9-24.2,14.9
				c0,0,20.9-15.1,15.7-18.4C659.1,542.9,652.1,544.9,650.3,546.1"/>
			<path class="st1" d="M540.9,513.2l11.2,10.5c0,0-0.4,63-1.4,69.5c-1.1,6.5-14.5,22.5-17,24.3c0,0,3.6-18.1,4-45.6
				C538,544.3,540.9,513.2,540.9,513.2"/>
			<path class="st1" d="M515.5,524.4l13-11.6c0,0-1.4,54-2.2,61.6c-0.7,7.6-2.9,48.9-56.9,56.5c-8.4,1.2-21-5.8-21-5.8
				s-47.5,22.1-105,22.1c-57.6,0-81.9-12.7-83-29.3c-1.1-16.7,2.5-49.6,4-62.7c1.4-13,8.3-41.7,8.3-41.7l8.7,8.3
				c0,0-9.4,68.5-6.9,83.3c2.5,14.9,33.3,23.2,69.2,23.2s96-14.1,96-14.1s-0.9-34.3,24.3-42.7c4.3-1.4,16.7,10.1,16.7,14.1
				s-6.5,19.2-13,26.8c0,0,33,4.3,46.7-18.8L515.5,524.4z M459,591c-10.8,6.5-2.9,19.2-2.9,19.2c4-1.4,11.6-13,11.6-13
				C468.4,594.7,460.8,590,459,591"/>
			<path class="st1" d="M334.4,566.4c0,0,60.5-31.9,67-30.8c6.5,1.1-4.7,9.8-8.3,11.6c-3.6,1.8-59,24.6-59,24.6L334.4,566.4z"/>
			<path class="st1" d="M208,549.3c0,0,4.7,14,15,14.3c10.3,0.2,31.1-2.8,31.1,19.2c0,22-20.8,18.5-20.8,18.5s-30.6,0.5-32.9,0.5
				c-2.3,0-7.7,3-11.4,8.9c-3.7,5.8-27.6,41.4-35.3,50.9c-7.7,9.6-29.4,22-50.2,7l-3.3-2.1c0,0,2.1-5.8,9.6-5.8
				c7.5,0,25,2.3,38.1-13.6c13.1-15.9,35.7-53,47.9-53c0,0-4.9-14.5-4-20.8C192.6,566.8,194.9,557.9,208,549.3 M209.1,587.8l8-13.4
				c0,0-13.7-4.9-13.8-3.3C203,583.2,209.1,587.8,209.1,587.8 M219.2,587.4c-1.9,3.7-0.5,5.8,0.7,5.6c1.2-0.2,12.6,0.9,15.7-6.3
				c3-7.2-4.7-11-7.5-10.7C228.1,575.9,221.1,583.6,219.2,587.4"/>
			<path class="st1" d="M143.5,580.4c0,0,15.9,7.7,16.6,18.9c0.7,11.2-26.3,46-40.9,36.2c-7-4.7,1.6-25.7,1.6-25.7
				S133.5,584.3,143.5,580.4 M131.1,614.7c2.6,1.9,14-1.6,14-4.4c0-2.8-8.9-8.6-8.9-8.6C135.1,601.6,128.6,612.8,131.1,614.7"/>
			<rect x="620.8" y="786.8" class="st0" width="16.5" height="2.8"/>
			<rect x="620.8" y="790.3" class="st0" width="16.5" height="2.8"/>
			<path class="st0" d="M623.8,832.4v-36.2h10.5v29.2h54.3c-6.6-6.6-0.4-15.4,6.5-15.4H716c0.9,0.9-1.8,6-3,6
				c-1.2,0-10.7,0.5-12.1,0.5c-1.4,0-3.5,0.2-3.5,4c0,3.9,3.9,4.9,3.9,4.9h27.6c1.4-5.1,7.7-9.4,15.1-9.4c8.5,0,15.4,5,15.4,11.2
				c0,6.2-6.9,11.2-15.4,11.2c-6.2,0-11.6-2.2-14-6.1H623.8z M747.9,823.6c0-1.3-1.1-2.4-2.4-2.4h-2.9c-1.3,0-2.4,1.1-2.4,2.4v7.1
				c0,1.3,1.1,2.4,2.4,2.4h2.9c1.3,0,2.4-1.1,2.4-2.4V823.6z"/>
			<path class="st0" d="M307.4,832.4c0,4.4-6.9,10.9-12.9,12.1c-3.9,0.8-6-2.3-6-2.3c10.2-4.7,10.4-12,10.4-12v-13.6
				c0,0,1.2-2.6,4.2-2.6c3.8,0,4.3,2.6,4.3,2.6v8.8h54.9v-9.7h8.3v9.7h5.8v-9.7h7.3v9.7h6.1V816h7.8v9.5h18.6
				c1.4-5.1,7.7-9.4,15.1-9.4c8.5,0,15.4,5,15.4,11.2c0,6.2-6.9,11.2-15.4,11.2c-6.2,0-11.6-2.2-14-6.1H307.4z M435.1,823.6
				c0-1.3-1.1-2.4-2.4-2.4h-2.9c-1.3,0-2.4,1.1-2.4,2.4v7.1c0,1.3,1.1,2.4,2.4,2.4h2.9c1.3,0,2.4-1.1,2.4-2.4V823.6z"/>
			<path class="st0" d="M595.1,796.3v29.2h-31.5c0,0-3.9-0.1-3.9-4c0-3.9,2.1-4,3.5-4c1.4,0,10.9-0.5,12.1-0.5c1.2,0,3.9-5.1,3-6
				h-20.9c-6.8,0-13.1,7.9-6.5,14.5h-51.9c-0.8-4.7-4.1-14.5-18.8-14.5c-9,0-14.4,6-14.4,6s-1.5,2,0.3,3.7c1.8,1.8,3.7,0.4,3.7,0.4
				c1.6-1.6,3.5-4.4,10.5-4.4c9.9,0,12.3,5.4,12.9,8.8h-27.8c-2.3,0-2.5,2.5-2.5,3.9c0,1.4,1,3.1,2,3.1h141.2v-36.1H595.1z"/>
			<path class="st0" d="M282,832.4h-21.7c0,0-3.9-18.4,14-18.4c10.1,0,17,3.8,17,13.7c0,12.8-15,17.3-22.8,17.3
				c-6,0-25.5-1.4-25.5-15.5c0-10.4,5.3-12.3,7.5-12.3c2.2,0,4.3,0.5,4.3,2.2c0,1.6-2,2.4-4.3,2.4c-2.3,0-1.6,5-1.6,7.7
				c0,5.7,6.4,8.8,19.6,8.8C281.8,838.4,282,835.8,282,832.4 M268.5,825.5h14.8c0-3-2.3-4.7-8-4.7
				C268.8,820.8,268.5,825.5,268.5,825.5"/>
			<path class="st0" d="M568.2,807.2c0,1.5-1.2,2.7-2.7,2.7s-2.7-1.2-2.7-2.7c0-1.5,1.2-2.7,2.7-2.7S568.2,805.7,568.2,807.2"/>
			<path class="st0" d="M383.5,802.4c0,1.5-1.2,2.7-2.7,2.7c-1.5,0-2.7-1.2-2.7-2.7c0-1.5,1.2-2.7,2.7-2.7
				C382.3,799.7,383.5,800.9,383.5,802.4"/>
			<path class="st0" d="M389.6,809.5c0,1.5-1.2,2.7-2.7,2.7c-1.5,0-2.7-1.2-2.7-2.7c0-1.5,1.2-2.7,2.7-2.7
				C388.4,806.9,389.6,808.1,389.6,809.5"/>
			<path class="st0" d="M377.4,809.5c0,1.5-1.2,2.7-2.7,2.7c-1.5,0-2.7-1.2-2.7-2.7c0-1.5,1.2-2.7,2.7-2.7
				C376.2,806.9,377.4,808.1,377.4,809.5"/>
			<path class="st0" d="M283.6,809.5c0,1.5-1.2,2.7-2.7,2.7c-1.5,0-2.7-1.2-2.7-2.7c0-1.5,1.2-2.7,2.7-2.7
				C282.4,806.9,283.6,808.1,283.6,809.5"/>
			<path class="st0" d="M271.4,809.5c0,1.5-1.2,2.7-2.7,2.7c-1.5,0-2.7-1.2-2.7-2.7c0-1.5,1.2-2.7,2.7-2.7
				C270.2,806.9,271.4,808.1,271.4,809.5"/>
		</g>
	</g>
</g>
</svg>
