<?xml version="1.0" encoding="UTF-8"?>
<svg xmlns="http://www.w3.org/2000/svg" xmlns:xlink="http://www.w3.org/1999/xlink" width="1015.28pt" height="252pt" viewBox="0 0 1015.28 252" version="1.1">
<defs>
<clipPath id="clip1">
  <path d="M 986 59 L 1015.28125 59 L 1015.28125 100 L 986 100 Z M 986 59 "/>
</clipPath>
</defs>
<g id="surface1">
<path style=" stroke:none;fill-rule:nonzero;fill:rgb(34.098816%,34.098816%,34.098816%);fill-opacity:1;" d="M 462.894531 161.632813 C 461.875 161.761719 460.394531 161.824219 458.460938 161.824219 L 454.488281 161.824219 C 456.425781 160.449219 457.835938 159.40625 458.730469 158.691406 C 459.621094 157.980469 460.484375 157.175781 461.324219 156.285156 C 461.964844 157.484375 462.390625 158.40625 462.605469 159.054688 C 462.820313 159.703125 462.929688 160.335938 462.929688 160.945313 C 462.929688 161.25 462.917969 161.480469 462.894531 161.632813 M 467.054688 128.515625 C 466.382813 129.050781 465.582031 130.210938 464.65625 131.992188 C 464.054688 133.136719 463.480469 134.386719 462.929688 135.734375 L 464.421875 138.292969 C 464.421875 141.222656 464.324219 143.277344 464.132813 144.464844 C 463.941406 145.648438 463.414063 147.410156 462.550781 149.753906 C 459.621094 144.507813 456.550781 140.140625 453.34375 136.652344 C 450.136719 133.164063 447.078125 130.871094 444.175781 129.777344 C 442.011719 133.519531 440.929688 136.675781 440.929688 139.25 C 440.929688 140.421875 441.183594 141.375 441.691406 142.113281 C 442.050781 142.597656 442.621094 143.160156 443.410156 143.792969 C 443.996094 144.277344 445.066406 145.042969 446.621094 146.085938 C 447.941406 146.976563 449.546875 148.0625 451.433594 149.332031 C 451.609375 149.179688 451.902344 148.710938 452.3125 147.921875 C 452.566406 147.410156 452.832031 146.890625 453.113281 146.355469 C 455.507813 148.695313 457.683594 151.152344 459.644531 153.726563 C 458.246094 155.230469 456.863281 156.523438 455.5 157.605469 C 454.140625 158.6875 452.796875 159.542969 451.472656 160.179688 C 450.988281 160.410156 450.515625 160.5625 450.058594 160.640625 C 449.625 161.964844 449.121094 164.015625 448.550781 166.789063 C 447.976563 169.566406 447.589844 171.78125 447.382813 173.4375 C 447.5625 173.234375 447.675781 173.132813 447.726563 173.132813 L 466.75 173.132813 C 466.953125 173.105469 467.054688 172.992188 467.054688 172.785156 C 467.054688 172.660156 467.023438 172.5 466.960938 172.308594 C 466.898438 172.117188 466.863281 172.011719 466.863281 171.984375 C 466.863281 169.84375 466.859375 167.730469 466.847656 165.644531 C 466.832031 163.554688 466.800781 162.308594 466.75 161.902344 C 466.292969 159.101563 465.375 156.148438 464 153.039063 C 465.300781 151.003906 466.292969 148.976563 466.980469 146.964844 C 467.667969 144.953125 468.136719 142.699219 468.394531 140.203125 L 470.265625 141.082031 C 470.59375 140.574219 471.613281 138.574219 473.320313 135.085938 C 472.046875 134.269531 470.925781 133.417969 469.960938 132.527344 C 468.40625 131.101563 467.4375 129.765625 467.054688 128.515625 "/>
<path style=" stroke:none;fill-rule:nonzero;fill:rgb(34.098816%,34.098816%,34.098816%);fill-opacity:1;" d="M 521.207031 159.609375 C 520.671875 159.839844 520.136719 159.953125 519.605469 159.953125 C 518.714844 159.953125 517.894531 159.714844 517.160156 159.246094 C 516.421875 158.773438 515.707031 158.003906 515.019531 156.933594 C 515.585938 155.6875 516.277344 154.71875 517.101563 154.03125 C 517.921875 153.34375 518.757813 153 519.605469 153 C 520.410156 153 521.140625 153.585938 521.792969 154.757813 C 522.445313 155.929688 522.773438 157.175781 522.773438 158.5 C 522.265625 159.011719 521.742188 159.378906 521.207031 159.609375 M 521.515625 144.136719 C 520.367188 143.984375 518.757813 145.585938 516.683594 148.929688 C 514.605469 152.28125 513.273438 155.214844 512.6875 157.738281 C 512.230469 159.722656 512.003906 161.671875 512.003906 163.582031 C 512.003906 165.363281 512.203125 166.707031 512.613281 167.609375 C 513.019531 168.515625 513.734375 169.234375 514.753906 169.769531 C 515.644531 170.226563 516.625 170.457031 517.691406 170.457031 C 519.195313 170.457031 520.339844 170.101563 521.132813 169.386719 C 521.488281 169.03125 521.945313 168.242188 522.507813 167.019531 C 522.835938 166.253906 523.183594 165.492188 523.539063 164.726563 L 525.335938 165.222656 C 525.335938 168.304688 523.730469 171.714844 520.519531 175.460938 C 517.414063 179.078125 514.078125 181.597656 510.511719 183.023438 C 508.855469 183.660156 507.175781 184.132813 505.46875 184.4375 C 503.765625 184.742188 501.933594 184.894531 499.96875 184.894531 C 500.757813 185.207031 501.535156 185.527344 502.300781 185.863281 C 504.085938 186.300781 506.304688 186.734375 508.964844 187.160156 C 511.628906 187.585938 513.621094 187.796875 514.941406 187.796875 C 515.605469 187.796875 516.050781 187.75 516.28125 187.644531 C 518.980469 186.855469 521.386719 184.191406 523.5 179.65625 C 525.335938 175.679688 526.53125 171.296875 527.089844 166.503906 C 527.34375 164.386719 527.472656 162.324219 527.472656 160.308594 C 527.472656 155.699219 526.824219 151.824219 525.523438 148.6875 C 524.355469 145.835938 523.015625 144.316406 521.515625 144.136719 "/>
<path style=" stroke:none;fill-rule:nonzero;fill:rgb(34.098816%,34.098816%,34.098816%);fill-opacity:1;" d="M 337.675781 160.984375 L 319.507813 140.5625 L 337.171875 134.105469 C 337.527344 133.085938 337.90625 131.773438 338.3125 130.167969 C 338.722656 128.5625 339.027344 127.210938 339.230469 126.113281 L 318.714844 132.636719 C 317.726563 136.136719 316.976563 138.859375 316.46875 140.800781 C 315.960938 142.742188 315.570313 144.492188 315.289063 146.050781 L 328.769531 160.984375 L 301.71875 160.984375 C 301.71875 155.429688 301.554688 150.011719 301.222656 144.726563 C 300.890625 139.441406 300.40625 134.679688 299.769531 130.453125 C 298.015625 132.695313 296.496094 134.925781 295.222656 137.140625 C 295.222656 139.585938 295.34375 143.03125 295.585938 147.476563 C 295.828125 151.921875 296.085938 156.574219 296.351563 161.441406 C 296.617188 166.304688 296.753906 170.214844 296.753906 173.167969 C 296.753906 173.246094 296.820313 173.269531 296.964844 173.246094 C 297.101563 173.21875 297.289063 173.179688 297.519531 173.128906 L 326.675781 173.128906 C 326.800781 172.953125 327.15625 172.253906 327.742188 171.03125 C 329.523438 167.335938 330.582031 165.132813 330.914063 164.421875 C 332.289063 166.816406 333.675781 169.210938 335.078125 171.601563 C 335.714844 172.621094 336.132813 173.128906 336.335938 173.128906 L 406.628906 173.128906 L 409.605469 170.152344 C 409.605469 171.144531 409.554688 171.960938 409.453125 172.59375 L 409.453125 173.128906 L 417.628906 173.128906 C 417.859375 173.128906 418.136719 172.863281 418.46875 172.328125 C 419.027344 171.414063 419.320313 170.941406 419.347656 170.914063 C 419.933594 171.628906 420.519531 172.328125 421.105469 173.015625 C 421.179688 173.09375 421.269531 173.128906 421.371094 173.128906 L 429.773438 173.128906 C 430.84375 173.128906 431.613281 171.273438 432.085938 167.550781 C 432.554688 163.832031 432.824219 161.722656 432.886719 161.226563 C 432.949219 160.730469 433.007813 159.828125 433.058594 158.515625 C 433.109375 157.203125 433.136719 155.949219 433.136719 154.75 C 433.136719 151.972656 433.058594 149.972656 432.90625 148.75 C 432.421875 149.335938 431.710938 150.460938 430.769531 152.113281 C 430.359375 152.828125 429.761719 153.898438 428.972656 155.328125 L 428.972656 155.859375 C 428.972656 157.085938 428.953125 158.097656 428.914063 158.902344 C 428.878906 159.703125 428.78125 160.398438 428.632813 160.984375 L 422.746094 160.984375 C 422.746094 159.839844 422.921875 158.296875 423.269531 156.359375 C 424.039063 152.085938 424.425781 149.894531 424.425781 149.792969 C 424.070313 150.046875 423.597656 150.683594 423.015625 151.703125 C 422.429688 152.71875 421.585938 154.324219 420.492188 156.515625 L 420.148438 160.984375 L 412.089844 160.984375 C 411.886719 160.398438 411.78125 159.722656 411.78125 158.960938 C 411.78125 158.09375 411.953125 157.011719 412.300781 155.710938 C 412.644531 154.414063 412.867188 153.554688 412.96875 153.132813 C 413.070313 152.714844 413.335938 151.765625 413.769531 150.289063 C 413.972656 149.574219 414.074219 149.078125 414.074219 148.796875 C 413.335938 149.585938 412.457031 150.707031 411.441406 152.160156 C 410.421875 153.609375 409.757813 154.667969 409.453125 155.332031 C 409.300781 156.296875 409.160156 157.164063 409.03125 157.925781 C 408.777344 159.378906 408.535156 160.398438 408.308594 160.984375 L 340.347656 160.984375 "/>
<path style=" stroke:none;fill-rule:nonzero;fill:rgb(34.098816%,34.098816%,34.098816%);fill-opacity:1;" d="M 270.054688 145.855469 L 274.601563 140.234375 C 272.765625 138.960938 271.507813 138.046875 270.820313 137.484375 C 270.640625 137.332031 269.914063 136.644531 268.640625 135.421875 C 267.777344 136.363281 266.859375 137.460938 265.890625 138.710938 C 265.027344 139.828125 264.363281 140.773438 263.90625 141.535156 C 264.539063 142.121094 265.457031 142.824219 266.65625 143.636719 C 267.726563 144.378906 268.855469 145.117188 270.054688 145.855469 "/>
<path style=" stroke:none;fill-rule:nonzero;fill:rgb(34.098816%,34.098816%,34.098816%);fill-opacity:1;" d="M 284.308594 176.277344 C 283.53125 178.921875 282.285156 181.199219 280.566406 183.105469 C 278.882813 184.632813 276.675781 185.878906 273.957031 186.84375 C 271.230469 187.8125 268.394531 188.296875 265.445313 188.296875 C 263.53125 188.296875 261.703125 188.085938 259.949219 187.667969 C 258.199219 187.246094 256.515625 186.566406 254.894531 185.625 C 253.628906 184.886719 252.667969 183.820313 252 182.421875 C 251.335938 181.023438 251.003906 179.40625 251.003906 177.578125 C 251.003906 174.652344 251.796875 171.652344 253.375 168.574219 C 255.085938 165.269531 257.472656 162.40625 260.535156 159.992188 C 259.414063 161.902344 258.5625 163.726563 257.96875 165.472656 C 257.378906 167.214844 257.082031 168.800781 257.082031 170.226563 C 257.082031 171.78125 257.457031 173.09375 258.199219 174.164063 C 259.078125 175.382813 260.429688 176.230469 262.261719 176.703125 C 264.09375 177.171875 266.09375 177.40625 268.265625 177.40625 C 271.183594 177.40625 273.960938 177.066406 276.605469 176.378906 C 279.246094 175.691406 280.890625 174.902344 281.539063 174.007813 C 281.605469 173.90625 281.636719 173.792969 281.636719 173.667969 C 281.636719 171.601563 279.578125 166.777344 275.460938 159.1875 C 276.464844 157.632813 277.4375 156.171875 278.378906 154.796875 C 279.480469 153.191406 280.308594 152.121094 280.859375 151.585938 C 281.894531 152.78125 282.871094 154.90625 283.773438 157.960938 C 284.8125 161.46875 285.332031 164.980469 285.332031 168.492188 C 285.332031 171.390625 284.988281 173.984375 284.308594 176.277344 "/>
<path style=" stroke:none;fill-rule:nonzero;fill:rgb(34.098816%,34.098816%,34.098816%);fill-opacity:1;" d="M 492.992188 161.039063 C 492.917969 162.578125 492.804688 163.769531 492.648438 164.609375 C 492.496094 165.601563 491.910156 167.515625 490.894531 170.34375 C 490.5625 171.28125 490.0625 172.597656 489.402344 174.277344 C 489.402344 171.855469 489.160156 168.433594 488.675781 163.996094 C 488.347656 160.890625 488.015625 157.773438 487.683594 154.636719 C 487.277344 150.691406 487.011719 147.976563 486.882813 146.5 C 486.679688 144.105469 486.574219 142.257813 486.574219 140.960938 C 488.15625 137.75 489.441406 135.203125 490.433594 133.320313 C 491.046875 132.148438 491.515625 131.28125 491.847656 130.722656 C 491.871094 130.722656 492 132.339844 492.230469 135.574219 C 492.460938 138.808594 492.660156 142.210938 492.839844 145.773438 C 493.019531 149.339844 493.109375 152.855469 493.109375 156.320313 C 493.109375 157.925781 493.070313 159.496094 492.992188 161.039063 "/>
<path style=" stroke:none;fill-rule:nonzero;fill:rgb(34.098816%,34.098816%,34.098816%);fill-opacity:1;" d="M 452.765625 187.152344 L 451.484375 189.738281 C 448.480469 190.078125 445.214844 190.808594 442.082031 192.664063 L 441.820313 192.402344 L 442.996094 190.496094 C 443.4375 190.078125 443.910156 189.660156 444.484375 189.449219 L 444.484375 189.320313 C 442.839844 188.746094 441.613281 187.753906 441.613281 186.183594 C 441.613281 184.671875 442.550781 183.363281 443.363281 182.605469 C 444.640625 181.40625 446.46875 180.648438 447.855469 180.648438 C 449.238281 180.648438 450.386719 181.484375 450.386719 182.683594 C 450.386719 183.46875 450.074219 184.28125 449.1875 185.113281 L 449.03125 185.113281 C 448.847656 184.589844 448.535156 183.992188 448.269531 183.652344 C 447.933594 183.234375 447.515625 183.023438 446.886719 183.023438 C 446.105469 183.023438 445.136719 183.417969 444.640625 183.757813 C 444.222656 184.019531 443.910156 184.355469 443.910156 184.671875 C 443.910156 185.269531 444.25 185.871094 444.902344 186.316406 C 445.738281 186.890625 447.019531 187.359375 448.269531 187.359375 C 449.761719 187.359375 451.484375 187.152344 452.660156 186.941406 "/>
<path style=" stroke:none;fill-rule:nonzero;fill:rgb(34.098816%,34.098816%,34.098816%);fill-opacity:1;" d="M 972.507813 160.984375 L 967.65625 160.984375 C 967.070313 160.933594 966.566406 160.460938 966.148438 159.570313 C 965.726563 158.679688 965.515625 157.710938 965.515625 156.667969 C 965.515625 155.523438 965.539063 153.730469 965.59375 151.300781 C 965.644531 148.871094 965.667969 147.460938 965.667969 147.078125 L 965.402344 145.628906 C 964.765625 146.316406 962.96875 148.492188 960.015625 152.160156 C 960.015625 153.941406 960.074219 155.609375 960.1875 157.164063 C 960.300781 158.71875 960.5 159.992188 960.777344 160.984375 L 908.339844 160.984375 C 907.777344 160.984375 907.308594 160.753906 906.925781 160.296875 C 906.542969 159.839844 906.296875 159.117188 906.179688 158.136719 C 906.066406 157.15625 905.839844 154.726563 905.492188 150.839844 C 905.148438 146.960938 904.875 143.3125 904.671875 139.898438 C 904.390625 135.339844 904.25 131.851563 904.25 129.433594 C 903.589844 130.804688 903.066406 131.878906 902.6875 132.640625 C 901.257813 135.570313 900.417969 137.300781 900.164063 137.835938 C 900.164063 138.546875 900.277344 140.070313 900.507813 142.398438 C 900.738281 144.730469 901.003906 147.28125 901.3125 150.058594 C 901.71875 153.703125 902.136719 157.339844 902.570313 160.984375 L 856.789063 160.984375 C 855.390625 160.984375 854.382813 160.082031 853.773438 158.273438 C 853.3125 156.921875 853.082031 155.050781 853.082031 152.65625 C 853.082031 151.484375 853.148438 150.25 853.277344 148.953125 C 853.300781 148.519531 853.363281 147.984375 853.46875 147.347656 C 852.753906 148.796875 852.121094 150.828125 851.574219 153.441406 C 851.027344 156.050781 850.753906 158.601563 850.753906 161.097656 C 850.753906 164.613281 851.261719 167.402344 852.28125 169.464844 C 853.480469 171.90625 855.324219 173.128906 857.820313 173.128906 L 898.292969 173.128906 L 902.53125 165.757813 C 903.042969 168.203125 903.398438 169.882813 903.605469 170.800781 C 903.957031 172.355469 904.390625 173.128906 904.902344 173.128906 L 957.34375 173.128906 C 957.851563 172.238281 958.410156 171.132813 959.023438 169.804688 C 959.378906 169.042969 959.875 167.949219 960.511719 166.523438 C 962.195313 170.925781 963.898438 173.128906 965.632813 173.128906 L 1008.261719 173.128906 C 1009.921875 169.183594 1011.148438 165.453125 1011.96875 161.9375 C 1012.679688 158.832031 1013.03125 155.992188 1013.03125 153.421875 C 1013.03125 150.136719 1012.449219 147.320313 1011.28125 144.980469 C 1010.390625 143.171875 1009.230469 141.796875 1007.800781 140.855469 C 1007.160156 142.050781 1006.429688 143.550781 1005.589844 145.359375 C 1004.640625 147.398438 1003.980469 148.976563 1003.601563 150.097656 C 1004.871094 151.804688 1006.171875 153.554688 1007.480469 155.347656 C 1008.789063 157.144531 1009.449219 158.5 1009.449219 159.417969 C 1009.449219 159.925781 1009.261719 160.316406 1008.890625 160.582031 C 1008.519531 160.851563 1007.890625 160.984375 1007 160.984375 L 973.957031 160.984375 "/>
<path style=" stroke:none;fill-rule:nonzero;fill:rgb(34.098816%,34.098816%,34.098816%);fill-opacity:1;" d="M 998.175781 179.78125 C 997.644531 180.59375 996.980469 181.460938 996.191406 182.375 C 995.246094 183.445313 994.320313 184.511719 993.402344 185.582031 C 993.910156 186.066406 994.574219 186.597656 995.390625 187.183594 C 996.433594 187.921875 997.808594 188.824219 999.515625 189.894531 L 1004.058594 184.285156 C 1002.148438 182.960938 1000.839844 182.03125 1000.128906 181.496094 C 999.3125 180.859375 998.660156 180.289063 998.175781 179.78125 "/>
<path style=" stroke:none;fill-rule:nonzero;fill:rgb(34.098816%,34.098816%,34.098816%);fill-opacity:1;" d="M 878.621094 151.949219 C 879.476563 151.679688 880.171875 151.242188 880.703125 150.632813 C 881.492188 149.792969 882.121094 148.835938 882.597656 147.765625 C 883.066406 146.695313 883.300781 145.617188 883.300781 144.519531 C 883.300781 143.832031 883.214844 143.210938 883.035156 142.648438 C 883.007813 142.546875 882.269531 142.375 880.816406 142.132813 C 879.367188 141.890625 878.019531 141.554688 876.769531 141.121094 C 877.511719 139.746094 878.625 138.652344 880.109375 137.835938 C 880.644531 137.53125 881.820313 137.058594 883.636719 136.421875 C 884.046875 135.683594 884.425781 134.863281 884.769531 133.960938 C 885.117188 133.054688 885.351563 132.257813 885.480469 131.570313 C 883.359375 131.570313 880.714844 133.289063 877.550781 136.726563 C 874.640625 139.886719 872.9375 142.496094 872.453125 144.558594 C 872.25 145.117188 872.644531 145.691406 873.640625 146.277344 C 874.835938 146.988281 876.476563 147.347656 878.566406 147.347656 C 878.566406 149.460938 877.421875 150.734375 875.128906 151.167969 C 874.03125 151.34375 872.949219 151.523438 871.882813 151.699219 C 873.027344 152.136719 874.3125 152.351563 875.738281 152.351563 C 876.808594 152.351563 877.769531 152.21875 878.621094 151.949219 "/>
<path style=" stroke:none;fill-rule:nonzero;fill:rgb(34.098816%,34.098816%,34.098816%);fill-opacity:1;" d="M 955.421875 130.164063 C 956.210938 129.246094 956.871094 128.382813 957.40625 127.566406 C 957.890625 128.074219 958.539063 128.648438 959.355469 129.285156 C 960.070313 129.820313 961.382813 130.753906 963.289063 132.078125 L 958.746094 137.699219 C 957.039063 136.625 955.664063 135.722656 954.617188 134.984375 C 953.804688 134.394531 953.144531 133.859375 952.632813 133.378906 C 953.550781 132.308594 954.480469 131.234375 955.421875 130.164063 "/>
<path style=" stroke:none;fill-rule:nonzero;fill:rgb(34.098816%,34.098816%,34.098816%);fill-opacity:1;" d="M 820.53125 135.574219 C 820.304688 132.339844 820.175781 130.71875 820.148438 130.71875 C 819.820313 131.28125 819.347656 132.148438 818.738281 133.320313 C 817.746094 135.203125 816.457031 137.75 814.878906 140.960938 C 814.878906 142.257813 814.980469 144.105469 815.183594 146.5 C 815.3125 147.976563 815.578125 150.691406 815.988281 154.636719 C 816.316406 157.773438 816.648438 160.890625 816.980469 163.996094 C 817.464844 168.429688 817.707031 171.855469 817.707031 174.277344 C 818.367188 172.59375 818.863281 171.28125 819.195313 170.34375 C 820.214844 167.515625 820.800781 165.601563 820.953125 164.609375 C 821.105469 163.769531 821.21875 162.578125 821.296875 161.039063 C 821.371094 159.496094 821.410156 157.925781 821.410156 156.320313 C 821.410156 152.855469 821.320313 149.339844 821.144531 145.773438 C 820.964844 142.210938 820.761719 138.808594 820.53125 135.574219 "/>
<path style=" stroke:none;fill-rule:nonzero;fill:rgb(34.098816%,34.098816%,34.098816%);fill-opacity:1;" d="M 610.863281 180.199219 C 610.347656 180.679688 609.542969 181.445313 608.449219 182.488281 C 607.191406 183.6875 606.226563 184.667969 605.550781 185.429688 C 601.976563 183.496094 599.1875 181.761719 597.191406 180.234375 L 591.25 186.273438 C 591.957031 186.78125 592.820313 187.316406 593.835938 187.875 C 594.851563 188.433594 596.53125 189.300781 598.882813 190.472656 L 604.054688 185.507813 C 605.40625 186.472656 606.933594 187.417969 608.640625 188.332031 C 608.835938 188.433594 610.21875 189.148438 612.796875 190.472656 L 618.496094 184.894531 C 616.242188 183.675781 614.542969 182.707031 613.398438 181.992188 C 612.257813 181.28125 611.410156 180.679688 610.863281 180.199219 "/>
<path style=" stroke:none;fill-rule:nonzero;fill:rgb(34.098816%,34.098816%,34.098816%);fill-opacity:1;" d="M 760.765625 126.433594 C 760.246094 126.917969 759.441406 127.683594 758.347656 128.726563 C 757.089844 129.921875 756.125 130.902344 755.449219 131.667969 C 751.875 129.730469 749.085938 128 747.089844 126.472656 L 741.148438 132.507813 C 741.855469 133.015625 742.71875 133.550781 743.734375 134.113281 C 744.746094 134.671875 746.429688 135.539063 748.78125 136.710938 L 753.953125 131.742188 C 755.304688 132.710938 756.832031 133.652344 758.539063 134.570313 C 758.734375 134.671875 760.117188 135.386719 762.695313 136.710938 L 768.394531 131.132813 C 766.140625 129.910156 764.441406 128.941406 763.296875 128.230469 C 762.15625 127.515625 761.308594 126.917969 760.765625 126.433594 "/>
<path style=" stroke:none;fill-rule:nonzero;fill:rgb(34.098816%,34.098816%,34.098816%);fill-opacity:1;" d="M 654.617188 158.804688 C 653.847656 158.402344 653.039063 157.925781 652.203125 157.394531 C 652.847656 156.476563 653.636719 155.789063 654.570313 155.332031 C 655.503906 154.871094 656.390625 154.644531 657.226563 154.644531 C 657.773438 154.644531 658.222656 154.746094 658.578125 154.949219 C 659.191406 155.355469 659.699219 156.160156 660.101563 157.355469 C 660.503906 158.550781 660.703125 160.054688 660.703125 161.863281 C 657.421875 160.230469 655.390625 159.214844 654.617188 158.804688 M 797.746094 151.449219 C 797.539063 149.386719 797.4375 148.019531 797.4375 147.359375 L 803.640625 139.730469 C 799.886719 136.675781 797.414063 134.621094 796.226563 133.566406 C 795.039063 132.507813 794.351563 131.726563 794.15625 131.21875 L 793.820313 130.1875 C 792.660156 131.535156 791.632813 132.949219 790.730469 134.429688 C 789.828125 135.90625 789.117188 137.34375 788.601563 138.746094 C 790.632813 141.753906 792.144531 145.558594 793.144531 150.171875 C 793.917969 153.785156 794.304688 157.40625 794.304688 161.023438 L 780.464844 161 L 771.726563 160.984375 L 767.042969 160.984375 C 766.300781 160.933594 765.664063 160.460938 765.132813 159.570313 C 764.601563 158.679688 764.335938 157.710938 764.335938 156.667969 C 764.335938 155.523438 764.367188 153.730469 764.433594 151.300781 C 764.496094 148.867188 764.527344 147.460938 764.527344 147.078125 L 764.191406 145.628906 C 763.386719 146.316406 761.113281 148.492188 757.378906 152.160156 C 757.378906 153.941406 757.453125 155.609375 757.597656 157.164063 C 757.742188 158.71875 757.992188 159.992188 758.347656 160.984375 L 715.683594 160.984375 C 716.433594 159.457031 716.988281 158.316406 717.347656 157.554688 C 718.585938 155.011719 719.257813 153.566406 719.355469 153.207031 C 718.515625 150.285156 717.117188 148.097656 715.167969 146.636719 C 713.214844 145.171875 710.980469 144.445313 708.460938 144.445313 C 706.976563 144.445313 705.453125 144.699219 703.886719 145.203125 C 702.324219 145.710938 700.78125 146.4375 699.265625 147.375 C 699.039063 147.679688 698.554688 148.578125 697.8125 150.078125 C 696.84375 152.003906 696.152344 153.527344 695.730469 154.644531 C 697.371094 154.644531 699.078125 155.101563 700.851563 156.019531 C 703.042969 157.164063 704.796875 158.820313 706.117188 160.984375 L 669.835938 160.984375 C 668.386719 159.53125 666.9375 158.082031 665.488281 156.628906 C 664.101563 154.695313 663.410156 151.765625 663.410156 147.84375 C 663.410156 147.613281 663.242188 147.449219 662.902344 147.347656 C 662.5625 147.246094 662.296875 147.207031 662.105469 147.230469 C 658.878906 147.230469 655.992188 148.265625 653.441406 150.328125 C 650.503906 152.695313 648.296875 156.246094 646.8125 160.984375 L 612.132813 160.984375 C 611.390625 160.933594 610.753906 160.460938 610.222656 159.570313 C 609.691406 158.679688 609.425781 157.710938 609.425781 156.667969 C 609.425781 155.523438 609.457031 153.730469 609.519531 151.300781 C 609.585938 148.867188 609.617188 147.460938 609.617188 147.078125 L 609.28125 145.628906 C 608.476563 146.316406 606.203125 148.492188 602.46875 152.160156 C 602.46875 153.941406 602.542969 155.609375 602.6875 157.164063 C 602.832031 158.71875 603.082031 159.992188 603.433594 160.984375 L 580.015625 160.984375 C 579.101563 157.257813 577.019531 149.636719 574.441406 145.324219 L 569.65625 153.117188 C 574.101563 160.042969 576.195313 164.140625 575.9375 165.414063 C 575.613281 166.738281 574.777344 168.269531 573.425781 169.996094 C 571.75 172.164063 569.722656 173.921875 567.339844 175.269531 C 564.3125 176.972656 561.058594 177.828125 557.578125 177.828125 C 556.035156 177.828125 554.515625 177.695313 553.015625 177.425781 C 551.515625 177.160156 549.867188 176.707031 548.0625 176.074219 C 550.605469 177.855469 553.65625 179.585938 557.230469 181.269531 C 561.28125 183.175781 564.191406 184.132813 565.960938 184.132813 C 569.6875 184.132813 573.097656 181.6875 576.1875 176.796875 C 576.960938 175.574219 577.621094 174.351563 578.1875 173.128906 L 599.089844 173.128906 C 599.730469 172.238281 600.4375 171.132813 601.214844 169.804688 C 601.664063 169.042969 602.292969 167.949219 603.097656 166.523438 C 605.222656 170.925781 607.378906 173.128906 609.570313 173.128906 L 634.472656 173.128906 L 642.730469 173.015625 C 642.828125 172.992188 643.023438 172.785156 643.3125 172.40625 C 643.765625 171.257813 644.269531 170.167969 644.835938 169.140625 C 645.398438 168.109375 646.164063 167.132813 647.128906 166.21875 C 650.285156 168.300781 653.46875 170.375 656.671875 172.4375 C 659.878906 174.496094 662.21875 175.859375 663.703125 176.519531 C 664.019531 176.191406 664.304688 175.765625 664.546875 175.246094 C 664.789063 174.722656 665.070313 174.019531 665.390625 173.128906 L 705.246094 173.128906 L 708.195313 166.292969 C 709.097656 167.667969 710.015625 169.234375 710.949219 170.992188 C 711.238281 171.550781 711.59375 172.265625 712.011719 173.128906 L 753.996094 173.128906 C 754.640625 172.238281 755.347656 171.132813 756.121094 169.804688 C 756.574219 169.042969 757.203125 167.949219 758.007813 166.523438 C 760.132813 170.925781 762.289063 173.128906 764.480469 173.128906 L 794.738281 173.128906 C 795.929688 173.128906 796.671875 172.59375 796.960938 171.527344 C 797.410156 168.644531 797.929688 165.394531 798.507813 161.773438 C 798.507813 160.269531 798.421875 158.5625 798.253906 156.652344 C 798.253906 156.574219 798.082031 154.839844 797.746094 151.449219 "/>
<path style=" stroke:none;fill-rule:nonzero;fill:rgb(37.998962%,66.299438%,27.099609%);fill-opacity:1;" d="M 285.765625 99.144531 L 277.515625 99.144531 L 277.515625 82.628906 L 260.148438 82.628906 L 260.148438 99.144531 L 251.894531 99.144531 L 251.894531 59.867188 L 260.148438 59.867188 L 260.148438 75.851563 L 277.515625 75.851563 L 277.515625 59.867188 L 285.765625 59.867188 "/>
<path style=" stroke:none;fill-rule:nonzero;fill:rgb(37.998962%,66.299438%,27.099609%);fill-opacity:1;" d="M 312.277344 84.601563 C 312.277344 78.347656 309.550781 75.125 305.261719 75.125 C 300.941406 75.125 298.214844 78.347656 298.214844 84.601563 C 298.214844 90.859375 300.941406 94.042969 305.261719 94.042969 C 309.550781 94.042969 312.277344 90.859375 312.277344 84.601563 M 320.121094 84.601563 C 320.121094 93.929688 314.449219 99.824219 305.261719 99.824219 C 296.023438 99.824219 290.367188 93.929688 290.367188 84.601563 C 290.367188 75.257813 296.023438 69.339844 305.261719 69.339844 C 314.449219 69.339844 320.121094 75.257813 320.121094 84.601563 "/>
<path style=" stroke:none;fill-rule:nonzero;fill:rgb(37.998962%,66.299438%,27.099609%);fill-opacity:1;" d="M 343.828125 95.273438 C 341.84375 98.09375 338.789063 99.824219 334.628906 99.824219 C 329.054688 99.824219 324.382813 96.589844 324.382813 89.199219 L 324.382813 70.019531 L 332.078125 70.019531 L 332.078125 87.222656 C 332.078125 91.914063 334.023438 93.605469 337.53125 93.605469 C 340.734375 93.605469 343.714844 91.066406 343.714844 85.878906 L 343.714844 70.019531 L 351.410156 70.019531 L 351.410156 99.144531 L 344.046875 99.144531 L 344.046875 95.273438 "/>
<path style=" stroke:none;fill-rule:nonzero;fill:rgb(37.998962%,66.299438%,27.099609%);fill-opacity:1;" d="M 374.273438 78.828125 C 373.660156 75.960938 371.34375 74.460938 368.53125 74.460938 C 365.738281 74.460938 363.773438 75.675781 363.773438 77.90625 C 363.773438 80.011719 365.898438 80.597656 368.882813 81.109375 L 371.859375 81.570313 C 377.078125 82.449219 382.136719 84.007813 382.136719 90.515625 C 382.136719 96.878906 376.355469 99.824219 368.769531 99.824219 C 361.148438 99.824219 355.90625 96.339844 354.917969 90.671875 L 362.097656 89.648438 C 362.800781 93.117188 365.253906 94.722656 368.859375 94.722656 C 372.117188 94.722656 374.292969 93.269531 374.292969 90.835938 C 374.292969 88.773438 372.109375 87.949219 368.820313 87.402344 L 365.636719 86.886719 C 360.96875 86.136719 356.046875 84.480469 356.046875 78.234375 C 356.046875 72.683594 361.683594 69.339844 368.511719 69.339844 C 375.296875 69.339844 380.453125 72.785156 381.359375 77.847656 "/>
<path style=" stroke:none;fill-rule:nonzero;fill:rgb(37.998962%,66.299438%,27.099609%);fill-opacity:1;" d="M 393.8125 99.144531 L 386.117188 99.144531 L 386.117188 70.019531 L 393.8125 70.019531 Z M 393.8125 65.921875 L 386.117188 65.921875 L 386.117188 59.316406 L 393.8125 59.316406 Z M 393.8125 65.921875 "/>
<path style=" stroke:none;fill-rule:nonzero;fill:rgb(37.998962%,66.299438%,27.099609%);fill-opacity:1;" d="M 407.160156 73.894531 C 409.144531 71.074219 412.195313 69.339844 416.355469 69.339844 C 421.929688 69.339844 426.605469 72.578125 426.605469 79.96875 L 426.605469 99.144531 L 418.910156 99.144531 L 418.910156 81.945313 C 418.910156 77.253906 416.964844 75.5625 413.457031 75.5625 C 410.253906 75.5625 407.273438 78.097656 407.273438 83.289063 L 407.273438 99.144531 L 399.574219 99.144531 L 399.574219 70.019531 L 406.9375 70.019531 L 406.9375 73.894531 "/>
<path style=" stroke:none;fill-rule:nonzero;fill:rgb(37.998962%,66.299438%,27.099609%);fill-opacity:1;" d="M 452.046875 83.464844 C 452.046875 78.453125 449.316406 75.21875 445.136719 75.21875 C 440.902344 75.21875 438.191406 78.453125 438.191406 83.464844 C 438.191406 88.550781 440.902344 91.835938 445.136719 91.835938 C 449.316406 91.835938 452.046875 88.550781 452.046875 83.464844 M 459.320313 96.953125 C 459.320313 106.582031 452.921875 109.945313 444.839844 109.945313 C 438.003906 109.945313 432.410156 107.230469 430.59375 100.414063 L 438.1875 99.492188 C 439.152344 102.878906 441.398438 104.207031 444.839844 104.207031 C 448.960938 104.207031 451.621094 102.117188 451.621094 96.738281 L 451.621094 93.933594 L 451.402344 93.933594 C 449.746094 96.269531 446.871094 97.625 442.851563 97.625 C 435.679688 97.625 430.347656 92.148438 430.347656 83.464844 C 430.347656 74.832031 435.679688 69.339844 442.984375 69.339844 C 446.730469 69.339844 449.984375 70.574219 451.734375 73.496094 L 451.957031 73.496094 L 451.957031 70.019531 L 459.320313 70.019531 "/>
<path style=" stroke:none;fill-rule:nonzero;fill:rgb(37.998962%,66.299438%,27.099609%);fill-opacity:1;" d="M 487.550781 68.554688 C 487.550781 70.101563 488.460938 71.367188 490.738281 73.828125 L 491.871094 73.28125 C 494.566406 71.96875 496.183594 70.753906 496.183594 68.554688 C 496.183594 66.523438 494.746094 64.410156 491.867188 64.410156 C 488.984375 64.410156 487.550781 66.523438 487.550781 68.554688 Z M 490.234375 93.972656 C 493.25 93.972656 495.761719 92.761719 497.683594 90.789063 L 488.566406 81.164063 L 487.867188 81.546875 C 484.6875 83.289063 482.976563 85.414063 482.976563 88.183594 C 482.976563 91.742188 485.792969 93.972656 490.234375 93.972656 Z M 502.046875 95.394531 C 498.839844 98.289063 494.71875 99.882813 490.234375 99.882813 C 482.4375 99.882813 475.324219 96.183594 475.324219 88.425781 C 475.324219 83.179688 478.277344 79.847656 483.316406 77.40625 L 484.53125 76.824219 C 481.285156 73.09375 480.292969 70.84375 480.292969 68.175781 C 480.292969 62.96875 485.070313 58.984375 491.867188 58.984375 C 498.660156 58.984375 503.4375 62.96875 503.4375 68.175781 C 503.4375 72.378906 500.351563 74.734375 496.5 76.835938 L 494.578125 77.886719 L 501.121094 84.773438 C 501.703125 82.898438 502.007813 80.855469 502.007813 78.777344 L 508.667969 78.777344 C 508.667969 83.113281 507.738281 86.910156 506.125 90.042969 L 514.769531 99.144531 L 505.597656 99.144531 "/>
<path style=" stroke:none;fill-rule:nonzero;fill:rgb(37.998962%,66.299438%,27.099609%);fill-opacity:1;" d="M 544.878906 92.601563 C 552.71875 92.601563 557.308594 88.757813 557.308594 79.507813 C 557.308594 70.257813 552.71875 66.410156 544.878906 66.410156 L 538.765625 66.410156 L 538.765625 92.601563 Z M 546.097656 59.867188 C 557.742188 59.867188 565.710938 66.136719 565.710938 79.507813 C 565.710938 92.878906 557.742188 99.144531 546.097656 99.144531 L 530.511719 99.144531 L 530.511719 59.867188 "/>
<path style=" stroke:none;fill-rule:nonzero;fill:rgb(37.998962%,66.299438%,27.099609%);fill-opacity:1;" d="M 576.703125 81.261719 L 589.984375 81.261719 C 589.699219 77.671875 587.453125 74.699219 583.316406 74.699219 C 579.230469 74.699219 576.988281 77.671875 576.703125 81.261719 M 597.589844 90.5 C 596.445313 94.621094 592.574219 99.824219 583.351563 99.824219 C 574.402344 99.824219 568.765625 93.890625 568.765625 84.636719 C 568.765625 75.292969 574.238281 69.339844 583.316406 69.339844 C 592.449219 69.339844 598.5625 75.328125 597.832031 86.230469 L 576.613281 86.230469 C 576.71875 91.050781 579.304688 94.371094 583.355469 94.371094 C 587.566406 94.371094 589.183594 91.761719 589.742188 89.863281 "/>
<path style=" stroke:none;fill-rule:nonzero;fill:rgb(37.998962%,66.299438%,27.099609%);fill-opacity:1;" d="M 608.878906 99.144531 L 598.289063 70.019531 L 606.632813 70.019531 L 613.402344 90.664063 L 613.621094 90.664063 L 620.441406 70.019531 L 628.621094 70.019531 L 617.941406 99.144531 "/>
<path style=" stroke:none;fill-rule:nonzero;fill:rgb(37.998962%,66.299438%,27.099609%);fill-opacity:1;" d="M 636.992188 81.261719 L 650.273438 81.261719 C 649.988281 77.671875 647.746094 74.699219 643.605469 74.699219 C 639.519531 74.699219 637.277344 77.671875 636.992188 81.261719 M 657.878906 90.5 C 656.734375 94.621094 652.863281 99.824219 643.644531 99.824219 C 634.691406 99.824219 629.054688 93.890625 629.054688 84.636719 C 629.054688 75.292969 634.53125 69.339844 643.605469 69.339844 C 652.738281 69.339844 658.855469 75.328125 658.121094 86.230469 L 636.902344 86.230469 C 637.011719 91.050781 639.59375 94.371094 643.644531 94.371094 C 647.855469 94.371094 649.472656 91.761719 650.03125 89.863281 "/>
<path style=" stroke:none;fill-rule:nonzero;fill:rgb(37.998962%,66.299438%,27.099609%);fill-opacity:1;" d="M 662.40625 99.144531 L 670.101563 99.144531 L 670.101563 59.316406 L 662.40625 59.316406 Z M 662.40625 99.144531 "/>
<path style=" stroke:none;fill-rule:nonzero;fill:rgb(37.998962%,66.299438%,27.099609%);fill-opacity:1;" d="M 696.234375 84.601563 C 696.234375 78.347656 693.507813 75.125 689.21875 75.125 C 684.898438 75.125 682.171875 78.347656 682.171875 84.601563 C 682.171875 90.859375 684.898438 94.042969 689.21875 94.042969 C 693.507813 94.042969 696.234375 90.859375 696.234375 84.601563 M 704.078125 84.601563 C 704.078125 93.929688 698.40625 99.824219 689.21875 99.824219 C 679.980469 99.824219 674.328125 93.929688 674.328125 84.601563 C 674.328125 75.257813 679.980469 69.339844 689.21875 69.339844 C 698.40625 69.339844 704.078125 75.257813 704.078125 84.601563 "/>
<path style=" stroke:none;fill-rule:nonzero;fill:rgb(37.998962%,66.299438%,27.099609%);fill-opacity:1;" d="M 715.609375 84.585938 C 715.609375 90.722656 718.410156 93.945313 722.695313 93.945313 C 727.039063 93.945313 729.820313 90.722656 729.820313 84.585938 C 729.820313 78.460938 727.039063 75.242188 722.695313 75.242188 C 718.410156 75.242188 715.609375 78.460938 715.609375 84.585938 M 724.984375 99.828125 C 720.890625 99.828125 717.945313 98.359375 716.253906 95.746094 L 716.035156 95.746094 L 716.035156 109.269531 L 708.339844 109.269531 L 708.339844 70.019531 L 715.699219 70.019531 L 715.699219 73.824219 L 715.921875 73.824219 C 717.710938 70.664063 721.035156 69.339844 724.847656 69.339844 C 732.261719 69.339844 737.664063 75.238281 737.664063 84.5625 C 737.664063 93.910156 732.261719 99.824219 724.984375 99.824219 "/>
<path style=" stroke:none;fill-rule:nonzero;fill:rgb(37.998962%,66.299438%,27.099609%);fill-opacity:1;" d="M 776.605469 69.34375 C 781.855469 69.34375 786.363281 72.578125 786.363281 79.96875 L 786.363281 99.148438 L 778.667969 99.148438 L 778.667969 81.945313 C 778.667969 77.253906 776.8125 75.558594 773.632813 75.558594 C 770.664063 75.558594 767.976563 78.097656 767.976563 83.289063 L 767.976563 99.148438 L 760.28125 99.148438 L 760.28125 81.945313 C 760.28125 77.253906 758.445313 75.558594 755.265625 75.558594 C 752.296875 75.558594 749.589844 78.097656 749.589844 83.289063 L 749.589844 99.148438 L 741.894531 99.148438 L 741.894531 70.019531 L 749.253906 70.019531 L 749.253906 73.929688 L 749.476563 73.929688 C 751.460938 71.109375 754.3125 69.34375 758.21875 69.34375 C 761.808594 69.34375 765.03125 70.847656 766.714844 74.171875 C 769.085938 71.402344 771.90625 69.339844 776.605469 69.339844 "/>
<path style=" stroke:none;fill-rule:nonzero;fill:rgb(37.998962%,66.299438%,27.099609%);fill-opacity:1;" d="M 798.003906 81.261719 L 811.285156 81.261719 C 810.996094 77.671875 808.753906 74.699219 804.617188 74.699219 C 800.53125 74.699219 798.285156 77.671875 798.003906 81.261719 M 818.890625 90.5 C 817.742188 94.621094 813.871094 99.824219 804.652344 99.824219 C 795.699219 99.824219 790.0625 93.890625 790.0625 84.636719 C 790.0625 75.292969 795.539063 69.339844 804.617188 69.339844 C 813.746094 69.339844 819.863281 75.328125 819.132813 86.230469 L 797.910156 86.230469 C 798.019531 91.050781 800.605469 94.371094 804.652344 94.371094 C 808.863281 94.371094 810.480469 91.761719 811.042969 89.863281 "/>
<path style=" stroke:none;fill-rule:nonzero;fill:rgb(37.998962%,66.299438%,27.099609%);fill-opacity:1;" d="M 830.996094 73.894531 C 832.980469 71.074219 836.035156 69.339844 840.195313 69.339844 C 845.769531 69.339844 850.445313 72.578125 850.445313 79.96875 L 850.445313 99.144531 L 842.746094 99.144531 L 842.746094 81.945313 C 842.746094 77.253906 840.804688 75.5625 837.296875 75.5625 C 834.089844 75.5625 831.109375 78.097656 831.109375 83.289063 L 831.109375 99.144531 L 823.414063 99.144531 L 823.414063 70.019531 L 830.777344 70.019531 L 830.777344 73.894531 "/>
<path style=" stroke:none;fill-rule:nonzero;fill:rgb(37.998962%,66.299438%,27.099609%);fill-opacity:1;" d="M 868.144531 93.632813 C 869.40625 93.632813 870.445313 93.453125 871.085938 93.253906 L 871.085938 99.148438 C 870.183594 99.480469 867.992188 99.824219 865.992188 99.824219 C 860.171875 99.824219 857.527344 98.175781 857.527344 92.386719 L 857.527344 75.203125 L 852.894531 75.203125 L 852.894531 70.019531 L 857.527344 70.019531 L 857.527344 61.902344 L 865.222656 61.902344 L 865.222656 70.019531 L 871.296875 70.019531 L 871.296875 75.203125 L 865.222656 75.203125 L 865.222656 90.964844 C 865.222656 93.210938 866.121094 93.632813 868.144531 93.632813 "/>
<path style=" stroke:none;fill-rule:nonzero;fill:rgb(37.998962%,66.299438%,27.099609%);fill-opacity:1;" d="M 905.734375 92.605469 C 909.804688 92.605469 911.914063 90.605469 911.914063 87.265625 C 911.914063 83.921875 909.804688 81.921875 905.734375 81.921875 L 895.933594 81.921875 L 895.933594 92.605469 Z M 905.058594 76.113281 C 908.804688 76.113281 910.75 74.273438 910.75 71.183594 C 910.75 68.09375 908.804688 66.253906 905.058594 66.253906 L 895.933594 66.253906 L 895.933594 76.113281 Z M 906.632813 59.863281 C 914.546875 59.863281 919.015625 64.117188 919.015625 70.496094 C 919.015625 74.117188 917.257813 76.753906 914.039063 78.164063 L 914.039063 78.386719 C 917.878906 79.890625 920.316406 82.910156 920.316406 87.621094 C 920.316406 94.710938 915.664063 99.144531 907.390625 99.144531 L 887.679688 99.144531 L 887.679688 59.863281 "/>
<path style=" stroke:none;fill-rule:nonzero;fill:rgb(37.998962%,66.299438%,27.099609%);fill-opacity:1;" d="M 941.410156 84.835938 C 940.527344 85.609375 938.113281 86.03125 935.480469 86.414063 C 932.816406 86.839844 930.734375 88.171875 930.734375 90.824219 C 930.734375 93.117188 932.261719 94.519531 934.679688 94.519531 C 937.609375 94.519531 941.410156 92.574219 941.410156 87.820313 Z M 951.550781 93.425781 L 951.550781 99.144531 C 950.898438 99.351563 949.507813 99.519531 948.039063 99.519531 C 944.722656 99.519531 942.695313 98.5625 941.839844 96.128906 L 941.621094 96.128906 C 939.757813 98.609375 936.179688 99.824219 932.6875 99.824219 C 927.375 99.824219 922.890625 96.601563 922.890625 91.191406 C 922.890625 84.9375 927.0625 82.609375 934.535156 81.703125 C 939.996094 81.019531 941.410156 80.164063 941.410156 78.425781 C 941.410156 76.242188 939.925781 74.851563 936.710938 74.851563 C 934.140625 74.851563 931.929688 76.257813 931.078125 79.167969 L 923.953125 78.09375 C 925.183594 72.59375 930.132813 69.34375 936.855469 69.34375 C 945.453125 69.34375 949.105469 73.222656 949.105469 78.761719 L 949.105469 91.921875 C 949.105469 93.351563 949.628906 93.625 950.402344 93.625 C 950.714844 93.625 951.207031 93.550781 951.550781 93.425781 "/>
<path style=" stroke:none;fill-rule:nonzero;fill:rgb(37.998962%,66.299438%,27.099609%);fill-opacity:1;" d="M 962.082031 73.894531 C 964.066406 71.074219 967.117188 69.339844 971.277344 69.339844 C 976.851563 69.339844 981.527344 72.578125 981.527344 79.96875 L 981.527344 99.144531 L 973.832031 99.144531 L 973.832031 81.945313 C 973.832031 77.253906 971.886719 75.5625 968.378906 75.5625 C 965.175781 75.5625 962.195313 78.097656 962.195313 83.289063 L 962.195313 99.144531 L 954.496094 99.144531 L 954.496094 70.019531 L 961.863281 70.019531 L 961.863281 73.894531 "/>
<g clip-path="url(#clip1)" clip-rule="nonzero">
<path style=" stroke:none;fill-rule:nonzero;fill:rgb(37.998962%,66.299438%,27.099609%);fill-opacity:1;" d="M 994.648438 99.144531 L 986.953125 99.144531 L 986.953125 59.316406 L 994.648438 59.316406 L 994.648438 81.316406 L 1005.191406 70.019531 L 1014.058594 70.019531 L 1003.171875 81.210938 L 1015.289063 99.144531 L 1006.359375 99.144531 L 997.9375 86.328125 L 994.648438 89.683594 "/>
</g>
<path style=" stroke:none;fill-rule:nonzero;fill:rgb(34.098816%,34.098816%,34.098816%);fill-opacity:1;" d="M 54.796875 230.4375 C 53.613281 229.464844 51.820313 228.976563 49.421875 228.976563 C 46.011719 228.976563 42.84375 230.160156 39.917969 232.527344 L 39.917969 245.578125 C 40.964844 246.378906 42.25 247.066406 43.78125 247.640625 C 45.3125 248.214844 46.964844 248.5 48.742188 248.5 C 51.28125 248.5 53.222656 248.015625 54.5625 247.039063 C 55.902344 246.066406 56.574219 244.605469 56.574219 242.65625 L 56.574219 235.191406 C 56.574219 232.996094 55.980469 231.414063 54.796875 230.4375 M 62.003906 234.773438 L 62.003906 242.082031 C 62.003906 245.316406 60.878906 247.78125 58.636719 249.46875 C 56.390625 251.15625 53.492188 252 49.941406 252 C 47.714844 252 45.722656 251.679688 43.964844 251.035156 C 42.207031 250.390625 40.789063 249.5625 39.710938 248.554688 L 39.03125 251.6875 L 34.542969 251.6875 L 34.542969 214.097656 L 39.96875 214.097656 L 39.96875 229.238281 C 41.328125 228.125 42.964844 227.175781 44.878906 226.394531 C 46.792969 225.609375 48.949219 225.21875 51.351563 225.21875 C 54.625 225.21875 57.21875 225.964844 59.132813 227.460938 C 61.046875 228.960938 62.003906 231.394531 62.003906 234.773438 "/>
<path style=" stroke:none;fill-rule:nonzero;fill:rgb(34.098816%,34.098816%,34.098816%);fill-opacity:1;" d="M 78.449219 248.449219 C 80.574219 248.449219 82.328125 248.265625 83.722656 247.902344 C 85.113281 247.535156 86.332031 247.023438 87.375 246.363281 L 87.375 240.203125 C 86.296875 239.820313 85.105469 239.53125 83.800781 239.339844 C 82.496094 239.148438 80.746094 239.054688 78.554688 239.054688 C 76.394531 239.054688 74.722656 239.183594 73.542969 239.445313 C 72.359375 239.707031 71.523438 240.132813 71.035156 240.722656 C 70.546875 241.316406 70.304688 242.113281 70.304688 243.125 L 70.304688 244.480469 C 70.304688 245.976563 71.050781 247.011719 72.550781 247.589844 C 74.046875 248.164063 76.011719 248.449219 78.449219 248.449219 M 91.632813 229.03125 C 92.414063 230.28125 92.804688 231.933594 92.804688 233.988281 L 92.804688 251.6875 L 88.054688 251.6875 L 87.375 249.285156 C 85.011719 251.09375 81.460938 252 76.726563 252 C 68.859375 252 64.925781 249.5625 64.925781 244.691406 L 64.925781 242.8125 C 64.925781 240.304688 65.894531 238.496094 67.824219 237.382813 C 69.757813 236.269531 72.984375 235.710938 77.511719 235.710938 C 79.945313 235.710938 81.859375 235.824219 83.25 236.050781 C 84.644531 236.277344 86.019531 236.617188 87.375 237.070313 L 87.375 233.675781 C 87.375 232.527344 87.160156 231.605469 86.722656 230.90625 C 86.289063 230.210938 85.453125 229.664063 84.21875 229.261719 C 82.980469 228.863281 81.179688 228.664063 78.816406 228.664063 C 75.996094 228.664063 73.992188 228.984375 72.808594 229.628906 C 71.628906 230.273438 71.035156 231.429688 71.035156 233.101563 L 65.917969 233.101563 L 65.917969 232.527344 C 65.917969 230.785156 66.34375 229.378906 67.199219 228.296875 C 68.050781 227.21875 69.425781 226.425781 71.324219 225.921875 C 73.21875 225.417969 75.769531 225.164063 78.96875 225.164063 C 82.625 225.164063 85.453125 225.496094 87.453125 226.15625 C 89.457031 226.820313 90.847656 227.777344 91.632813 229.03125 "/>
<path style=" stroke:none;fill-rule:nonzero;fill:rgb(34.098816%,34.098816%,34.098816%);fill-opacity:1;" d="M 124.027344 233.621094 L 124.027344 251.6875 L 118.597656 251.6875 L 118.597656 234.511719 C 118.597656 232.457031 118.050781 231.011719 116.953125 230.179688 C 115.855469 229.34375 114.210938 228.925781 112.019531 228.925781 C 108.46875 228.925781 105.265625 230.039063 102.414063 232.265625 L 102.414063 251.6875 L 96.984375 251.6875 L 96.984375 225.582031 L 101.316406 225.582031 L 102.046875 229.238281 C 103.371094 228.125 105.007813 227.15625 106.953125 226.339844 C 108.902344 225.523438 111.183594 225.113281 113.792969 225.113281 C 116.960938 225.113281 119.460938 225.792969 121.285156 227.148438 C 123.113281 228.507813 124.027344 230.664063 124.027344 233.621094 "/>
<path style=" stroke:none;fill-rule:nonzero;fill:rgb(34.098816%,34.098816%,34.098816%);fill-opacity:1;" d="M 148.199219 251.6875 L 139.117188 238.949219 L 133.632813 238.949219 L 133.632813 251.6875 L 128.203125 251.6875 L 128.203125 214.097656 L 133.632813 214.097656 L 133.632813 235.34375 L 138.960938 235.34375 L 147.886719 225.582031 L 153.890625 225.582031 L 143.136719 236.808594 L 154.257813 251.6875 "/>
<path style=" stroke:none;fill-rule:nonzero;fill:rgb(37.998962%,66.299438%,27.099609%);fill-opacity:1;" d="M 87.605469 210.421875 L 87.605469 106.5 L 26.195313 68.710938 L 93.617188 31.347656 L 93.617188 0 L 0 54.109375 L 0 158.890625 L 27.914063 174.992188 L 27.054688 101.40625 L 61.839844 121.09375 L 61.839844 195.394531 "/>
<path style=" stroke:none;fill-rule:nonzero;fill:rgb(34.098816%,34.098816%,34.098816%);fill-opacity:1;" d="M 159.664063 145.585938 L 125.394531 166.957031 L 125.394531 121.09375 L 160.179688 101.40625 Z M 93.617188 0 L 93.617188 31.347656 L 161.039063 68.710938 L 99.628906 106.5 L 99.628906 210.421875 L 125.394531 195.394531 L 159.320313 174.992188 L 187.234375 158.890625 L 187.234375 54.109375 "/>
<path style=" stroke:none;fill-rule:nonzero;fill:rgb(34.098816%,34.098816%,34.098816%);fill-opacity:1;" d="M 209.777344 234.363281 L 212.355469 234.363281 L 212.355469 17.285156 L 209.777344 17.285156 Z M 209.777344 234.363281 "/>
</g>
</svg>
