<?xml version="1.0" encoding="utf-8"?>
<!-- Generator: Adobe Illustrator 22.0.1, SVG Export Plug-In . SVG Version: 6.00 Build 0)  -->
<svg version="1.1" id="Layer_1" xmlns="http://www.w3.org/2000/svg" xmlns:xlink="http://www.w3.org/1999/xlink" x="0px" y="0px"
	 viewBox="0 0 1000 1000" style="enable-background:new 0 0 1000 1000;" xml:space="preserve">
<style type="text/css">
	.st0{fill:url(#path9_1_);}
	.st1{fill:#1A4794;}
</style>
<g id="Layer1000_6_">
	
		<radialGradient id="path9_1_" cx="194.9885" cy="894.5975" r="0.8363" gradientTransform="matrix(182.4958 0 0 -87.9004 -35068.707 79147.3984)" gradientUnits="userSpaceOnUse">
		<stop  offset="0" style="stop-color:#FFDB00"/>
		<stop  offset="1" style="stop-color:#E84D11"/>
	</radialGradient>
	<path id="path9_3_" class="st0" d="M355.1,545.6c56.2-26.6,111.7-25,166.7,0C469.8,573.2,414.1,571.5,355.1,545.6z M627.6,505.8
		c-7.1,18.5-21.9,24.6-42,20.9C593.6,508.9,608,502,627.6,505.8L627.6,505.8z M608.6,468.3c-0.4,25.6-12.3,41.2-35.6,47.1
		C571.9,490,584,474.2,608.6,468.3z M561.2,442.4c15.3,26.2,13.2,50.1-3.9,71.9C539.9,489.6,541.1,465.3,561.2,442.4z M496.6,434.4
		c32.8,21.7,46.1,49.7,42.7,83.1C507.4,498.8,493.2,470.7,496.6,434.4z M416.6,466c50.7,1.1,88,23.5,114.1,63.4
		C481.7,531.3,444,509.2,416.6,466L416.6,466z"/>
	<path id="path11_2_" class="st1" d="M100.3,525.2v-29.3c8.8-3.6,17-3.8,24.7-0.4c8.6-4.2,22.1-2.8,22.1,7.6v22.1l-7.4-0.1v-21.7
		c-0.1-1.6-0.4-2.5-2.4-3.2c-3.5-1.1-6.9-0.6-10,0.8v24.1h-7.6v-24.1c-4.1-2-8.4-2.8-12.4,0v24.1H100.3z M313.6,510.5
		c0,9.9,8.3,16.9,18.5,16.9c1.6,0,3.1-0.2,4.6-0.5v15.7l6.9-1.8c0-16.1,0-29.8,0-45.9c-5.8-1.2-13.4-1.5-19.3,0
		C318.1,496.4,313.6,501.7,313.6,510.5z M336.7,500.2v20.5c-18.3,4-18.6-17.7-8.4-20.5C331.1,499.7,333.9,499.9,336.7,500.2z
		 M300.7,506.9c-0.1-3.7-2-7.6-7.3-7.6c-5.1,0-7.4,4-7.4,7.7L300.7,506.9z M293.3,493.1c13.7,0,15.2,12.4,15.2,20l-22.8-0.1h0
		c0,0.1,0,0.3,0,0.5c-0.3,2.2,2.6,8,10.1,7.5c1-0.1,6.4-0.7,7.6-1.9l3.1,4.3c-2.7,2.4-9.1,3.8-12.8,3.8c-8.5,0-15.5-7.5-15.5-17.1
		C278.1,500.5,284.7,493.1,293.3,493.1L293.3,493.1z M263.6,526.8h-6.9l0-26.6c0-0.9-0.1-2.9,0.6-3.8c2.5-3.2,16.9-3.2,20.4-2.7
		l-3.8,6.3c-4.2-0.1-8.9-0.5-10.2,1.1L263.6,526.8z M219.8,478.6h6.9v16.3c10.7-3.4,18.3-1.8,21.5,5.1c0.3,8.8,0,17.8,0,26.8h-6.9
		v-21.4c0-7.7-14.6-5.9-14.6-1.6v23h-6.9V478.6z M211.3,494.2c-0.6,2.1-1,4-1.6,6.1c-2.6-0.2-5.4-1.1-8-1.1c-4.5,0-5.9,5.4-1.6,6.7
		c13.3,3.9,16.8,14.8,5.5,20.4c-3.7,1.8-12.5,0.8-17.2-1.3c1-2,2-3.9,3-5.9c1.5,0.8,2.8,2,4.5,2.4c8.7,1.8,12.6-5.6,5.2-8.4
		c-5.3-2-10.7-4.4-11.5-9.4c-0.8-5,3.1-9.7,8.6-10.3C202.8,493,207,493.2,211.3,494.2L211.3,494.2z M156.7,495.3
		c1,1.7,2,3.4,2.9,5.2c7.9-1.1,14.1-1.6,15.3,1.2c-3.5,9.6-20.6,2.5-20.8,14.6c-0.1,6.2,3.9,9.3,7.3,9.9c7.3,2,13.2-0.2,20.5-0.6
		l-0.1-23C181.8,492.5,167.7,491.2,156.7,495.3L156.7,495.3z M174.5,509.5v10c-5.1,3.3-12.1,2.3-12.5-1.1
		C161,511.5,170.7,514.1,174.5,509.5L174.5,509.5z"/>
	<path id="path13" class="st1" d="M708.8,482.1c-1,1.2-2.9,3.2-5.5,5.8l-5.5-5.4l-5.2,5.4l-5.5-5.5c0.6-0.9,2.5-2.8,5.5-5.7l5.2,5.3
		l5.5-5.3L708.8,482.1z M700.8,516.8c-3.9-0.7-8.7-2-11.5-3.4c-4-2.2-4.9-6.7-1.6-12.6c1.4-2.5,3.2-5.4,5.8-6.6c8.8-4,12.6,1,15,7.7
		c4,11.5,1.4,19-7.9,23.6c-11,3-20.4,2.8-30.6,2c-11.3-0.9-15.7-5-17-14.8c-0.7-5.5,1.3-12.3,6-18c1,0.4,2.5,1.6,4.6,3.6
		c-2.3,4.1-3.5,8.6-3.5,12c0,2.5,0.8,4.6,2.7,6.1c6.1,4.4,29.8,4.2,37.1,1.9C701,517.9,700.8,517.7,700.8,516.8L700.8,516.8z
		 M900.2,526.2l-7.4,1.3l-1.4-47l7.4-1.3L900.2,526.2z M883.8,527.7c-18.2,0-36.4,0-54.6,0c-1.8-0.4-4.2-1.6-5.4-3.3
		c-1,2.7-2,3.3-3.3,3.3h-7.8h-3.1h-69h-2.2c-1.9,6.2-4.2,10.5-6.9,13.2c-3.3,3.4-11.1,5.6-17,5.6c-1.1-1.9-1.1-3.8-0.1-5.7
		c3.7-0.2,7.9-1.9,10.9-4.6c3.2-2.8,4.4-6.5,4.4-10.1c0-3.4-2.2-11.7-5.9-15.7l6.6-5.5c2.2,1.7,5,6.9,7.8,14.9h20.1
		c0,0,0-0.2,0.1-0.6c0-3.6-1.5-7.2-4.7-10.8c1-1.4,2.7-3.4,4.9-5.9c5,4.8,7.1,10.5,7.2,17.2h8.2l0.2-0.6c0.9-3.9-0.9-7.5-4.4-10.7
		l4.8-5.9c6.3,4.7,6.9,11.5,6.5,17.2h10.3l0.1-0.6c0.2-2-0.6-10.5-6.2-15.5l6-5.1c3.8,3.8,7.7,11.6,7,21.4h13.8
		c5.9,0,7.6-3.1,10.4-6.5c1.7-3.2,3.4-6.4,5.1-9.6c2-3.4,5.1-5.2,9.2-5.2c2.6,0,4.9,1.3,7,4c1.3,1.7,2.9,4.5,4.8,8.5
		c1.9,4,3.3,8,4.2,9.1h23.6l-0.5-39.4l6.4-2.5C882.8,494.8,883.3,511.3,883.8,527.7L883.8,527.7z M844.6,519.8v-1
		c0-0.2-0.7-3-2.1-5.5c-1.4-2.5-3.5-4.1-3.9-4.6c-0.5-0.6-1.2-1-2.2-1c-1.5,0-3.4,1.4-5.1,4c-1.3,1.9-2.2,3.3-2.9,5.4
		c2.8,2.6,10.2,3.2,14.4,2.9C843.7,520,844.2,520,844.6,519.8L844.6,519.8z M777.9,477.2c-0.7,1.3-2,2.9-4.1,4.8
		c-1.1-0.9-2.6-2.3-4.7-4.4c0.4-0.7,1.9-2.3,4.4-4.8L777.9,477.2z M784.8,485.6c-1.3,1.3-3.3,3.1-5.9,5.5c-1.1-0.9-2.9-2.6-5.3-5
		c-2.2,2.3-4,3.9-5.4,5c-1.2-0.9-3.2-2.7-5.9-5.5l5.6-5.5c1.1,0.9,3,2.7,5.7,5.3l5.3-5.3C779.7,480.7,781.7,482.5,784.8,485.6z
		 M703.3,509.9c-1.7-5.5-4.1-9.6-9.2-9.1c-1.4,0.8-2.3,2.7-2.3,3.9C694.5,508.9,699.1,509.2,703.3,509.9z"/>
</g>
</svg>
