<?xml version="1.0" encoding="utf-8"?>
<!-- Generator: Adobe Illustrator 23.0.6, SVG Export Plug-In . SVG Version: 6.00 Build 0)  -->
<svg version="1.1" id="Layer_1" xmlns="http://www.w3.org/2000/svg" xmlns:xlink="http://www.w3.org/1999/xlink" x="0px" y="0px"
	 viewBox="0 0 1000 1000" style="enable-background:new 0 0 1000 1000;" xml:space="preserve">
<style type="text/css">
	.st0{fill:#004B8D;}
	.st1{fill:#E31837;}
</style>
<g>
	<g>
		<path class="st0" d="M332.3,403.1h72.4v-23.1l-72.4-0.2V403.1z M423.3,421H237.8c0,0-18.7,0-18.7-17.8v-22.7h-21.4v22.7
			c0,17.8-18.9,17.8-18.9,17.8h-40.7c0,0-19.1-0.3-19.1-17.8v-40.4h19.4v40.4H179v-22.4c0,0,0-18,18.9-18h21.2
			c18.9,0,18.9,17.7,18.9,17.7v22.7h27.3v-40.4h18.9v40.4h29.4v-77.3h18.6v36.8h72.6c18.6,0,18.6,17.1,18.6,17.1V421z"/>
		<path class="st0" d="M457.4,380.5h26v22.8h-26V380.5z M533.4,420.9c0,0,18.8-0.2,18.8-17.9v-77.2h-18.4v77.3h-31.2v-22.7
			c0,0-0.2-17.7-19.2-17.7h-26c-18.5,0-17.9,18.4-17.9,18.4v22.4c0,0-0.6,17.4,17.9,17.4h26v13.9h-43.9v17.7h43.6
			c19.3,0,19.4-17.7,19.4-17.7v-13.9H533.4z"/>
	</g>
	<rect x="565.4" y="325.8" class="st0" width="18.5" height="95.2"/>
	<polygon class="st0" points="145.7,493.4 145.7,568.4 119,568.4 119,471.4 157.2,471.4 223.1,543.8 223.1,471.4 250.4,471.4 
		250.3,568.4 216.4,568.4 	"/>
	<g>
		<path class="st1" d="M872.2,577.7l28,22.8c-119.9-5.3-496,1.2-800.4,73.9C99.8,674.5,360.5,577.8,872.2,577.7"/>
		<path class="st0" d="M856.4,380c8.7,8.9,24.2,22.7,24.4,33.4c0,0,2,14.6-9,31.2l-7.4-1.2c0,0,10.7-17,10.7-22.3
			c0-5.5,1.3-12.6-6.7-17.1c0,0,0,15.1,3.8,46.7c0,0,3.1,22.4,5.5,29.5c4.9,14.3,6.7,19,6.7,22.6c0,3.5-1,7-3.6,13.2
			c-1.8,4.5-7.6,25.6-9.5,34.9c0,0,0.5,4.7-2.3,9.6c0,0,4.5,5.4-2.4,7.6c0,0-8.6-0.9-14-0.5c0,0-9,1.3-2.7-4.9c0,0,1.2-1.6,7.6-4.6
			c1-0.5,0.9-3.3,3.2-5.9c1.8-1.9,4-15.2,9.8-32.7c0,0-12-29.6-15-34c0,0,0.4,12.9,0.6,16.1c0.2,2.6-20.9,37.1-20.9,51.5
			c0,0,0.4,1.7-1.9,6c0,0,3.1,9-2.3,9H815c0,0-6.6-2.6-0.3-6.3l6.6-3.1c0,0,0.9-3.5,3.4-6c0,0,6.9-20.9,15-38.8
			c0,0,3.2,3.6-8.5-43.4c0,0-4.2-16.9-6.3-20.3c0,0-8.3-16-11.8-18.7c0,0-26,21.8-72.1,21.4l-3.4,45.2c0,0-1.3,11.9-2.3,19.8
			c0,0,0.4,20.9,2.3,32.2c0,0,0.5,4-0.8,7.9c0,0,6.9,8.5-2.1,10l-15.7,0.2c0,0-6.6-3.8,7.2-10.5c0,0,0.1-3.8,1.4-6.4
			c0,0-0.3-17.2-1.3-33.6c0,0-1.9-5.2-2.3-12.4c0,0,0.2-15.7-3.4-30c0,0-1.9,4.1-5,26.1c0,0,1.3,7.2-1.1,16.2c0,0-2.6,27.8-2.8,31.5
			c0,0,1.2,3.1-1,9.1c0,0,3.8,7-0.2,8.7c-1,0.4-2.5,0.5-3.7,0.6c-15.6,0.9-15.1-0.5-15.1-0.5s-2.9-3.5,4.1-6.3
			c0.9-0.3,2.5-2.3,3.5-2.8c0,0,1.2-5.2,3.1-7.7c0,0,3.1-22,3.6-34.5c0,0-2.4-6.2,0.1-15c0,0,2.1-17.2,1.3-30.5
			c0,0,0.1-12.3-1.8-23.5c0,0,3.5-16.7-22.1-13.9c0,0-19.1-1.3-24.5-13.8c0,0-12.5-27.5-13.5-33.3c-2-12.5-7.7-24.9-7.7-24.9
			s-16.2-4.9-21.6-7.1l-4.4-1.2c0,0-2.7,0.3-5.6,2.1c-1.2,0.9-2.6-0.5-2.6-0.5s-2.2-3.3,1.2-6.5l-1.7-3.1c0,0,6.8-12.3,12.3-12.3
			c0,0,5.8-1.7,15.5-1.3c0,0,7.8-6.8,17.6-4.1c0,0,8.6,3.2,15.8,0.1c0,0-5.5,8.6,2.6,21.5c0,0,6.8,18.2,8.4,31.6
			c0.4,3.6,3.6,6.3,7.2,8c3.5,1.9,13.4,3.9,20.6-7.5c0,0,10.6-10.6,21.4-15.1c0,0,7.2-3.6,10.7-8.1c3.6-4.5,13.5-14.5,18.9-18.8
			c5.5-4.4,17.6-13.3,29.2-11.5c14.6,2.2,16.9,3.6,32.5,17.8c0,0,19.7,17,31.9,27.4C847.8,372.2,855,378.5,856.4,380"/>
	</g>
	<path class="st0" d="M482.2,519.2l67.8-47.9h33.7l-66.4,47.9l66.4,49.1h-34L482.2,519.2z M480.9,568.2h-27.3v-97h27.3V568.2z"/>
	<rect x="162.9" y="434.3" class="st0" width="18.7" height="18.1"/>
	<rect x="132.3" y="434.3" class="st0" width="18.7" height="18.1"/>
	<rect x="265.3" y="325.9" class="st0" width="19" height="18.1"/>
	<g>
		<path class="st0" d="M368.1,488.4c9.8,0,17.6,5.1,17.6,11.3c0,6.2-7.8,11.3-17.6,11.3h-56.9v-22.5H368.1z M368.1,552.1h-56.9
			v-22.5h56.9c9.8,0,17.6,5.1,17.6,11.3C385.7,547.1,377.9,552.1,368.1,552.1 M396.4,519.9c6.9-1.7,12.6-4.7,17.2-9
			c4.5-4.3,6.3-9.2,6.3-14.2c0-3.9-0.9-7.5-3.7-11.1c-3.9-5.2-9.8-9.1-17.6-11.3c-6.6-2-13.8-2.9-28.3-2.9h-86.5v96.9h84.4
			c13.8,0,20.6-0.7,27.6-2c7-1.4,12.7-4,17-7.7c5.1-4.2,7.1-9.7,7.1-16C419.9,531.7,412.5,524.2,396.4,519.9"/>
	</g>
</g>
</svg>
