<?xml version="1.0" encoding="utf-8"?>
<!-- Generator: Adobe Illustrator 22.0.1, SVG Export Plug-In . SVG Version: 6.00 Build 0)  -->
<svg version="1.1" id="Layer_1" xmlns="http://www.w3.org/2000/svg" xmlns:xlink="http://www.w3.org/1999/xlink" x="0px" y="0px"
	 viewBox="0 0 1000 1000" style="enable-background:new 0 0 1000 1000;" xml:space="preserve">
<style type="text/css">
	.st0{fill:#001F60;}
	.st1{fill:#FFFFFF;}
	.st2{fill:#F5A800;}
</style>
<rect x="241" y="297.6" class="st0" width="655.3" height="188.1"/>
<path class="st1" d="M368.9,401.1H352c1.1-3.5,2.6-7,4.9-10c2-2.6,5.2-5.5,8.6-3.8c2.8,1.4,3.2,5.7,3.3,8.4
	C368.9,397.5,368.9,399.3,368.9,401.1 M377,388.9c-1-4.8-3.5-9.9-8.4-11.7c-5.3-1.9-10.6,0.4-14.4,4.1v-24.5c0,0-6.2,0-6.7,0h-2.3
	v0.7v12.8v17.5v5.9v1.4c0,0-0.9,1.8-2.2,6l-8.3,0c0,0-1.9,0-1.9-1.9v-20H325c-3.3,0-6.5,0.2-9.3,2.1c-3.6,2.5-5,7.1-5.4,11.3
	c-0.2,2.4-0.1,4.9-0.1,7.3v7.7c0,4.1-2.5,7.6-6.5,8.9c-4.6,1.4-10.7,0.1-13.3-4.2c-1.9-3.1-2-6.9-1.4-10.4c0.3-1.8,0.8-3.7,1.5-5.4
	c0.1-0.2,1.1-1.9,1-2c-2.4-1.7-4.7-3.4-7.1-5.1c-5.3,8.9-6.6,20.8-0.8,29.8c5.7,8.8,18.9,11,27.4,4.9c3.9-2.8,6.5-7.1,7.6-11.8
	c0.6-2.7,0.6-5.4,0.6-8.1v-7.3c0-1.3,0-2.6,0.3-3.9c0.2-1,0.6-2,1.3-2.6c0.9-0.8,2.1-1,3.2-1.1v6.7c0,3.1-0.1,6.3,1,9.3
	c0.9,2.3,2.3,4.4,4.6,5.4c1.6,0.7,3.2,0.8,4.9,0.8h4.1h30h9.1c0,0,0-12.3,0-13.4C377.8,395,377.6,391.9,377,388.9"/>
<path class="st1" d="M400.2,401.1c-2.3,0-5,0.3-7.3-0.4c-4-1.2-3.7-6.9-2.4-10c0.8-2,2.5-4,4.9-3.8c2.3,0.2,3.4,2.1,3.9,4.1
	C400.3,394.2,400.2,397.7,400.2,401.1 M417.5,401.1h-9.4c0-7.6-0.6-11.3-0.6-11.3c-1-4.9-3.6-10.3-8.9-11.5
	c-5.3-1.2-10.3,1.3-13.2,5.7c-3.7,5.6-4.4,13.7-1.6,19.8c1.3,2.8,3.6,5.2,6.4,6.5c2.4,1.1,4.9,1.2,7.5,1.2c-2,2.7-5.2,4.4-8.4,5.2
	c-0.9,0.2-1.7,0.4-2.6,0.4c-0.2,0-1.2,0-1.3,0.1c-0.1,0.1,0.1,0.9,0.1,1.1c0.3,3.1,0.5,6.1,0.8,9.2c4.8-0.7,9.5-2.1,13.4-5
	c2.1-1.6,3.9-3.5,5.3-5.6c0.7-1,1.2-2.1,1.7-3.2c0.1-0.3,0.6-2.1,0.9-2.1h18.9v-54.7h-8.9V401.1z"/>
<path class="st1" d="M467.2,394.9c-1.8,2.6-2.5,6.3-2.7,9.1c-0.4,5.1,1.3,10.4,6.5,12.2c4.6,1.7,10.8,0.8,13.6-3.6
	c1.6-2.4,1.3-5.2,1.3-7.9v-8.1c0-3.4,0.2-7,1.6-10.2c1.7-4.1,5.1-6.8,9.5-7.1c1.8-0.1,4.1-0.1,4.1-0.1h7.5v15.5v5c0,0,0,1.3,1.8,1.3
	h8.8v-21.9l8.9,0v32.3h-18.9c-4.1,0-7.1-2.4-8.6-6.2c-1.1-3-1-6.2-1-9.3v-6.7c-1.1,0.1-2.3,0.3-3.2,1.1c-0.7,0.7-1.1,1.7-1.3,2.6
	c-0.3,1.3-0.3,2.6-0.3,3.9v7.3c0,2.7,0.1,5.5-0.6,8.1c-1.1,4.7-3.6,9-7.6,11.8c-8.4,6.1-21.7,3.9-27.4-4.9c-5.8-9-5.3-20.3,0-29.3
	L467.2,394.9z"/>
<path class="st1" d="M532.8,411.5c-0.1,0-0.9,0-0.9,0v-0.8v-3.6v-5.9c2.1,0,4.3,0,6.4,0h4c1.1,0,2.3,0.1,3.4-0.3
	c1.9-0.6,2-2.6,1.7-4.4c-0.4-2.3-1.6-4.4-2.9-6.3c-1.3-2-2.7-3.8-4.2-5.6c-0.1-0.1-2.4-2.5-2.3-2.6c2.1-2.8,4.3-5.6,6.4-8.4
	c4.7,5.3,9.3,11.1,11.1,18.1c1.8,6.7,0.6,15.6-6.4,18.8c-1.9,0.8-3.9,1.1-6,1.1H532.8z"/>
<path class="st1" d="M590.6,411.5c-4.5,0-10.8,0.1-14.5-3.7c0,0-6.9-5.6-3.1-21.1l9.2,1.1c-0.4,3.2-1.4,6.7-0.3,9.8
	c1.2,3.4,7.6,3.4,10.6,3.4h12.9 M590.6,411.5c-4.5,0-10.8,0.1-14.5-3.7c0,0-6.9-5.6-3.1-21.1l9.2,1.1c-0.4,3.2-1.4,6.7-0.3,9.8
	c1.2,3.4,7.6,3.4,10.6,3.4h12.9h7.3h1.3c0,0,0-0.9,0-1v-15.8v-5c0-0.2,5.3-0.1,5.8-0.1h3c0.2,0,0.1,0.4,0.1,0.6v5.1v17.3
	c0,0.6,0.1,9.3,0,9.3h-11.3H590.6z"/>
<path class="st1" d="M636.5,416.3l0.9-0.2c1.5-0.4,2.7-0.9,3.6-1.5c0.9-0.6,1.5-1.2,2-2c0.5-0.8,0.8-1.7,0.9-2.8
	c0.2-1.2,0.3-2.6,0.3-4.2v-26.3h8.9l0,24.4c0,3.6-0.3,6.7-0.8,9.4c-0.5,2.7-1.4,4.9-2.6,6.8s-2.8,3.3-4.6,4.4
	c-1.8,1.1-4,1.8-6.5,2.3l-0.9,0.2L636.5,416.3z"/>
<path class="st1" d="M693.3,398.7c-0.2,0.7-0.5,1.2-0.9,1.7c-0.4,0.4-0.9,0.8-1.5,1c-0.6,0.2-1.4,0.3-2.2,0.3
	c-0.5,0-1.1-0.1-1.7-0.2c-0.6-0.2-1.2-0.4-1.8-0.7c-0.6-0.3-1.1-0.6-1.5-0.9c-0.2-0.1-0.4-0.3-0.5-0.4c0.2-1.3,0.5-2.5,0.8-3.7
	c0.4-1.4,0.9-2.7,1.4-3.8c0.5-1.1,1.1-1.9,1.7-2.5c0.6-0.6,1.2-0.8,1.9-0.8c0.8,0,1.4,0.2,1.9,0.7c0.6,0.5,1.1,1.1,1.5,1.8
	c0.4,0.8,0.7,1.5,0.9,2.4c0.2,0.9,0.3,1.7,0.3,2.4C693.6,397.2,693.5,398.1,693.3,398.7 M701.7,392.2c-0.2-1.4-0.6-2.7-1-4
	c-0.5-1.3-1-2.5-1.7-3.6c-0.7-1.2-1.5-2.2-2.5-3c-1-0.9-2-1.6-3.2-2.1c-1.2-0.5-2.5-0.8-4-0.8c-1.1,0-2.2,0.3-3.4,0.7
	c-1.3,0.5-2.6,1.5-3.9,2.9c-1.3,1.4-2.6,3.4-3.7,5.9c-1.2,2.6-2.2,5.9-3.2,9.9c-0.3,1.1-0.7,1.9-1.1,2.3c-0.5,0.5-1.1,0.7-1.8,0.7
	h-2.5c-0.5,0-0.9-0.1-1.1-0.2c-0.2-0.1-0.4-0.3-0.6-0.6c-0.2-0.3-0.3-0.7-0.4-1.4c-0.1-0.7-0.2-1.6-0.2-2.7v-39.4h-8.9v41.4
	c0,1.9,0.2,3.7,0.5,5.3c0.4,1.6,0.9,3.1,1.7,4.3c0.8,1.2,1.8,2.1,3,2.8c1.2,0.7,2.6,1,4.3,1h5.1c2.9,0,5.4-1.3,7.2-4
	c0.3,0.3,0.6,0.7,1,1c0.7,0.7,1.4,1.2,2.3,1.7c0.9,0.5,1.8,0.9,2.9,1.2c1.1,0.3,2.3,0.5,3.6,0.5c1.9,0,3.6-0.4,5.1-1.3
	c1.5-0.9,2.8-2.1,3.8-3.5c1-1.5,1.8-3.2,2.3-5.1c0.5-1.9,0.8-3.9,0.8-5.9C702,394.8,701.9,393.5,701.7,392.2"/>
<polygon class="st1" points="736.4,356.8 737.3,356.8 737.3,411.5 704.7,411.5 704.7,401.1 714.1,401.1 714.1,369.1 723,369.1 
	723,401.1 728.4,401.1 728.4,356.8 "/>
<path class="st1" d="M826.2,401.1c1.6,0,1.7-2,1.7-2v-19.7h8.9v19.8c0,0-0.3,2.1,1.6,2.1h9.6v-21.9h8.9v32.3h-15.1
	c-1.9,0-3.5-0.3-4.9-0.9c-1.1-0.5-2.1-1.1-3-1.8c-0.6,0.7-1.3,1.3-2.1,1.8c-1.1,0.6-2.4,0.9-3.8,0.9h-5.6c-1.9,0-3.5-0.3-4.9-0.9
	c-1.1-0.5-2.1-1.1-3-1.8c-0.6,0.7-1.3,1.3-2.1,1.8c-1.1,0.6-2.4,0.9-3.8,0.9h-21.4c-4.5,0-10.8,0.1-14.5-3.7c0,0-6.9-5.6-3.1-21.1
	l9.2,1.1c-0.4,3.2-1.4,6.7-0.3,9.8c1.2,3.4,7.6,3.4,10.6,3.4h17.2c2.4,0,2.4-2.1,2.4-2.1v-42.3h8.9v42.3c0,0-0.2,2,2,2"/>
<rect x="817.9" y="369.2" class="st1" width="8.6" height="8.2"/>
<rect x="837.3" y="419.5" class="st1" width="8.6" height="8.2"/>
<rect x="600.7" y="365.1" class="st1" width="8.9" height="8.5"/>
<rect x="519.2" y="416.9" class="st1" width="8.9" height="8.5"/>
<rect x="323.9" y="365.1" class="st1" width="8.9" height="8.5"/>
<rect x="588.4" y="365.1" class="st1" width="8.9" height="8.5"/>
<rect x="475.5" y="432.4" class="st1" width="8.9" height="8.5"/>
<rect x="463.2" y="432.4" class="st1" width="8.9" height="8.5"/>
<rect x="300" y="432.4" class="st1" width="8.9" height="8.5"/>
<rect x="287.7" y="432.4" class="st1" width="8.9" height="8.5"/>
<rect x="431.9" y="356.8" class="st1" width="8.9" height="54.7"/>
<rect x="744" y="356.8" class="st1" width="8.9" height="54.7"/>
<rect x="629.2" y="356.8" class="st1" width="8.9" height="54.7"/>
<path class="st1" d="M712.6,432.2v-6.8h2c0,0,0,0,0-0.1c-0.3-0.9-0.5-1.8-0.5-2.7c0-0.9,0.1-1.8,0.4-2.6c0.3-0.9,0.7-1.6,1.2-2.3
	c0.6-0.7,1.3-1.2,2-1.5c0.8-0.4,1.8-0.6,2.8-0.6c0.4,0,0.9,0,1.4,0.1c0.5,0,1.1,0.1,1.8,0.3l0.9,0.2l-0.7,5.7l-0.1,1.2
	c0,0-3-2.5-3.9-0.2c0,0.1-0.1,0.1-0.1,0.7c0,0.5,0.1,0.8,0.5,1.2c0.3,0.3,0.9,0.6,1.9,0.6h2.5v6.8H712.6z"/>
<path class="st1" d="M787.9,391.8V385h2c0,0,0,0,0-0.1c-0.3-0.9-0.5-1.8-0.5-2.7c0-0.9,0.1-1.8,0.4-2.6c0.3-0.9,0.7-1.6,1.2-2.3
	c0.6-0.7,1.3-1.2,2-1.6c0.8-0.4,1.8-0.6,2.8-0.6c0.4,0,0.9,0,1.4,0.1c0.5,0,1.1,0.1,1.8,0.3l0.9,0.2l-0.7,5.7l-0.1,1.2
	c0,0-3-2.5-3.9-0.2c0,0.1-0.1,0.1-0.1,0.7c0,0.5,0.1,0.8,0.5,1.2c0.3,0.3,0.9,0.6,1.9,0.6h2.5v6.8H787.9z"/>
<rect x="100.5" y="297.6" class="st0" width="127.8" height="188.1"/>
<path class="st1" d="M153.1,412c1.7-46.5,26.8-87.8,64.5-114.5h-25c-30.6,26.6-51.1,63.8-52,105.3c-0.7,32.9,5.7,57.8,23.1,83h6.4
	C156.5,462.6,152.2,438.3,153.1,412"/>
<path class="st2" d="M157.3,485.7c-15.1-16-33.3-46.2-35.5-78.7c-2.6-39.9,10.5-78.7,37.1-109.4h20.6c-32.5,32.3-49,75-45.2,117.5
	c2.4,27.1,13.1,47.2,29.5,70.7H157.3z"/>
<path class="st1" d="M164.2,447c13.7-14.2,26.5-34.7,30.6-55.2c5.7-28.7-1.8-52.4-2.3-54c-0.4-1.2-0.5-1.9-0.4-2
	c0.4-0.2,3.3,5,5.3,9.1c3.8,7.9,7.9,20.7,7.7,35.4c-0.3,18.3-6.8,36.4-18.6,50.4c-4.1,4.9-8.8,9.2-14.1,12.8
	c-3.5,2.3-9.4,5.6-9.6,5.2C162.7,448.4,163.4,447.9,164.2,447"/>
<path class="st2" d="M163.8,447.4c9.2-10.6,17.5-25.6,19.5-40.3c2.8-20.5-3.4-37-3.9-38.1c-0.3-0.8-0.5-1.4-0.3-1.4
	c0.3-0.2,2.6,3.4,4.1,6.2c3,5.4,6.5,14.3,6.9,24.7c0.6,12.9-3.3,26-11.2,36.4c-2.7,3.6-5.9,6.8-9.5,9.6c-2.4,1.8-6.4,4.3-6.6,4.1
	C162.7,448.5,163.2,448.1,163.8,447.4"/>
<rect x="247.5" y="518.6" class="st0" width="652.7" height="184.5"/>
<polygon class="st1" points="288.3,575.8 330.2,575.8 330.2,586.9 302.5,586.9 302.5,604.1 327.8,604.1 327.8,615.1 302.5,615.1 
	302.5,634.7 330.4,634.7 330.4,645.7 288.3,645.7 "/>
<path class="st1" d="M337.4,594.2h12.7v7.2h0.2c4.3-6.3,10.5-8.4,15.6-8.4c7.3,0,12.5,2.7,15.5,9.1c3.2-6.2,10-9.1,16.4-9.1
	c12.9,0,16.6,8.7,16.6,20.2v32.5h-13.6V615c0-4.8,0-11.6-7.8-11.6c-9.1,0-10.2,10.6-10.2,17.3v25H369V615c0-4.8,0-11.6-7.8-11.6
	c-9.1,0-10.2,10.6-10.2,17.3v25h-13.6V594.2z"/>
<path class="st1" d="M422.2,594.2h13.6v51.6h-13.6V594.2z M422.2,571.9h13.6v12.8h-13.6V571.9z"/>
<path class="st1" d="M443.4,594.2h12.1v11.7h0.2c0.6-4.8,6.2-12.9,14.3-12.9c1.3,0,2.7,0,4.2,0.4v13.5c-1.2-0.7-3.7-1.1-6.1-1.1
	c-11.1,0-11.1,13.6-11.1,21v18.9h-13.6V594.2z"/>
<path class="st1" d="M495.3,637.1c4.2,0,7.4-1.8,9.6-4.6c2.2-2.9,2.8-6.6,2.8-10.6h-5.9c-6.1,0-15.2,1-15.2,8.9
	C486.7,635.2,490.4,637.1,495.3,637.1 M479.4,596.9c5.3-2.4,12.4-3.9,18.2-3.9c16,0,22.6,6.5,22.6,21.7v6.6c0,5.2,0.1,9.1,0.2,12.9
	c0.1,3.9,0.3,7.5,0.6,11.5h-12c-0.5-2.7-0.5-6.1-0.6-7.7h-0.2c-3.2,5.7-10,8.9-16.2,8.9c-9.3,0-18.3-5.5-18.3-15.3
	c0-7.7,3.8-12.2,9-14.7c5.2-2.5,11.9-3,17.6-3h7.5c0-8.3-3.8-11.1-11.8-11.1c-5.8,0-11.6,2.2-16.2,5.6L479.4,596.9z"/>
<path class="st1" d="M530.9,604h-10.1v-9.8h10.1v-10.3l13.6-4.3v14.6h12.1v9.8h-12.1v24c0,4.4,1.2,8.5,6.4,8.5
	c2.4,0,4.8-0.5,6.2-1.4l0.4,10.6c-2.8,0.8-6,1.2-10.1,1.2c-10.7,0-16.6-6.5-16.6-16.7V604z"/>
<path class="st1" d="M593.8,614.9c-0.4-6.5-3.5-12.1-11.1-12.1c-7.6,0-11.5,5.2-12.1,12.1H593.8z M602.9,642.8
	c-5,2.7-10.7,4.1-18,4.1c-17.3,0-27.4-9.8-27.4-26.7c0-14.9,8-27.2,24.3-27.2c19.4,0,24.9,13.1,24.9,31.1h-36.2
	c0.6,8.3,6.5,13,15,13c6.6,0,12.3-2.4,17.4-5.2V642.8z"/>
<path class="st1" d="M643.5,605c-4.2-1.4-7.2-2.2-12.2-2.2c-3.7,0-8,1.3-8,5.7c0,8.2,23.7,3,23.7,21.6c0,12-10.9,16.8-22,16.8
	c-5.2,0-10.5-0.9-15.5-2.2l0.8-11c4.3,2.1,8.7,3.4,13.4,3.4c3.5,0,9-1.3,9-6.3c0-10.1-23.7-3.2-23.7-21.8c0-11.1,9.9-16,20.5-16
	c6.4,0,10.6,1,14.8,1.9L643.5,605z"/>
<polygon class="st1" points="674.7,575.8 692.2,575.8 719.3,628.1 719.5,628.1 719.5,575.8 733.1,575.8 733.1,645.7 715.7,645.7 
	688.5,593.5 688.3,593.5 688.3,645.7 674.7,645.7 "/>
<path class="st1" d="M758.5,634.7h6.7c6.6,0,14.6-1.6,14.6-9.7c0-9.1-7.5-10.5-14.6-10.5h-6.7V634.7z M758.5,604.1h5.8
	c6,0,13.4-1.3,13.4-8.5c0-8.1-7.2-8.7-13.7-8.7h-5.5V604.1z M744.2,575.8h24.8c9.2,0,22.9,2.6,22.9,17.9c0,8.3-5.7,14.1-14.1,15.6
	v0.2c9.7,0.9,16.3,7.3,16.3,15.9c0,17.6-16.1,20.2-25,20.2h-24.8V575.8z"/>
<path class="st1" d="M816.1,634.7h7.9c11.9,0,23.4-8.7,23.4-23.9s-11.5-23.9-23.4-23.9h-7.9V634.7z M801.9,575.8h19.4
	c21.8,0,41,7.2,41,34.9c0,27.7-19.2,34.9-41,34.9h-19.4V575.8z"/>
<rect x="107.6" y="518.6" class="st0" width="127.3" height="184.5"/>
<path class="st1" d="M160,630.9c1.7-45.6,26.7-86.1,64.3-112.3h-24.9c-30.4,26-50.9,62.6-51.8,103.2c-0.7,32.2,5.6,56.7,23,81.3h6.3
	C163.4,680.4,159.1,656.6,160,630.9"/>
<path class="st2" d="M164.2,703.1c-15-15.7-33.2-45.3-35.3-77.2c-2.6-39.1,10.5-77.2,37-107.3h20.5c-32.4,31.6-48.8,73.5-45.1,115.2
	c2.4,26.6,13,46.3,29.3,69.3H164.2z"/>
<path class="st1" d="M171.1,665.1c13.7-13.9,26.4-34.1,30.4-54.1c5.6-28.1-1.8-51.4-2.3-53c-0.4-1.1-0.5-1.9-0.4-2
	c0.4-0.2,3.3,4.9,5.3,8.9c3.8,7.8,7.9,20.3,7.6,34.7c-0.3,17.9-6.7,35.7-18.5,49.4c-4.1,4.8-8.8,9-14,12.5c-3.4,2.3-9.3,5.5-9.5,5.1
	C169.6,666.5,170.2,666,171.1,665.1"/>
<path class="st2" d="M170.6,665.5c9.2-10.4,17.4-25.2,19.4-39.5c2.8-20.1-3.4-36.2-3.9-37.3c-0.3-0.8-0.5-1.3-0.3-1.4
	c0.3-0.2,2.6,3.3,4.1,6.1c3,5.3,6.5,14,6.9,24.2c0.6,12.7-3.3,25.5-11.1,35.7c-2.7,3.5-5.9,6.7-9.5,9.4c-2.4,1.8-6.4,4.2-6.6,4
	C169.6,666.6,170.1,666.2,170.6,665.5"/>
</svg>
