<svg xmlns="http://www.w3.org/2000/svg" xmlns:xlink="http://www.w3.org/1999/xlink" version="1.1" viewBox="0 0 972 347.73">
<defs>
<clipPath id="clip1">
  <path d="M 0 0 L 287 0 L 287 347.730469 L 0 347.730469 Z M 0 0 "/>
</clipPath>
</defs>
<g id="surface1">
<g clip-path="url(#clip1)" clip-rule="nonzero">
<path style=" stroke:none;fill-rule:nonzero;fill:rgb(10.998535%,11.399841%,10.198975%);fill-opacity:1;" d="M 0.03125 112.421875 C 0.03125 78.878906 0.0390625 45.339844 0.0195313 11.796875 C 0.015625 7.976563 0.492188 4.394531 3.835938 1.902344 C 8.796875 -1.796875 15.738281 0.300781 17.878906 6.101563 C 18.640625 8.164063 18.542969 10.289063 18.542969 12.417969 C 18.539063 75.804688 18.53125 139.191406 18.542969 202.582031 C 18.554688 263.523438 64.941406 317.902344 125.355469 327.425781 C 168.730469 334.257813 206.382813 322.164063 237.972656 291.828125 C 250.507813 279.796875 259.855469 265.394531 266.339844 249.25 C 267.335938 246.769531 268.460938 245.683594 271.226563 245.855469 C 275.339844 246.105469 279.488281 246.109375 283.601563 245.859375 C 286.867188 245.660156 286.996094 246.683594 285.980469 249.398438 C 269.253906 293.976563 238.714844 324.851563 193.484375 340.039063 C 114.910156 366.421875 30.785156 322.660156 6.460938 243.464844 C 2.089844 229.226563 0.132813 214.648438 0.0703125 199.828125 C -0.0585938 170.691406 0.03125 141.554688 0.03125 112.421875 "/>
</g>
<path style=" stroke:none;fill-rule:nonzero;fill:rgb(10.998535%,11.399841%,10.198975%);fill-opacity:1;" d="M 45.597656 110.429688 C 45.597656 140.554688 45.597656 170.679688 45.597656 200.804688 C 45.597656 254.828125 87.546875 299.675781 141.6875 302.023438 C 183.492188 303.839844 214.996094 285.40625 236.214844 249.527344 C 237.8125 246.820313 239.3125 245.636719 242.4375 245.851563 C 246.40625 246.128906 250.417969 246.109375 254.386719 245.859375 C 257.730469 245.648438 258.222656 246.511719 256.839844 249.519531 C 248.070313 268.617188 235.402344 284.535156 218.519531 297.113281 C 147.746094 349.84375 44.363281 309.015625 29.125 222.289063 C 27.84375 215.011719 27.203125 207.667969 27.207031 200.257813 C 27.242188 137.449219 27.226563 74.644531 27.222656 11.839844 C 27.222656 9.566406 27.058594 7.277344 28.1875 5.171875 C 30.132813 1.539063 33.230469 -0.34375 37.273438 0.160156 C 41.398438 0.675781 44.425781 2.941406 45.207031 7.308594 C 45.527344 9.109375 45.582031 10.976563 45.582031 12.8125 C 45.605469 45.351563 45.597656 77.890625 45.597656 110.429688 "/>
<path style=" stroke:none;fill-rule:nonzero;fill:rgb(10.998535%,11.399841%,10.198975%);fill-opacity:1;" d="M 228.234375 245.933594 C 221.03125 258.871094 211.777344 269.074219 200.132813 277.019531 C 143.960938 315.363281 68.433594 284.09375 55.730469 217.261719 C 54.882813 212.800781 54.414063 208.273438 54.414063 203.710938 C 54.425781 139.183594 54.4375 74.660156 54.386719 10.132813 C 54.382813 5.835938 55.894531 2.609375 59.808594 0.851563 C 63.386719 -0.753906 66.78125 -0.0234375 69.707031 2.570313 C 72.289063 4.859375 72.535156 7.894531 72.53125 11.132813 C 72.492188 73.8125 72.480469 136.488281 72.511719 199.164063 C 72.527344 234.996094 94.839844 264.621094 129.175781 272.945313 C 158.605469 280.082031 183.609375 271.390625 203.8125 249.027344 C 205.835938 246.789063 207.671875 245.765625 210.640625 245.871094 C 216.289063 246.078125 221.949219 245.933594 228.234375 245.933594 "/>
<path style=" stroke:none;fill-rule:nonzero;fill:rgb(10.998535%,11.399841%,10.198975%);fill-opacity:1;" d="M 193.914063 246.289063 C 182.515625 258.621094 168.382813 264.984375 151.898438 266.386719 C 114.726563 269.546875 81.519531 239.265625 81.480469 201.996094 C 81.417969 138.320313 81.460938 74.644531 81.46875 10.96875 C 81.46875 4.140625 84.980469 -0.0195313 90.628906 0.0273438 C 96.261719 0.0742188 99.695313 4.25 99.695313 11.113281 C 99.699219 74.078125 99.664063 137.042969 99.710938 200.011719 C 99.734375 229.394531 124.585938 252.15625 153.09375 247.6875 C 166.753906 245.542969 180.230469 246.640625 193.914063 246.289063 "/>
<path style=" stroke:none;fill-rule:nonzero;fill:rgb(10.998535%,11.399841%,10.198975%);fill-opacity:1;" d="M 108.382813 78.230469 C 108.382813 72.5 108.46875 66.980469 108.355469 61.46875 C 108.273438 57.742188 111.433594 58.511719 113.234375 58.105469 C 138.976563 52.289063 164.6875 52.53125 189.886719 60.546875 C 237.984375 75.839844 269.84375 108.011719 287.386719 155.921875 C 280.796875 155.921875 274.816406 155.953125 268.832031 155.902344 C 266.855469 155.882813 266.988281 153.953125 266.492188 152.785156 C 251.871094 118.164063 227.074219 93.878906 191.933594 80.523438 C 165.15625 70.351563 137.820313 69.824219 110.304688 77.726563 C 109.773438 77.878906 109.234375 78.007813 108.382813 78.230469 "/>
<path style=" stroke:none;fill-rule:nonzero;fill:rgb(10.998535%,11.399841%,10.198975%);fill-opacity:1;" d="M 257.578125 155.949219 C 252.265625 155.949219 247 155.78125 241.753906 156.019531 C 239.078125 156.140625 237.777344 155.160156 236.539063 152.882813 C 224.855469 131.394531 207.652344 115.859375 184.941406 106.773438 C 160.886719 97.148438 136.476563 96.914063 112.113281 105.742188 C 108.605469 107.015625 108.132813 106.253906 108.324219 102.972656 C 108.570313 98.726563 108.480469 94.453125 108.34375 90.199219 C 108.273438 88.132813 108.960938 87.269531 111.007813 86.695313 C 155.753906 74.136719 195.53125 83.015625 229.9375 114.371094 C 241.828125 125.207031 250.71875 138.339844 257.066406 153.140625 C 257.386719 153.882813 258.109375 154.550781 257.578125 155.949219 "/>
<path style=" stroke:none;fill-rule:nonzero;fill:rgb(10.998535%,11.399841%,10.198975%);fill-opacity:1;" d="M 108.382813 136.8125 C 108.382813 131.140625 108.585938 125.738281 108.304688 120.363281 C 108.152344 117.460938 109.101563 116.078125 111.785156 115.082031 C 145.644531 102.511719 176.996094 106.886719 205.65625 128.964844 C 214.957031 136.132813 222.175781 145.160156 228.347656 155.945313 C 221.132813 155.945313 214.53125 155.914063 207.929688 155.972656 C 206.574219 155.984375 205.917969 155.226563 205.1875 154.316406 C 182.152344 125.628906 141.683594 118.070313 109.554688 136.566406 C 109.34375 136.691406 109.050781 136.679688 108.382813 136.8125 "/>
<path style=" stroke:none;fill-rule:nonzero;fill:rgb(10.998535%,11.399841%,10.198975%);fill-opacity:1;" d="M 194.808594 155.945313 C 183.785156 155.945313 173.425781 156.058594 163.074219 155.867188 C 160.441406 155.820313 157.851563 154.640625 155.199219 154.238281 C 136.253906 151.351563 121.042969 157.992188 108.398438 173.175781 C 108.398438 164.640625 108.417969 156.789063 108.382813 148.941406 C 108.375 147.492188 109.492188 147.109375 110.378906 146.464844 C 135.113281 128.574219 174.195313 132.734375 194.808594 155.945313 "/>
<path style=" stroke:none;fill-rule:nonzero;fill:rgb(0%,0%,0%);fill-opacity:1;" d="M 965.394531 142.464844 C 962.132813 142.464844 959.492188 145.109375 959.492188 148.367188 L 959.492188 161.40625 L 944.761719 161.40625 L 944.761719 148.367188 C 944.761719 145.109375 942.121094 142.464844 938.859375 142.464844 C 935.601563 142.464844 932.953125 145.109375 932.953125 148.367188 L 932.953125 161.40625 L 917.394531 161.40625 L 917.394531 137.1875 C 917.394531 133.929688 914.753906 131.285156 911.492188 131.285156 C 908.230469 131.285156 905.589844 133.929688 905.589844 137.1875 L 905.589844 161.40625 L 844.523438 161.40625 L 830.285156 179.429688 L 965.289063 179.429688 C 968.609375 179.429688 971.296875 176.738281 971.296875 173.421875 L 971.296875 148.367188 C 971.296875 145.109375 968.652344 142.464844 965.394531 142.464844 "/>
<path style=" stroke:none;fill-rule:nonzero;fill:rgb(0%,0%,0%);fill-opacity:1;" d="M 515.984375 142.464844 C 512.726563 142.464844 510.082031 145.109375 510.082031 148.367188 L 510.082031 161.40625 L 492.183594 161.40625 L 492.183594 148.367188 C 492.183594 145.109375 489.542969 142.464844 486.28125 142.464844 C 483.019531 142.464844 480.378906 145.109375 480.378906 148.367188 L 480.378906 161.40625 L 474.996094 161.40625 L 474.996094 148.367188 C 474.996094 145.109375 472.355469 142.464844 469.09375 142.464844 C 465.832031 142.464844 463.1875 145.109375 463.1875 148.367188 L 463.1875 161.40625 L 457.808594 161.40625 L 457.808594 148.367188 C 457.808594 145.109375 455.164063 142.464844 451.902344 142.464844 C 448.644531 142.464844 446 145.109375 446 148.367188 L 446 161.40625 L 400.402344 161.40625 L 400.402344 148.367188 C 400.402344 145.109375 397.757813 142.464844 394.496094 142.464844 C 391.238281 142.464844 388.59375 145.109375 388.59375 148.367188 L 388.59375 173.609375 C 388.59375 176.824219 391.199219 179.429688 394.414063 179.429688 L 452.527344 179.429688 C 454.796875 179.429688 456.695313 177.9375 457.355469 175.890625 C 457.71875 177.886719 459.386719 179.429688 461.488281 179.429688 L 515.882813 179.429688 C 519.199219 179.429688 521.890625 176.738281 521.890625 173.421875 L 521.890625 148.367188 C 521.890625 145.109375 519.246094 142.464844 515.984375 142.464844 "/>
<path style=" stroke:none;fill-rule:nonzero;fill:rgb(0%,0%,0%);fill-opacity:1;" d="M 664.71875 131.285156 C 661.457031 131.285156 658.816406 133.929688 658.816406 137.1875 L 658.816406 179.429688 L 670.621094 179.429688 L 670.621094 137.1875 C 670.621094 133.929688 667.976563 131.285156 664.71875 131.285156 "/>
<path style=" stroke:none;fill-rule:nonzero;fill:rgb(0%,0%,0%);fill-opacity:1;" d="M 554.253906 154.761719 L 544.148438 154.761719 C 542.679688 154.761719 541.488281 153.570313 541.488281 152.101563 C 541.488281 150.636719 542.679688 149.445313 544.148438 149.445313 L 554.253906 149.445313 C 555.722656 149.445313 556.914063 150.636719 556.914063 152.101563 C 556.914063 153.570313 555.722656 154.761719 554.253906 154.761719 M 649.175781 131.285156 C 645.917969 131.285156 643.273438 133.929688 643.273438 137.1875 L 643.273438 161.40625 L 627.273438 161.40625 L 627.273438 148.367188 C 627.273438 145.109375 624.632813 142.464844 621.371094 142.464844 C 618.109375 142.464844 615.46875 145.109375 615.46875 148.367188 L 615.46875 161.40625 L 609.835938 161.40625 L 609.835938 148.367188 C 609.835938 145.109375 607.191406 142.464844 603.933594 142.464844 C 600.671875 142.464844 598.027344 145.109375 598.027344 148.367188 L 598.027344 161.40625 L 592.398438 161.40625 L 592.398438 148.367188 C 592.398438 145.109375 589.753906 142.464844 586.492188 142.464844 C 583.234375 142.464844 580.589844 145.109375 580.589844 148.367188 L 580.589844 161.40625 L 567.46875 161.40625 L 567.46875 147.554688 C 567.46875 144.742188 565.191406 142.464844 562.378906 142.464844 L 535.59375 142.464844 C 532.78125 142.464844 530.503906 144.742188 530.503906 147.554688 L 530.503906 156.558594 C 530.503906 158.980469 532.472656 160.949219 534.894531 160.949219 L 556.878906 160.949219 C 558.695313 160.949219 560.167969 162.421875 560.167969 164.238281 L 560.167969 164.332031 C 560.167969 166.148438 558.695313 167.621094 556.878906 167.621094 L 536.40625 167.621094 C 533.605469 167.621094 531.265625 169.585938 530.664063 172.207031 C 530.566406 172.632813 530.503906 173.070313 530.503906 173.527344 C 530.503906 176.785156 533.148438 179.429688 536.40625 179.429688 L 562.34375 179.429688 C 562.347656 179.429688 562.347656 179.425781 562.347656 179.425781 C 562.359375 179.425781 562.367188 179.429688 562.378906 179.429688 C 564.644531 179.429688 566.542969 177.9375 567.203125 175.890625 C 567.566406 177.886719 569.234375 179.429688 571.339844 179.429688 L 648.511719 179.429688 C 651.6875 179.429688 654.273438 177.011719 654.597656 173.917969 C 654.890625 173.078125 655.078125 172.191406 655.078125 171.253906 L 655.078125 137.1875 C 655.078125 133.929688 652.4375 131.285156 649.175781 131.285156 "/>
<path style=" stroke:none;fill-rule:nonzero;fill:rgb(0%,0%,0%);fill-opacity:1;" d="M 705.414063 159.683594 C 705.414063 160.636719 704.644531 161.40625 703.695313 161.40625 L 696.183594 161.40625 C 695.234375 161.40625 694.464844 160.636719 694.464844 159.683594 L 694.464844 152.886719 C 694.464844 151.933594 695.234375 151.164063 696.183594 151.164063 L 703.695313 151.164063 C 704.644531 151.164063 705.414063 151.933594 705.414063 152.886719 Z M 708.660156 140.902344 L 691.324219 140.902344 C 686.457031 140.902344 682.511719 144.847656 682.511719 149.714844 L 682.511719 170.617188 C 682.511719 175.484375 686.457031 179.429688 691.324219 179.429688 L 708.660156 179.429688 C 713.527344 179.429688 717.472656 175.484375 717.472656 170.617188 L 717.472656 149.714844 C 717.472656 144.847656 713.527344 140.902344 708.660156 140.902344 "/>
<path style=" stroke:none;fill-rule:nonzero;fill:rgb(0%,0%,0%);fill-opacity:1;" d="M 814.742188 144.832031 L 814.742188 147.722656 L 806.09375 147.722656 C 804.925781 147.722656 803.976563 146.773438 803.976563 145.605469 L 803.976563 144.832031 C 803.976563 143.664063 804.925781 142.714844 806.09375 142.714844 L 814.742188 142.714844 Z M 800.191406 134.015625 C 795.128906 134.015625 791.023438 138.121094 791.023438 143.183594 L 791.023438 148.441406 C 791.023438 153.503906 795.128906 157.609375 800.191406 157.609375 L 814.804688 157.609375 L 814.804688 161.40625 L 759.777344 161.40625 L 759.777344 148.683594 C 759.777344 145.742188 757.765625 143.019531 754.863281 142.546875 C 751.164063 141.945313 747.96875 144.785156 747.96875 148.367188 L 747.96875 161.40625 L 732.449219 161.40625 L 732.449219 137.503906 C 732.449219 134.5625 730.441406 131.835938 727.539063 131.367188 C 723.839844 130.765625 720.644531 133.601563 720.644531 137.1875 L 720.644531 179.429688 L 816.433594 179.429688 C 819.75 179.429688 822.441406 176.742188 822.441406 173.421875 L 822.441406 134.015625 L 814.804688 134.015625 "/>
<path style=" stroke:none;fill-rule:nonzero;fill:rgb(0%,0%,0%);fill-opacity:1;" d="M 869.5 156.671875 L 887.773438 156.671875 C 889.570313 156.671875 891.027344 155.214844 891.027344 153.417969 C 891.027344 151.621094 889.570313 150.164063 887.773438 150.164063 L 878.136719 150.164063 L 878.136719 147.597656 L 887.773438 147.597656 C 889.570313 147.597656 891.027344 146.140625 891.027344 144.34375 C 891.027344 142.546875 889.570313 141.089844 887.773438 141.089844 L 874.601563 141.089844 C 872.871094 141.089844 871.484375 142.449219 871.382813 144.15625 L 871.347656 144.15625 L 871.347656 150.164063 L 869.5 150.164063 C 867.703125 150.164063 866.246094 151.621094 866.246094 153.417969 C 866.246094 155.214844 867.703125 156.671875 869.5 156.671875 "/>
<path style=" stroke:none;fill-rule:nonzero;fill:rgb(0%,0%,0%);fill-opacity:1;" d="M 963.433594 181.703125 C 959.890625 181.703125 957.019531 184.574219 957.019531 188.117188 C 957.019531 191.660156 959.890625 194.53125 963.433594 194.53125 C 966.976563 194.53125 969.847656 191.660156 969.847656 188.117188 C 969.847656 184.574219 966.976563 181.703125 963.433594 181.703125 "/>
<path style=" stroke:none;fill-rule:nonzero;fill:rgb(0%,0%,0%);fill-opacity:1;" d="M 938.859375 138.335938 C 942.402344 138.335938 945.273438 135.464844 945.273438 131.921875 C 945.273438 128.378906 942.402344 125.507813 938.859375 125.507813 C 935.316406 125.507813 932.445313 128.378906 932.445313 131.921875 C 932.445313 135.464844 935.316406 138.335938 938.859375 138.335938 "/>
<path style=" stroke:none;fill-rule:nonzero;fill:rgb(0%,0%,0%);fill-opacity:1;" d="M 784.609375 138.335938 C 788.152344 138.335938 791.023438 135.464844 791.023438 131.921875 C 791.023438 128.378906 788.152344 125.507813 784.609375 125.507813 C 781.066406 125.507813 778.195313 128.378906 778.195313 131.921875 C 778.195313 135.464844 781.066406 138.335938 784.609375 138.335938 "/>
<path style=" stroke:none;fill-rule:nonzero;fill:rgb(0%,0%,0%);fill-opacity:1;" d="M 770.84375 138.335938 C 774.386719 138.335938 777.257813 135.464844 777.257813 131.921875 C 777.257813 128.378906 774.386719 125.507813 770.84375 125.507813 C 767.300781 125.507813 764.429688 128.378906 764.429688 131.921875 C 764.429688 135.464844 767.300781 138.335938 770.84375 138.335938 "/>
<path style=" stroke:none;fill-rule:nonzero;fill:rgb(0%,0%,0%);fill-opacity:1;" d="M 706.875 138.335938 C 710.417969 138.335938 713.289063 135.464844 713.289063 131.921875 C 713.289063 128.378906 710.417969 125.507813 706.875 125.507813 C 703.332031 125.507813 700.460938 128.378906 700.460938 131.921875 C 700.460938 135.464844 703.332031 138.335938 706.875 138.335938 "/>
<path style=" stroke:none;fill-rule:nonzero;fill:rgb(0%,0%,0%);fill-opacity:1;" d="M 693.109375 138.335938 C 696.648438 138.335938 699.523438 135.464844 699.523438 131.921875 C 699.523438 128.378906 696.648438 125.507813 693.109375 125.507813 C 689.566406 125.507813 686.691406 128.378906 686.691406 131.921875 C 686.691406 135.464844 689.566406 138.335938 693.109375 138.335938 "/>
<path style=" stroke:none;fill-rule:nonzero;fill:rgb(0%,0%,0%);fill-opacity:1;" d="M 511.128906 181.703125 C 507.585938 181.703125 504.714844 184.574219 504.714844 188.117188 C 504.714844 191.660156 507.585938 194.53125 511.128906 194.53125 C 514.671875 194.53125 517.542969 191.660156 517.542969 188.117188 C 517.542969 184.574219 514.671875 181.703125 511.128906 181.703125 "/>
<path style=" stroke:none;fill-rule:nonzero;fill:rgb(0%,0%,0%);fill-opacity:1;" d="M 497.359375 181.703125 C 493.820313 181.703125 490.945313 184.574219 490.945313 188.117188 C 490.945313 191.660156 493.820313 194.53125 497.359375 194.53125 C 500.902344 194.53125 503.777344 191.660156 503.777344 188.117188 C 503.777344 184.574219 500.902344 181.703125 497.359375 181.703125 "/>
<path style=" stroke:none;fill-rule:nonzero;fill:rgb(0%,0%,0%);fill-opacity:1;" d="M 753.871094 138.335938 C 757.414063 138.335938 760.289063 135.464844 760.289063 131.921875 C 760.289063 128.378906 757.414063 125.507813 753.871094 125.507813 C 750.328125 125.507813 747.460938 128.378906 747.460938 131.921875 C 747.460938 135.464844 750.328125 138.335938 753.871094 138.335938 "/>
<path style=" stroke:none;fill-rule:nonzero;fill:rgb(0%,0%,0%);fill-opacity:1;" d="M 459.414063 227.394531 C 459.414063 230.535156 456.867188 233.082031 453.730469 233.082031 L 449.953125 233.082031 C 446.8125 233.082031 444.269531 230.535156 444.269531 227.394531 L 444.269531 201.039063 L 432.984375 201.039063 L 432.984375 233.957031 C 432.984375 239.003906 437.074219 243.09375 442.121094 243.09375 L 461.5625 243.09375 C 466.609375 243.09375 470.699219 239.003906 470.699219 233.957031 L 470.699219 201.039063 L 459.414063 201.039063 "/>
<path style=" stroke:none;fill-rule:nonzero;fill:rgb(0%,0%,0%);fill-opacity:1;" d="M 417.171875 201.039063 L 397.730469 201.039063 C 392.683594 201.039063 388.59375 205.132813 388.59375 210.179688 L 388.59375 217.269531 C 388.59375 219.035156 389.117188 220.671875 389.984375 222.066406 C 391.597656 224.664063 394.449219 226.40625 397.730469 226.40625 L 400.203125 226.40625 C 400.207031 226.40625 400.210938 226.402344 400.214844 226.402344 L 414.414063 226.402344 C 414.421875 226.402344 414.425781 226.40625 414.429688 226.40625 C 416.636719 226.414063 418.421875 228.203125 418.421875 230.410156 C 418.421875 232.625 416.628906 234.421875 414.414063 234.421875 L 400.214844 234.421875 C 398.078125 234.421875 396.371094 232.734375 396.253906 230.632813 L 388.59375 230.632813 L 388.59375 233.957031 C 388.59375 239.003906 392.683594 243.09375 397.730469 243.09375 L 417.171875 243.09375 C 422.21875 243.09375 426.308594 239.003906 426.308594 233.957031 L 426.308594 226.863281 C 426.308594 225.101563 425.785156 223.464844 424.917969 222.066406 C 423.304688 219.472656 420.453125 217.726563 417.171875 217.726563 L 400.214844 217.726563 C 398.003906 217.726563 396.210938 215.9375 396.210938 213.722656 C 396.210938 211.511719 398.003906 209.71875 400.214844 209.71875 L 414.421875 209.71875 C 416.550781 209.71875 418.257813 211.398438 418.378906 213.503906 L 426.308594 213.503906 L 426.308594 210.179688 C 426.308594 205.132813 422.21875 201.039063 417.171875 201.039063 "/>
<path style=" stroke:none;fill-rule:nonzero;fill:rgb(0%,0%,0%);fill-opacity:1;" d="M 477.414063 204.960938 L 477.414063 243.09375 L 511.625 243.09375 L 511.625 232.914063 L 487.597656 232.914063 L 487.597656 227.15625 L 511.625 227.15625 L 511.625 216.976563 L 487.597656 216.976563 L 487.597656 211.222656 L 511.625 211.222656 L 511.625 201.039063 L 477.414063 201.039063 "/>
<path style=" stroke:none;fill-rule:nonzero;fill:rgb(0%,0%,0%);fill-opacity:1;" d="M 518.300781 211.222656 L 539.660156 211.222656 L 518.300781 232.914063 L 518.300781 243.09375 L 552.511719 243.09375 L 552.511719 232.914063 L 532.039063 232.914063 L 552.511719 211.222656 L 552.511719 201.039063 L 518.300781 201.039063 "/>
<path style=" stroke:none;fill-rule:nonzero;fill:rgb(0%,0%,0%);fill-opacity:1;" d="M 688.769531 223.382813 L 674.898438 201.039063 L 664.71875 201.039063 L 664.71875 243.09375 L 674.898438 243.09375 L 674.898438 222.753906 L 688.769531 243.09375 L 698.949219 243.09375 L 698.949219 201.039063 L 688.769531 201.039063 "/>
<path style=" stroke:none;fill-rule:nonzero;fill:rgb(0%,0%,0%);fill-opacity:1;" d="M 757.640625 201.039063 L 747.460938 201.039063 L 747.460938 243.09375 L 782.394531 243.09375 L 782.394531 232.914063 L 757.640625 232.914063 "/>
<path style=" stroke:none;fill-rule:nonzero;fill:rgb(0%,0%,0%);fill-opacity:1;" d="M 918.394531 223.382813 L 904.523438 201.039063 L 894.34375 201.039063 L 894.34375 243.09375 L 904.523438 243.09375 L 904.523438 222.753906 L 918.394531 243.09375 L 928.574219 243.09375 L 928.574219 201.039063 L 918.394531 201.039063 "/>
<path style=" stroke:none;fill-rule:nonzero;fill:rgb(0%,0%,0%);fill-opacity:1;" d="M 605.914063 201.039063 L 586.472656 201.039063 C 581.425781 201.039063 577.335938 205.132813 577.335938 210.179688 L 577.335938 233.957031 C 577.335938 239.003906 581.425781 243.09375 586.472656 243.09375 L 605.914063 243.09375 C 610.960938 243.09375 615.050781 239.003906 615.050781 233.957031 L 615.050781 229.910156 L 607.332031 229.910156 L 607.332031 230.453125 C 607.332031 232.871094 605.371094 234.835938 602.949219 234.835938 L 593.773438 234.835938 C 591.351563 234.835938 589.390625 232.871094 589.390625 230.453125 L 589.390625 213.765625 C 589.390625 211.347656 591.351563 209.386719 593.773438 209.386719 L 602.949219 209.386719 C 605.371094 209.386719 607.332031 211.347656 607.332031 213.765625 L 607.332031 213.472656 L 615.050781 213.472656 L 615.050781 210.179688 C 615.050781 205.132813 610.960938 201.039063 605.914063 201.039063 "/>
<path style=" stroke:none;fill-rule:nonzero;fill:rgb(0%,0%,0%);fill-opacity:1;" d="M 646.464844 225.570313 L 633.699219 225.570313 L 633.699219 214.808594 C 633.699219 212.273438 635.753906 210.21875 638.289063 210.21875 L 641.875 210.21875 C 644.410156 210.21875 646.464844 212.273438 646.464844 214.808594 Z M 643.566406 201.039063 L 636.433594 201.039063 C 627.988281 201.039063 621.140625 207.886719 621.140625 216.332031 L 621.140625 243.09375 L 633.699219 243.09375 L 633.699219 235.753906 L 646.464844 235.753906 L 646.464844 243.09375 L 658.855469 243.09375 L 658.855469 216.332031 C 658.855469 207.886719 652.011719 201.039063 643.566406 201.039063 "/>
<path style=" stroke:none;fill-rule:nonzero;fill:rgb(0%,0%,0%);fill-opacity:1;" d="M 729.671875 225.570313 L 716.902344 225.570313 L 716.902344 214.808594 C 716.902344 212.273438 718.960938 210.21875 721.492188 210.21875 L 725.082031 210.21875 C 727.613281 210.21875 729.671875 212.273438 729.671875 214.808594 Z M 726.769531 201.039063 L 719.636719 201.039063 C 711.191406 201.039063 704.347656 207.886719 704.347656 216.332031 L 704.347656 243.09375 L 716.902344 243.09375 L 716.902344 235.753906 L 729.671875 235.753906 L 729.671875 243.09375 L 742.0625 243.09375 L 742.0625 216.332031 C 742.0625 207.886719 735.214844 201.039063 726.769531 201.039063 "/>
<path style=" stroke:none;fill-rule:nonzero;fill:rgb(0%,0%,0%);fill-opacity:1;" d="M 876.523438 225.570313 L 863.757813 225.570313 L 863.757813 214.808594 C 863.757813 212.273438 865.8125 210.21875 868.347656 210.21875 L 871.9375 210.21875 C 874.46875 210.21875 876.523438 212.273438 876.523438 214.808594 Z M 873.625 201.039063 L 866.492188 201.039063 C 858.046875 201.039063 851.199219 207.886719 851.199219 216.332031 L 851.199219 243.09375 L 863.757813 243.09375 L 863.757813 235.753906 L 876.523438 235.753906 L 876.523438 243.09375 L 888.914063 243.09375 L 888.914063 216.332031 C 888.914063 207.886719 882.070313 201.039063 873.625 201.039063 "/>
<path style=" stroke:none;fill-rule:nonzero;fill:rgb(0%,0%,0%);fill-opacity:1;" d="M 829.65625 217.976563 L 817.601563 217.976563 L 817.601563 209.71875 L 829.65625 209.71875 C 831.9375 209.71875 833.789063 211.566406 833.789063 213.847656 C 833.789063 216.128906 831.9375 217.976563 829.65625 217.976563 M 829.65625 235.917969 L 817.601563 235.917969 L 817.601563 227.65625 L 829.65625 227.65625 C 831.9375 227.65625 833.789063 229.507813 833.789063 231.789063 C 833.789063 234.070313 831.9375 235.917969 829.65625 235.917969 M 837.144531 201.039063 L 801.226563 201.039063 L 801.226563 243.09375 L 837.144531 243.09375 C 841.8125 243.09375 845.59375 239.3125 845.59375 234.644531 L 845.59375 230.515625 C 845.59375 225.847656 841.8125 222.066406 837.144531 222.066406 C 841.8125 222.066406 845.59375 218.285156 845.59375 213.617188 L 845.59375 209.488281 C 845.59375 204.824219 841.8125 201.039063 837.144531 201.039063 "/>
<path style=" stroke:none;fill-rule:nonzero;fill:rgb(0%,0%,0%);fill-opacity:1;" d="M 958.726563 222.066406 L 970.160156 211.226563 C 972.523438 208.984375 972.621094 205.246094 970.378906 202.882813 C 968.136719 200.515625 964.398438 200.417969 962.035156 202.660156 L 950.148438 213.929688 L 948.269531 215.714844 L 948.269531 201.039063 L 935.09375 201.039063 L 935.09375 243.09375 L 948.269531 243.09375 L 948.269531 228.417969 L 950.148438 230.203125 L 962.035156 241.472656 C 964.398438 243.71875 968.136719 243.617188 970.378906 241.253906 C 972.621094 238.886719 972.523438 235.148438 970.160156 232.90625 "/>
<path style=" stroke:none;fill-rule:nonzero;fill:rgb(16.099548%,67.098999%,88.198853%);fill-opacity:1;" d="M 359.933594 177.34375 L 359.933594 158.070313 L 332.0625 168.082031 L 303.777344 158.070313 L 275.992188 167.707031 L 247.789063 158.070313 L 219.753906 167.707031 L 191.800781 158.070313 L 163.597656 167.707031 L 135.3125 158.070313 L 135.3125 177.34375 L 163.183594 186.605469 L 191.507813 176.949219 L 219.855469 186.605469 L 247.621094 177.261719 L 276.242188 186.605469 L 303.609375 176.925781 L 331.730469 186.605469 "/>
<path style=" stroke:none;fill-rule:nonzero;fill:rgb(16.099548%,67.098999%,88.198853%);fill-opacity:1;" d="M 359.933594 205.269531 L 359.933594 185.992188 L 332.0625 196.007813 L 303.777344 185.992188 L 275.992188 195.628906 L 247.789063 185.992188 L 219.753906 195.628906 L 191.800781 185.992188 L 163.597656 195.628906 L 135.3125 185.992188 L 135.3125 205.269531 L 163.183594 214.53125 L 191.507813 204.871094 L 219.855469 214.53125 L 247.621094 205.183594 L 276.242188 214.53125 L 303.609375 204.851563 L 331.730469 214.53125 "/>
<path style=" stroke:none;fill-rule:nonzero;fill:rgb(16.099548%,67.098999%,88.198853%);fill-opacity:1;" d="M 359.933594 233.191406 L 359.933594 213.917969 L 332.0625 223.929688 L 303.777344 213.917969 L 275.992188 223.554688 L 247.789063 213.917969 L 219.753906 223.554688 L 191.800781 213.917969 L 163.597656 223.554688 L 135.3125 213.917969 L 135.3125 233.191406 L 163.183594 242.453125 L 191.507813 232.796875 L 219.855469 242.453125 L 247.621094 233.109375 L 276.242188 242.453125 L 303.609375 232.773438 L 331.730469 242.453125 "/>
</g>
</svg>